<?xml version="1.0" encoding="UTF-8" standalone="no"?>
<svg
   height="32px"
   version="1.1"
   viewBox="0 0 32 32"
   width="32px"
   id="svg2025"
   sodipodi:docname="cloudy_day.svg"
   inkscape:version="1.2.1 (9c6d41e410, 2022-07-14)"
   xmlns:inkscape="http://www.inkscape.org/namespaces/inkscape"
   xmlns:sodipodi="http://sodipodi.sourceforge.net/DTD/sodipodi-0.dtd"
   xmlns="http://www.w3.org/2000/svg"
   xmlns:svg="http://www.w3.org/2000/svg">
  <sodipodi:namedview
     id="namedview2027"
     pagecolor="#ffffff"
     bordercolor="#000000"
     borderopacity="0.25"
     inkscape:showpageshadow="2"
     inkscape:pageopacity="0.0"
     inkscape:pagecheckerboard="0"
     inkscape:deskcolor="#d1d1d1"
     showgrid="false"
     inkscape:zoom="26.15625"
     inkscape:cx="16.038232"
     inkscape:cy="16.038232"
     inkscape:window-width="1350"
     inkscape:window-height="1040"
     inkscape:window-x="454"
     inkscape:window-y="0"
     inkscape:window-maximized="0"
     inkscape:current-layer="svg2025" />
  <title
     id="title2010" />
  <desc
     id="desc2012" />
  <defs
     id="defs2014" />
  <g
     fill="none"
     fill-rule="evenodd"
     id="Partly-Cloudy"
     stroke="none"
     stroke-width="1">
    <g
       stroke="#979797"
       stroke-width="2"
       transform="translate(2.000000, 5.000000)"
       id="g2022">
      <path
         d="M12.0414117,7.57296994 C11.6651156,5.90909589 10.1776503,4.66666667 8.4,4.66666667 C6.33813693,4.66666667 4.66666667,6.33813693 4.66666667,8.4 C4.66666667,8.96920193 4.79404975,9.50865195 5.02186366,9.99139781"
         id="Oval-2"
         stroke-linecap="round" />
      <g
         id="Group-3"
         transform="translate(2.000000, 4.000000)">
        <path
           d="M10.1441195,5.03385852 C9.29274212,4.62749472 8.33960485,4.4 7.33333333,4.4 C3.72507297,4.4 0.8,7.32507297 0.8,10.9333333 C0.8,14.5415937 3.72507297,17.4666667 7.33333333,17.4666667 C9.11597284,17.4666667 10.7318603,16.7527163 11.9106557,15.5951556"
           id="Oval" />
        <path
           d="M10.4628116,13.7934799 C11.974939,16.0108696 14.5212905,17.4666667 17.4076616,17.4666667 C22.0468535,17.4666667 25.8076616,13.7058586 25.8076616,9.06666667 C25.8076616,4.42747477 22.0468535,0.666666667 17.4076616,0.666666667 C13.3847405,0.666666667 10.0223343,3.49466753 9.2,7.27111244"
           id="path2018"
           stroke-linecap="round" />
      </g>
      <path
         d="M7.94386176,1.86666667 L7.94386176,0 M12.6913459,4.15627042 L14.1420184,2.98153902 M2.02877844,9.28102555 L0.209954317,9.70093419 M3.19637762,4.15627042 L1.74570516,2.98153902"
         id="Path-4"
         stroke-linecap="round" />
    </g>
  </g>
  <path
     style="fill:#ffffff;stroke-width:0.0382318"
     d="m 10.255166,27.407247 c -3.9060936,-0.56512 -6.7109912,-4.039952 -6.4481983,-7.988314 0.1068646,-1.6056 0.721374,-3.126944 1.7642125,-4.367668 L 5.838387,14.733353 5.7754987,14.482994 C 5.6634019,14.036734 5.6230649,13.448559 5.6717679,12.970437 5.8814434,10.912034 7.239277,9.3306622 9.2679535,8.7822159 9.6048833,8.691128 9.6960149,8.683146 10.399044,8.683146 c 0.70303,0 0.794161,0.00798 1.131091,0.09907 1.363286,0.36856 2.407769,1.1739917 3.0387,2.343232 0.07943,0.147192 0.149549,0.27428 0.155828,0.282417 0.0063,0.0081 0.154872,-0.120895 0.330206,-0.286738 1.641951,-1.5530721 3.975311,-2.4616287 6.321969,-2.4616287 2.626878,0 4.990153,0.9988194 6.800653,2.8742417 1.430596,1.481896 2.26235,3.196547 2.565257,5.288243 0.09164,0.632838 0.09154,1.901082 -2.29e-4,2.504182 -0.331324,2.177923 -1.220364,3.952579 -2.724,5.437503 -1.40858,1.391052 -3.105272,2.258276 -5.079468,2.596249 -0.583414,0.09988 -1.926507,0.139738 -2.506754,0.07439 -1.422769,-0.160221 -2.670947,-0.576194 -3.846011,-1.28174 l -0.528938,-0.317601 -0.132847,0.100436 c -1.037763,0.784578 -2.268051,1.295393 -3.550856,1.474314 -0.530016,0.07392 -1.599045,0.07268 -2.118479,-0.0025 z m 2.265742,-2.092398 c 0.475362,-0.111485 0.875015,-0.251686 1.242533,-0.43589 0.215145,-0.107833 0.639072,-0.357108 0.701131,-0.412274 0.0071,-0.0063 -0.115876,-0.163394 -0.273341,-0.349019 -0.771084,-0.908977 -0.901204,-1.307601 -0.599351,-1.836124 0.328923,-0.575923 1.144016,-0.67665 1.589946,-0.196481 0.06518,0.07018 0.221867,0.265238 0.3482,0.433458 1.538496,2.048604 4.107999,3.162131 6.655471,2.884231 2.879259,-0.314093 5.320397,-2.28297 6.219958,-5.016647 0.834704,-2.536588 0.261033,-5.254224 -1.535627,-7.274675 -1.511531,-1.699805 -3.919779,-2.626826 -6.200098,-2.386639 -3.046374,0.320877 -5.579714,2.468819 -6.379543,5.409022 -0.159931,0.587914 -0.225796,0.729785 -0.416576,0.897292 -0.366703,0.321969 -0.892212,0.341 -1.297795,0.047 -0.184607,-0.13382 -0.35684,-0.439948 -0.38531,-0.684852 -0.02549,-0.21926 0.08095,-0.701204 0.296661,-1.343296 0.08161,-0.242908 0.135486,-0.453932 0.119732,-0.468942 -0.01575,-0.01501 -0.206548,-0.05673 -0.423986,-0.0927 -0.484662,-0.08019 -1.5055,-0.05955 -1.955912,0.03954 -1.0470811,0.230361 -1.996674,0.741855 -2.7452431,1.478713 -0.7681944,0.756177 -1.2791526,1.664261 -1.5269933,2.713799 -0.092834,0.393126 -0.1025586,0.505397 -0.1038033,1.198398 -0.00109,0.607035 0.013271,0.831617 0.069677,1.089606 0.4806537,2.19841 2.1427471,3.870075 4.2918157,4.31653 0.52917,0.109932 0.569974,0.113058 1.276196,0.09776 0.501055,-0.01085 0.713405,-0.03303 1.032258,-0.107808 z M 8.0190402,13.146957 c 0.6255174,-0.315005 1.449746,-0.568854 2.2270768,-0.685902 0.738669,-0.111227 2.026118,-0.07119 2.636442,0.082 l 0.09952,0.02498 -0.07716,-0.195746 c -0.286275,-0.726284 -0.956197,-1.326752 -1.760357,-1.57785 -0.409789,-0.127956 -1.081251,-0.127956 -1.4910395,0 -0.8515227,0.265887 -1.5040348,0.879575 -1.8013125,1.694135 -0.106789,0.292609 -0.1915699,0.796977 -0.1339665,0.796977 0.014079,0 0.149437,-0.06236 0.3007947,-0.138587 z"
     id="path2509" />
  <path
     style="fill:#ffffff;stroke-width:0.0382318"
     d="M 4.9491254,10.138152 C 4.7069698,10.070818 4.6128374,10.005174 3.748021,9.3005499 2.8614451,8.5781967 2.7724979,8.4677989 2.7428139,8.0529269 2.7267214,7.8280131 2.7379869,7.7582808 2.8190046,7.5813149 3.0110835,7.1617593 3.3590164,6.9537978 3.8171097,6.9847417 c 0.1295024,0.00875 0.29578,0.04503 0.3695057,0.080628 C 4.3947123,7.1658462 5.9138157,8.411574 6.0250887,8.5729941 6.2837442,8.948217 6.2753625,9.3984799 6.0027377,9.7737001 5.7797575,10.080593 5.3173544,10.240541 4.9491254,10.138152 Z"
     id="path2511" />
  <path
     style="fill:#ffffff;stroke-width:0.0382318"
     d="M 9.7044485,7.8602583 C 9.504104,7.8091133 9.2364568,7.6313846 9.1221487,7.4735868 8.9355442,7.2159869 8.9216628,7.0958671 8.9344603,5.8494624 8.947869,4.5435165 8.9504282,4.5317859 9.2864618,4.2359973 9.7755139,3.8055164 10.568284,3.9644059 10.859271,4.5512248 c 0.06869,0.1385274 0.07596,0.24877 0.08616,1.3073834 0.0071,0.735899 -0.0037,1.2112481 -0.02971,1.3078308 -0.126979,0.4715653 -0.729639,0.8167711 -1.2112685,0.6938193 z"
     id="path2513" />
  <path
     style="fill:#ffffff;stroke-width:0.0382318"
     d="M 14.459928,10.14815 C 14.260812,10.09973 14.12978,10.026124 13.980206,9.8786676 13.629224,9.5326536 13.574804,8.9977846 13.849336,8.5924124 13.98146,8.3973198 15.455799,7.1927392 15.713262,7.0695279 c 0.240979,-0.1153233 0.613576,-0.1245535 0.841099,-0.020836 0.669068,0.3049978 0.805966,1.1863358 0.262634,1.6908207 -0.300232,0.278766 -1.529759,1.2495716 -1.677498,1.3245124 -0.186226,0.09446 -0.484969,0.131445 -0.679569,0.08412 z"
     id="path2515" />
  <path
     style="fill:#ffffff;stroke-width:0.0382318"
     d="M 1.9880526,15.69832 C 1.504931,15.572535 1.2059804,15.190969 1.2059804,14.700119 c 0,-0.389214 0.1914863,-0.724319 0.5054039,-0.884468 0.2284797,-0.116561 2.0639668,-0.539439 2.3423988,-0.539665 0.537502,-4.35e-4 0.9725077,0.433196 0.9789899,0.975897 0.00462,0.387093 -0.167485,0.711901 -0.4793524,0.904645 -0.1311237,0.08104 -1.9265535,0.5188 -2.2697464,0.553408 -0.099509,0.01003 -0.2325392,0.0048 -0.2956216,-0.01162 z"
     id="path2517" />
</svg>
