<?xml version="1.0" encoding="UTF-8" standalone="no"?>
<svg
   height="32px"
   version="1.1"
   viewBox="0 0 32 32"
   width="32px"
   id="svg11223"
   sodipodi:docname="sunny.svg"
   inkscape:version="1.2.1 (9c6d41e410, 2022-07-14)"
   xmlns:inkscape="http://www.inkscape.org/namespaces/inkscape"
   xmlns:sodipodi="http://sodipodi.sourceforge.net/DTD/sodipodi-0.dtd"
   xmlns="http://www.w3.org/2000/svg"
   xmlns:svg="http://www.w3.org/2000/svg">
  <sodipodi:namedview
     id="namedview11225"
     pagecolor="#ffffff"
     bordercolor="#000000"
     borderopacity="0.25"
     inkscape:showpageshadow="2"
     inkscape:pageopacity="0.0"
     inkscape:pagecheckerboard="0"
     inkscape:deskcolor="#d1d1d1"
     showgrid="false"
     inkscape:zoom="26.15625"
     inkscape:cx="16.019116"
     inkscape:cy="16.019116"
     inkscape:window-width="1920"
     inkscape:window-height="1017"
     inkscape:window-x="-8"
     inkscape:window-y="-8"
     inkscape:window-maximized="1"
     inkscape:current-layer="svg11223" />
  <title
     id="title11212" />
  <desc
     id="desc11214" />
  <defs
     id="defs11216" />
  <g
     fill="none"
     fill-rule="evenodd"
     id="Sunny"
     stroke="none"
     stroke-width="1">
    <g
       stroke="#979797"
       stroke-width="2"
       transform="translate(2.000000, 2.000000)"
       id="g11220">
      <circle
         cx="14"
         cy="14"
         id="Oval-4"
         r="8" />
      <path
         d="M14,0 L14,3 M23.8994949,4.10050506 L21.7781746,6.22182541 M28,14 L25,14 M23.8994949,23.8994949 L21.7781746,21.7781746 M14,28 L14,25 M4.10050506,23.8994949 L6.22182541,21.7781746 M3.83475851e-17,14 L3,14 M4.10050506,4.10050506 L6.22182541,6.22182541"
         id="Path-7"
         stroke-linecap="round" />
    </g>
  </g>
  <path
     style="fill:#3a3e59;stroke-width:0.0382318"
     d="M 1.7518013,16.941647 C 1.0596569,16.751589 0.79908358,15.903751 1.2688088,15.370115 c 0.080646,-0.09162 0.228155,-0.206729 0.3277987,-0.255802 L 1.7777778,15.02509 H 3.479092 c 1.5476676,0 1.7174423,0.0062 1.8798987,0.06891 0.1994758,0.07698 0.4653645,0.339554 0.5507349,0.543874 0.069662,0.166724 0.070093,0.556486 7.99e-4,0.722329 -0.080287,0.192154 -0.3257282,0.444659 -0.519844,0.534806 -0.1651639,0.0767 -0.237776,0.08021 -1.8160095,0.08783 -1.2415207,0.006 -1.6877625,-0.0041 -1.8228701,-0.04119 z"
     id="path11227" />
  <path
     style="fill:#3a3e59;stroke-width:0.0382318"
     d="M 15.330944,24.960912 C 14.007489,24.839548 12.79809,24.47957 11.718041,23.885527 9.2749362,22.541784 7.6441103,20.26149 7.1448172,17.491039 7.0437762,16.930388 7.0051654,15.696874 7.069442,15.082996 7.4633525,11.320935 10.194069,8.1772426 13.839904,7.2886135 14.652058,7.0906608 15.108798,7.0376263 16,7.0377938 c 0.913068,1.717e-4 1.410823,0.059787 2.222921,0.2662382 2.238678,0.5691137 4.191087,2.0045562 5.412773,3.979558 0.885607,1.431689 1.329658,3.006777 1.329658,4.71641 0,1.81392 -0.495254,3.462028 -1.490789,4.961053 -1.415691,2.131672 -3.65175,3.549707 -6.193798,3.927902 -0.392642,0.05842 -1.608275,0.103278 -1.949821,0.07196 z m 1.693811,-2.025836 c 2.383348,-0.326583 4.47752,-1.938145 5.425567,-4.175224 0.673263,-1.588679 0.744527,-3.366068 0.200373,-4.997491 -0.790325,-2.369468 -2.84024,-4.1725922 -5.278659,-4.6431586 -2.703071,-0.5216388 -5.410008,0.5319118 -7.039328,2.7397346 -2.0223715,2.74043 -1.7386676,6.625723 0.661256,9.055816 1.594415,1.614459 3.742098,2.333936 6.030791,2.020323 z"
     id="path11231" />
  <path
     style="fill:#3a3e59;stroke-width:0.0382318"
     d="M 7.8375149,9.1158488 C 7.7108895,9.0590176 7.3544309,8.7287001 6.4872403,7.8645976 5.8364473,7.216122 5.2744835,6.624198 5.2318837,6.5423138 5.1341429,6.3544392 5.1020076,6.0491264 5.1581216,5.8415121 5.2663568,5.4410562 5.6793209,5.1278375 6.099068,5.1278375 c 0.3942308,0 0.456499,0.0482 1.7828163,1.3800326 1.1442012,1.148959 1.2132333,1.2262284 1.2709465,1.4226054 0.075263,0.2560911 0.075791,0.3213472 0.00454,0.5612685 C 8.9940416,9.0417392 8.3504562,9.3460634 7.8375149,9.1158488 Z"
     id="path11233" />
  <path
     style="fill:#3a3e59;stroke-width:0.0382318"
     d="m 15.751246,5.9498273 c -0.292062,-0.095776 -0.521166,-0.3006379 -0.64669,-0.5782622 -0.07449,-0.1647407 -0.07779,-0.2442544 -0.07779,-1.8733572 0,-1.6291027 0.0033,-1.7086165 0.07779,-1.8733572 C 15.279047,1.238926 15.589091,1.034529 16,1.034529 c 0.410909,0 0.720953,0.204397 0.895444,0.5903217 0.07448,0.1647407 0.07779,0.2442545 0.07779,1.8733572 0,1.6291028 -0.0033,1.7086165 -0.07779,1.8733572 -0.09593,0.2121795 -0.274081,0.4025818 -0.472127,0.5046045 -0.163927,0.084447 -0.520125,0.1234855 -0.672071,0.073658 z"
     id="path11235" />
  <path
     style="fill:#3a3e59;stroke-width:0.0382318"
     d="M 23.376608,9.1039924 C 23.135435,8.9916892 22.916574,8.7407487 22.842627,8.491744 c -0.07125,-0.2399213 -0.07072,-0.3051774 0.0045,-0.5612685 0.05771,-0.196377 0.126745,-0.2736464 1.270947,-1.4226054 1.326317,-1.3318324 1.388585,-1.3800326 1.782816,-1.3800326 0.419747,0 0.832711,0.3132187 0.940946,0.7136746 0.05611,0.2076143 0.02398,0.5129271 -0.07376,0.7008017 -0.0426,0.081884 -0.604563,0.6738082 -1.255356,1.3222838 -0.867191,0.8641025 -1.22365,1.19442 -1.350275,1.2512512 -0.23871,0.1071358 -0.540104,0.1025889 -0.785877,-0.011856 z"
     id="path11237" />
  <path
     style="fill:#3a3e59;stroke-width:0.0382318"
     d="M 26.789677,16.953237 C 26.571903,16.900536 26.4465,16.824388 26.287319,16.648193 26.096717,16.43722 26.035842,16.280312 26.035842,16 c 0,-0.286298 0.06294,-0.442574 0.267724,-0.664737 0.287467,-0.311866 0.275369,-0.310173 2.217342,-0.310173 h 1.701314 l 0.181171,0.08922 c 0.590301,0.290714 0.751188,1.034575 0.327798,1.515572 -0.08065,0.09162 -0.228155,0.206729 -0.327798,0.255802 -0.180584,0.08893 -0.186499,0.08924 -1.825137,0.09588 -0.904182,0.0037 -1.709042,-0.0091 -1.788579,-0.02833 z"
     id="path11239" />
  <path
     style="fill:#3a3e59;stroke-width:0.0382318"
     d="m 25.651184,26.845326 c -0.09591,-0.02666 -0.224943,-0.08502 -0.286738,-0.129687 -0.0618,-0.04466 -0.639719,-0.61159 -1.284275,-1.259834 -1.10609,-1.112419 -1.175349,-1.190289 -1.232975,-1.386281 -0.07529,-0.256074 -0.07582,-0.321331 -0.0046,-0.561268 0.119503,-0.40241 0.520684,-0.70271 0.93754,-0.701786 0.383389,8.5e-4 0.454513,0.0554 1.732593,1.328932 0.650793,0.648476 1.212756,1.2404 1.255356,1.322284 0.09774,0.187875 0.129876,0.493188 0.07376,0.700802 -0.132464,0.4901 -0.706752,0.821371 -1.190694,0.686838 z"
     id="path11241" />
  <path
     style="fill:#3a3e59;stroke-width:0.0382318"
     d="m 15.751246,30.953412 c -0.292062,-0.09578 -0.521166,-0.300638 -0.64669,-0.578263 -0.07449,-0.16474 -0.07779,-0.244254 -0.07779,-1.873357 0,-1.629103 0.0033,-1.708616 0.07779,-1.873357 C 15.279047,26.24251 15.589091,26.038113 16,26.038113 c 0.410909,0 0.720953,0.204397 0.895444,0.590322 0.07448,0.164741 0.07779,0.244254 0.07779,1.873357 0,1.629103 -0.0033,1.708617 -0.07779,1.873357 -0.09593,0.21218 -0.274081,0.402582 -0.472127,0.504605 -0.163927,0.08445 -0.520125,0.123485 -0.672071,0.07366 z"
     id="path11243" />
  <path
     style="fill:#3a3e59;stroke-width:0.0382318"
     d="m 5.9029107,26.861321 c -0.3410022,-0.08556 -0.6590786,-0.385716 -0.7447891,-0.702833 -0.056114,-0.207614 -0.023979,-0.512927 0.073762,-0.700802 0.0426,-0.08188 0.6045636,-0.673808 1.2553566,-1.322284 1.2780799,-1.273528 1.3492041,-1.328082 1.7325924,-1.328932 0.4168562,-9.24e-4 0.818037,0.299376 0.93754,0.701786 0.071249,0.239921 0.070721,0.305177 -0.00454,0.561268 -0.057713,0.196377 -0.1267453,0.273647 -1.2709465,1.422606 -0.7798007,0.783043 -1.2643755,1.240814 -1.3631057,1.287706 -0.1829888,0.08691 -0.4522494,0.122537 -0.6158679,0.08149 z"
     id="path11245" />
</svg>
