<?xml version="1.0" encoding="UTF-8" standalone="no"?>
<svg
   height="32px"
   version="1.1"
   viewBox="0 0 32 32"
   width="32px"
   id="svg3684"
   sodipodi:docname="lightning.svg"
   inkscape:version="1.2.1 (9c6d41e410, 2022-07-14)"
   xmlns:inkscape="http://www.inkscape.org/namespaces/inkscape"
   xmlns:sodipodi="http://sodipodi.sourceforge.net/DTD/sodipodi-0.dtd"
   xmlns="http://www.w3.org/2000/svg"
   xmlns:svg="http://www.w3.org/2000/svg">
  <sodipodi:namedview
     id="namedview3686"
     pagecolor="#ffffff"
     bordercolor="#000000"
     borderopacity="0.25"
     inkscape:showpageshadow="2"
     inkscape:pageopacity="0.0"
     inkscape:pagecheckerboard="0"
     inkscape:deskcolor="#d1d1d1"
     showgrid="false"
     inkscape:zoom="26.15625"
     inkscape:cx="16.038232"
     inkscape:cy="16.038232"
     inkscape:window-width="1350"
     inkscape:window-height="1040"
     inkscape:window-x="416"
     inkscape:window-y="0"
     inkscape:window-maximized="0"
     inkscape:current-layer="svg3684" />
  <title
     id="title3671" />
  <desc
     id="desc3673" />
  <defs
     id="defs3675" />
  <g
     fill="none"
     fill-rule="evenodd"
     id="Thunder"
     stroke="none"
     stroke-width="1">
    <g
       transform="translate(3.000000, 2.000000)"
       id="g3681">
      <path
         d="M9.64075822,4.50583286 C8.76235298,4.08656863 7.77895738,3.85185185 6.74074074,3.85185185 C3.01793243,3.85185185 0,6.86978428 0,10.5925926 C0,14.3154009 3.01793243,17.3333333 6.74074074,17.3333333 C8.57997198,17.3333333 10.2471575,16.5967179 11.4633749,15.4024092"
         id="Oval"
         stroke="#979797"
         stroke-width="2" />
      <path
         d="M9.96956753,13.5435375 C11.529699,15.8313205 14.156887,17.3333333 17.134889,17.3333333 C21.9213568,17.3333333 25.8015556,13.4531345 25.8015556,8.66666667 C25.8015556,3.88019884 21.9213568,0 17.134889,0 C12.9842561,0 9.51510686,2.91777867 8.66666667,6.81411072"
         id="path3678"
         stroke="#979797"
         stroke-linecap="round"
         stroke-width="2" />
      <polygon
         fill="#979797"
         id="Rectangle-5"
         points="10 18 14 18 12 22 15 22 9 30 10 25 7 25" />
    </g>
  </g>
  <path
     style="fill:#ffffff;stroke-width:0.0382318"
     d="M 9.0035842,20.316966 C 6.6896084,20.095958 4.6138873,18.856384 3.2921438,16.906223 2.9779627,16.442666 2.5541494,15.578825 2.3761198,15.03913 1.5440664,12.516769 2.0708309,9.6869693 3.7487193,7.6654719 5.6168796,5.4147376 8.5062717,4.410385 11.381529,5.0123076 c 0.245983,0.051495 0.513433,0.1169812 0.594333,0.1455247 l 0.147092,0.051897 0.284999,-0.3835894 c 0.156749,-0.2109741 0.482307,-0.5895885 0.723463,-0.8413653 1.542449,-1.6103809 3.46812,-2.5936559 5.716852,-2.9191061 0.689248,-0.0997523 1.97145,-0.0914063 2.676224,0.01742 1.673367,0.2583888 3.08326,0.8429413 4.396655,1.8228868 2.159884,1.6115252 3.557816,4.0563018 3.841016,6.717369 0.05081,0.4774447 0.05081,1.6091997 0,2.0866447 -0.215077,2.020951 -1.102403,3.988342 -2.47024,5.477047 -1.568785,1.707411 -3.536996,2.738413 -5.882126,3.081218 -0.68047,0.09947 -1.963779,0.09053 -2.676225,-0.01864 -1.348707,-0.206668 -2.637131,-0.680953 -3.750066,-1.380447 l -0.370067,-0.232592 -0.195608,0.149463 c -1.494033,1.141576 -3.513153,1.7125 -5.4142468,1.530928 z M 10.3369,18.275214 c 0.351031,-0.02609 0.85762,-0.135169 1.252057,-0.269584 0.439813,-0.149879 1.145362,-0.511143 1.423695,-0.728977 0.0076,-0.006 -0.127165,-0.179517 -0.299512,-0.38568 -0.402837,-0.481879 -0.675784,-0.890316 -0.730664,-1.093363 -0.0932,-0.344819 0.02024,-0.724096 0.296244,-0.990486 0.195256,-0.188456 0.401249,-0.269212 0.687095,-0.269364 0.346232,-1.91e-4 0.612864,0.132984 0.824076,0.411586 0.98011,1.292824 1.80218,2.001699 2.99386,2.581623 1.094177,0.532474 2.117762,0.767099 3.350963,0.768107 1.929658,0.0016 3.635416,-0.651425 5.120859,-1.960379 0.92179,-0.812269 1.73978,-2.06468 2.133279,-3.26623 C 28.668045,9.1664593 26.681675,4.9975941 22.833172,3.511301 22.398218,3.343322 21.74437,3.1757724 21.217334,3.0972401 20.666303,3.0151324 19.639062,3.0147332 19.064737,3.0964037 16.012875,3.5303867 13.48993,5.7934069 12.726355,8.7817784 12.578612,9.3599958 12.459518,9.5490477 12.143168,9.7075387 11.901433,9.8286478 11.711735,9.8567321 11.471833,9.8069287 11.049244,9.7191998 10.724292,9.3816705 10.661786,8.9655298 10.626969,8.7337336 10.723683,8.2778032 10.952356,7.5957154 11.0733,7.2349614 11.121118,7.0429848 11.092472,7.0331856 10.647664,6.8810281 9.4128845,6.8360239 8.7933094,6.949388 8.0265856,7.0896761 7.1759878,7.425972 6.5892385,7.8207985 5.3309301,8.6675211 4.4756894,9.9233556 4.1419238,11.414432 c -0.077823,0.34767 -0.089327,0.500337 -0.089137,1.18294 1.721e-4,0.621159 0.014957,0.851167 0.071267,1.108721 0.2486943,1.137495 0.7707691,2.103718 1.5730582,2.911316 0.9728801,0.979318 2.2383502,1.568671 3.5932103,1.673426 0.373406,0.02887 0.4667947,0.02748 1.0465777,-0.01562 z"
     id="path4168" />
  <path
     style="fill:#ffffff;stroke-width:0.0382318"
     d="m 11.985663,31.997221 c 0,-0.03585 0.932929,-4.725505 0.974863,-4.900447 l 0.02062,-0.08602 h -1.491768 c -0.820472,0 -1.4917887,-0.0129 -1.4918147,-0.02867 -2.6e-5,-0.01577 0.6728317,-1.598566 1.4952397,-3.517324 l 1.495286,-3.48865 h 2.022157 2.022156 l -0.994098,1.987908 c -0.546754,1.09335 -0.994099,1.996376 -0.994099,2.006725 0,0.01035 0.669893,0.02332 1.48865,0.02882 l 1.48865,0.01 -2.981862,3.976105 c -1.640024,2.186858 -2.998088,3.992449 -3.017921,4.012425 -0.02277,0.02294 -0.03606,0.02262 -0.03606,-8.67e-4 z"
     id="path4170" />
</svg>
