<?xml version="1.0" encoding="UTF-8" standalone="no"?>
<svg
   height="32px"
   version="1.1"
   viewBox="0 0 32 32"
   width="32px"
   id="svg10060"
   sodipodi:docname="clear_night.svg"
   inkscape:version="1.2.1 (9c6d41e410, 2022-07-14)"
   xmlns:inkscape="http://www.inkscape.org/namespaces/inkscape"
   xmlns:sodipodi="http://sodipodi.sourceforge.net/DTD/sodipodi-0.dtd"
   xmlns="http://www.w3.org/2000/svg"
   xmlns:svg="http://www.w3.org/2000/svg">
  <sodipodi:namedview
     id="namedview10062"
     pagecolor="#ffffff"
     bordercolor="#000000"
     borderopacity="0.25"
     inkscape:showpageshadow="2"
     inkscape:pageopacity="0.0"
     inkscape:pagecheckerboard="0"
     inkscape:deskcolor="#d1d1d1"
     showgrid="false"
     inkscape:zoom="6.5390625"
     inkscape:cx="-8.7168459"
     inkscape:cy="35.784946"
     inkscape:window-width="1920"
     inkscape:window-height="1017"
     inkscape:window-x="-8"
     inkscape:window-y="-8"
     inkscape:window-maximized="1"
     inkscape:current-layer="svg10060" />
  <title
     id="title10043" />
  <desc
     id="desc10045" />
  <defs
     id="defs10047" />
  <g
     fill="none"
     fill-rule="evenodd"
     id="Clearly-Night"
     stroke="none"
     stroke-width="1">
    <g
       stroke="#979797"
       transform="translate(4.000000, 3.000000)"
       id="g10057">
      <path
         d="M8.58855755,0.76761511 C7.57578659,2.61805976 7,4.7417888 7,7 C7,14.1797017 12.8202983,20 20,20 C21.5486507,20 23.034054,19.7292058 24.4114424,19.2323849 C22.2042341,23.2651989 17.9214905,26 13,26 C5.82029825,26 0,20.1797017 0,13 C0,7.36894896 3.58023357,2.57410627 8.58855755,0.76761511 Z"
         id="Combined-Shape"
         stroke-linecap="round"
         stroke-linejoin="round"
         stroke-width="2" />
      <polygon
         fill="#D8D8D8"
         id="Star"
         points="12.25 6.39154576 12.1030537 6.45225425 12.115382 6.29374004 12.0122359 6.17274575 12.1668015 6.13548708 12.25 6 12.3331985 6.13548708 12.4877641 6.17274575 12.384618 6.29374004 12.3969463 6.45225425" />
      <polygon
         fill="#D8D8D8"
         id="polygon10051"
         points="20 6.56618304 19.4122147 6.80901699 19.4615279 6.17496018 19.0489435 5.69098301 19.667206 5.5419483 20 5 20.332794 5.5419483 20.9510565 5.69098301 20.5384721 6.17496018 20.5877853 6.80901699" />
      <polygon
         fill="#D8D8D8"
         id="polygon10053"
         points="15.5 9.78309152 15.2061074 9.9045085 15.230764 9.58748009 15.0244717 9.3454915 15.333603 9.27097415 15.5 9 15.666397 9.27097415 15.9755283 9.3454915 15.769236 9.58748009 15.7938926 9.9045085" />
      <polygon
         fill="#D8D8D8"
         id="polygon10055"
         points="16 2.56618304 15.4122147 2.80901699 15.4615279 2.17496018 15.0489435 1.69098301 15.667206 1.5419483 16 1 16.332794 1.5419483 16.9510565 1.69098301 16.5384721 2.17496018 16.5877853 2.80901699" />
    </g>
  </g>
  <path
     style="fill:#3a3e59;stroke-width:0.0382318"
     d="M 16.363202,29.970388 C 15.747501,29.929526 15.139509,29.861713 14.661648,29.780602 9.0569998,28.82929 4.594144,24.578346 3.3461457,19.002399 2.8964335,16.993124 2.9173353,14.826163 3.4064512,12.750299 4.363097,8.690183 7.1974733,5.1854028 10.979429,3.3861134 11.81392,2.989099 12.337563,2.7985344 12.598143,2.7970288 c 0.422693,-0.00244 0.801483,0.2838621 0.922445,0.6972214 0.09181,0.3137414 0.05468,0.470723 -0.264878,1.1197421 -1.226541,2.491118 -1.566389,5.1199359 -1.017031,7.8670197 0.766615,3.833481 3.634119,7.243431 7.297056,8.677439 1.447699,0.566762 2.602973,0.79832 4.156795,0.833172 1.562111,0.03504 2.66788,-0.121 4.059522,-0.572847 0.608114,-0.197446 0.82324,-0.205251 1.118182,-0.04057 0.345727,0.19304 0.564277,0.60289 0.514632,0.965093 -0.04586,0.334607 -0.755377,1.483419 -1.47772,2.392658 -0.733418,0.923177 -1.934135,2.046894 -2.920956,2.733638 -0.81263,0.565522 -1.998353,1.201412 -2.888221,1.548919 -1.157578,0.452053 -2.488045,0.771058 -3.737034,0.896027 -0.432072,0.04323 -1.667427,0.07776 -1.997733,0.05584 z m 2.351254,-2.073647 c 1.404479,-0.219659 2.520577,-0.572756 3.708483,-1.173243 0.968416,-0.489535 1.851877,-1.097831 2.676225,-1.842684 0.429442,-0.38803 0.999778,-0.992944 0.967045,-1.025676 -0.01,-0.01 -0.257471,0.01 -0.549954,0.04436 -0.659219,0.07751 -2.216402,0.08801 -2.863925,0.0193 -3.298077,-0.349946 -6.221707,-1.73464 -8.526058,-4.038123 -2.172553,-2.171735 -3.567289,-4.970376 -3.972682,-7.97148 -0.183493,-1.358392 -0.1776779,-2.5882863 0.01867,-3.9491813 0.08512,-0.5899389 0.256411,-1.385764 0.394617,-1.8333759 0.05032,-0.162963 0.07549,-0.2962963 0.05594,-0.2962963 -0.05297,0 -0.6512637,0.4098569 -1.064872,0.7294857 C 9.1361457,6.885791 8.2128501,7.7773438 7.8388427,8.2198327 6.2548802,10.093821 5.3126939,12.302004 5.0412112,14.776583 c -0.068341,0.62293 -0.057387,1.989842 0.020986,2.618877 0.4145894,3.327554 2.0776265,6.224196 4.7106037,8.204826 1.6290851,1.225463 3.4929211,2.001913 5.5003151,2.291363 0.723116,0.104267 0.743805,0.105289 1.892953,0.09356 0.827637,-0.0084 1.157141,-0.02728 1.548387,-0.08847 z"
     id="path10064" />
  <path
     style="fill:#3a3e59;stroke-width:0.0382318"
     d="m 18.672782,13.505376 c 0.01053,-0.06834 0.02978,-0.267232 0.04279,-0.441985 l 0.02366,-0.317733 -0.290532,-0.339702 -0.290531,-0.339703 0.144332,-0.04017 c 0.07938,-0.0221 0.274946,-0.06838 0.434585,-0.102855 l 0.290252,-0.06268 0.225877,-0.375883 c 0.124232,-0.206735 0.234479,-0.376114 0.244993,-0.376399 0.01051,-2.84e-4 0.122342,0.166081 0.248506,0.3697 l 0.229391,0.370215 0.413583,0.103194 c 0.227471,0.05676 0.419687,0.109299 0.427148,0.11676 0.0075,0.0075 -0.11485,0.163246 -0.271801,0.34619 l -0.285368,0.332625 0.03707,0.431352 c 0.02039,0.237243 0.0313,0.437121 0.02425,0.444173 -0.0071,0.0071 -0.18057,-0.05727 -0.385595,-0.142937 -0.205026,-0.08567 -0.401382,-0.155759 -0.436348,-0.155759 -0.03497,0 -0.224586,0.06882 -0.421377,0.152928 -0.196791,0.08411 -0.372699,0.152927 -0.390908,0.152927 -0.01821,0 -0.02449,-0.05591 -0.01397,-0.124254 z"
     id="path10066" />
  <path
     style="fill:#3a3e59;stroke-width:0.0382318"
     d="m 15.581411,9.876941 c 0.0129,-0.1754478 0.03012,-0.3405495 0.03827,-0.3668928 0.0081,-0.026343 -0.097,-0.1760852 -0.23364,-0.3327598 l -0.248442,-0.2848628 0.144464,-0.03699 c 0.07946,-0.020344 0.242571,-0.058104 0.362481,-0.08391 0.217818,-0.046877 0.218184,-0.047195 0.399482,-0.3470964 0.09981,-0.1650971 0.192885,-0.3001766 0.206843,-0.3001766 0.01396,0 0.106692,0.134509 0.206076,0.2989089 0.180547,0.2986593 0.180879,0.2989465 0.397123,0.3440624 0.119034,0.024834 0.281788,0.063411 0.361677,0.085726 l 0.145252,0.040572 -0.236896,0.2672062 -0.236896,0.2672062 0.0249,0.379922 0.0249,0.3799217 -0.181761,-0.07205 c -0.09997,-0.03963 -0.25496,-0.10152 -0.344427,-0.1375405 L 16.24815,9.9126955 15.93487,10.041173 c -0.172304,0.07066 -0.327598,0.134391 -0.345098,0.141619 -0.0175,0.0072 -0.02126,-0.130406 -0.0084,-0.3058545 z"
     id="path10068" />
  <path
     style="fill:#3a3e59;stroke-width:0.0382318"
     d="m 20.721617,6.3810603 c -0.220784,-0.093133 -0.474478,-0.1972409 -0.563763,-0.23135 l -0.162337,-0.062017 -0.53631,0.2208669 c -0.294971,0.1214768 -0.547064,0.2101139 -0.560206,0.1969712 -0.01314,-0.013143 -0.0028,-0.2817422 0.02307,-0.5968879 l 0.04697,-0.5729921 -0.3758,-0.4448455 c -0.20669,-0.2446651 -0.374445,-0.4559394 -0.37279,-0.4694985 0.0017,-0.013559 0.259404,-0.08624 0.572774,-0.1615141 l 0.569764,-0.136861 0.306557,-0.5023177 c 0.168606,-0.2762747 0.317093,-0.5028593 0.329971,-0.5035213 0.01288,-6.62e-4 0.15033,0.208139 0.305451,0.4640022 0.155121,0.2558631 0.301217,0.4843848 0.324658,0.5078258 0.02344,0.023441 0.294459,0.1022704 0.602262,0.1751765 0.307802,0.072906 0.559772,0.1420823 0.559933,0.153725 1.6e-4,0.011643 -0.171439,0.2228558 -0.381333,0.4693625 l -0.381625,0.4481941 0.02063,0.2188095 c 0.0283,0.3001685 0.08139,0.9820037 0.07707,0.9898248 -0.0019,0.00351 -0.184163,-0.06982 -0.404947,-0.1629538 z M 20.033453,5.0083632 c 0,-0.031541 -0.0172,-0.057348 -0.03823,-0.057348 -0.02103,0 -0.03823,0.025807 -0.03823,0.057348 0,0.031541 0.01721,0.057348 0.03823,0.057348 0.02103,0 0.03823,-0.025806 0.03823,-0.057348 z"
     id="path10070" />
  <path
     style="fill:#3a3e59;stroke-width:0.0382318"
     d="m 22.884144,10.35537 c 0.0104,-0.102144 0.03337,-0.3748007 0.05105,-0.6059036 L 22.967333,9.3292794 22.572935,8.8701355 22.178537,8.4109916 22.75523,8.2700005 c 0.317181,-0.077545 0.592932,-0.1572301 0.612779,-0.1770777 0.01985,-0.019848 0.170522,-0.2545807 0.334833,-0.5216292 l 0.298746,-0.4855429 0.314913,0.517273 0.314913,0.5172731 0.577711,0.1387258 c 0.317741,0.076299 0.582619,0.1436337 0.588618,0.149632 0.006,0.006 -0.161632,0.2137711 -0.372511,0.4617174 -0.233306,0.2743156 -0.383416,0.4837892 -0.383416,0.5350441 0,0.046328 0.01901,0.3114085 0.04226,0.5890678 0.02324,0.2776591 0.03455,0.5125431 0.02513,0.5219651 -0.0094,0.0094 -0.263034,-0.0839 -0.563583,-0.207388 l -0.546452,-0.224518 -0.501374,0.209311 c -0.689399,0.287808 -0.636145,0.282469 -0.613645,0.06152 z M 24.04779,9.0099562 c 0,-0.049781 -0.04545,-0.082888 -0.08242,-0.060038 -0.03954,0.024437 -0.0054,0.091898 0.04644,0.091898 0.01979,0 0.03598,-0.014337 0.03598,-0.03186 z"
     id="path10072" />
</svg>
