<?xml version="1.0" encoding="UTF-8" standalone="no"?>
<svg
   height="32px"
   version="1.1"
   viewBox="0 0 32 32"
   width="32px"
   id="svg40"
   sodipodi:docname="clear_night.svg"
   inkscape:version="1.2.1 (9c6d41e410, 2022-07-14)"
   xmlns:inkscape="http://www.inkscape.org/namespaces/inkscape"
   xmlns:sodipodi="http://sodipodi.sourceforge.net/DTD/sodipodi-0.dtd"
   xmlns="http://www.w3.org/2000/svg"
   xmlns:svg="http://www.w3.org/2000/svg">
  <sodipodi:namedview
     id="namedview42"
     pagecolor="#ffffff"
     bordercolor="#000000"
     borderopacity="0.25"
     inkscape:showpageshadow="2"
     inkscape:pageopacity="0.0"
     inkscape:pagecheckerboard="0"
     inkscape:deskcolor="#d1d1d1"
     showgrid="false"
     inkscape:zoom="26.15625"
     inkscape:cx="14.967742"
     inkscape:cy="15.35006"
     inkscape:window-width="1350"
     inkscape:window-height="1040"
     inkscape:window-x="443"
     inkscape:window-y="2"
     inkscape:window-maximized="0"
     inkscape:current-layer="svg40" />
  <title
     id="title23" />
  <desc
     id="desc25" />
  <defs
     id="defs27" />
  <g
     fill="none"
     fill-rule="evenodd"
     id="Clearly-Night"
     stroke="none"
     stroke-width="1">
    <g
       stroke="#979797"
       transform="translate(4.000000, 3.000000)"
       id="g37">
      <path
         d="M8.58855755,0.76761511 C7.57578659,2.61805976 7,4.7417888 7,7 C7,14.1797017 12.8202983,20 20,20 C21.5486507,20 23.034054,19.7292058 24.4114424,19.2323849 C22.2042341,23.2651989 17.9214905,26 13,26 C5.82029825,26 0,20.1797017 0,13 C0,7.36894896 3.58023357,2.57410627 8.58855755,0.76761511 Z"
         id="Combined-Shape"
         stroke-linecap="round"
         stroke-linejoin="round"
         stroke-width="2" />
      <polygon
         fill="#D8D8D8"
         id="Star"
         points="12.25 6.39154576 12.1030537 6.45225425 12.115382 6.29374004 12.0122359 6.17274575 12.1668015 6.13548708 12.25 6 12.3331985 6.13548708 12.4877641 6.17274575 12.384618 6.29374004 12.3969463 6.45225425" />
      <polygon
         fill="#D8D8D8"
         id="polygon31"
         points="20 6.56618304 19.4122147 6.80901699 19.4615279 6.17496018 19.0489435 5.69098301 19.667206 5.5419483 20 5 20.332794 5.5419483 20.9510565 5.69098301 20.5384721 6.17496018 20.5877853 6.80901699" />
      <polygon
         fill="#D8D8D8"
         id="polygon33"
         points="15.5 9.78309152 15.2061074 9.9045085 15.230764 9.58748009 15.0244717 9.3454915 15.333603 9.27097415 15.5 9 15.666397 9.27097415 15.9755283 9.3454915 15.769236 9.58748009 15.7938926 9.9045085" />
      <polygon
         fill="#D8D8D8"
         id="polygon35"
         points="16 2.56618304 15.4122147 2.80901699 15.4615279 2.17496018 15.0489435 1.69098301 15.667206 1.5419483 16 1 16.332794 1.5419483 16.9510565 1.69098301 16.5384721 2.17496018 16.5877853 2.80901699" />
    </g>
  </g>
  <path
     style="fill:#3a3e59;stroke-width:0.108136;fill-opacity:1"
     d="M 14.598334,29.731435 C 12.008736,29.247534 9.4263534,27.978512 7.6633834,26.323493 5.4303316,24.227178 4.1388261,22.024657 3.386215,19.029252 3.1739014,18.18424 3.142759,17.785887 3.1454877,15.950031 c 0.003,-2.021439 0.01738,-2.162316 0.3475764,-3.406278 1.0491542,-3.9525162 3.7911433,-7.2993721 7.4467949,-9.089514 1.271152,-0.6224726 1.878212,-0.7241907 2.248109,-0.3766902 0.432871,0.4066611 0.434479,0.7004676 0.0087,1.5855288 -1.384302,2.877374 -1.618911,6.2026894 -0.642772,9.1105574 2.115622,6.302328 8.68045,9.627854 15.183129,7.691272 0.754644,-0.224743 0.775398,-0.225258 1.113726,-0.02766 0.385606,0.225206 0.572194,0.624115 0.473722,1.012785 -0.100983,0.39858 -1.055829,1.79425 -1.875807,2.741808 -1.334298,1.541902 -3.440291,3.038302 -5.272401,3.746271 -1.797629,0.694645 -2.749988,0.875851 -4.820444,0.917195 -1.36227,0.0272 -2.134712,-0.0075 -2.757463,-0.123867 z m 4.196045,-1.831259 c 2.557902,-0.385554 4.934023,-1.58299 6.69719,-3.375021 l 0.620334,-0.63049 -1.972032,-0.0033 c -1.741054,-0.0029 -2.112414,-0.03634 -3.170587,-0.285726 C 15.429757,22.300104 11.236504,17.906262 10.266867,12.391261 9.9637649,10.66731 10.06938,8.0976102 10.508497,6.5121909 10.603667,6.1685909 10.659895,5.8658295 10.633453,5.8393877 10.544151,5.7501307 9.4596041,6.5481901 8.7125593,7.2529143 6.0205118,9.7924554 4.6228683,13.533912 5.0151519,17.15078 5.7706792,24.116769 11.944066,28.932727 18.794379,27.900176 Z"
     id="path1640" />
  <path
     style="fill:#3a3e59;fill-opacity:1;stroke-width:0.0191159"
     d="m 15.558062,10.107527 c 0.006,-0.04994 0.02046,-0.2177495 0.03217,-0.3729093 L 15.611523,9.452509 15.39477,9.1993268 C 15.275556,9.0600766 15.166962,8.9320172 15.153451,8.9147503 c -0.02217,-0.028333 0.0077,-0.039134 0.305855,-0.1107669 0.18173,-0.043655 0.347694,-0.086439 0.368808,-0.095076 0.02111,-0.00864 0.123542,-0.155719 0.227618,-0.3268489 0.174296,-0.286591 0.191339,-0.3082862 0.215967,-0.2749171 0.01471,0.019925 0.10394,0.1623429 0.198299,0.3164833 l 0.17156,0.2802551 0.329161,0.079106 c 0.181039,0.043508 0.34508,0.085432 0.364536,0.093163 0.03025,0.01202 2.98e-4,0.055238 -0.206706,0.2982654 l -0.24208,0.2842083 0.01105,0.1165667 c 0.02915,0.3075091 0.04971,0.6093988 0.04202,0.6170898 -0.0047,0.0047 -0.156966,-0.05223 -0.338368,-0.126514 -0.181402,-0.074283 -0.339965,-0.1350605 -0.352361,-0.1350605 -0.0124,0 -0.167373,0.060215 -0.344391,0.1338115 -0.177019,0.0736 -0.329813,0.133811 -0.339542,0.133811 -0.0099,0 -0.01289,-0.04006 -0.0068,-0.0908 z"
     id="path8199" />
  <path
     style="fill:#3a3e59;fill-opacity:1;stroke-width:0.0191159"
     d="m 18.865988,6.4852599 c 0.0058,-0.04479 0.02849,-0.3199388 0.0504,-0.6114414 0.03324,-0.4422519 0.03564,-0.5357916 0.01453,-0.5649564 -0.01392,-0.019223 -0.188743,-0.2262866 -0.388504,-0.4601402 -0.199761,-0.2338537 -0.365249,-0.4312361 -0.367751,-0.4386278 -0.0025,-0.00739 0.259864,-0.076513 0.583035,-0.1536027 0.323171,-0.07709 0.593394,-0.1459071 0.600495,-0.1529272 0.01031,-0.010189 0.240841,-0.382729 0.609093,-0.9842824 l 0.03303,-0.053956 0.321209,0.5241361 0.321209,0.5241362 0.589028,0.1408474 c 0.323965,0.077466 0.589028,0.147748 0.589028,0.1561819 0,0.00843 -0.17513,0.220081 -0.389177,0.4703268 l -0.389177,0.4549924 0.04519,0.5626122 c 0.02485,0.3094365 0.04299,0.5847525 0.04031,0.611813 l -0.0049,0.049201 -0.544803,-0.2257764 C 20.278614,6.2096197 20.0195,6.1079094 20.002447,6.1077737 19.985394,6.1076399 19.761738,6.1944291 19.505434,6.3006429 19.24913,6.4068567 18.998026,6.5101698 18.947426,6.5302278 l -0.092,0.036469 z m 1.177023,-1.4730735 c 0,-0.013668 -0.0097,-0.034518 -0.02148,-0.046333 -0.02667,-0.026673 -0.07414,0.010597 -0.0601,0.047188 0.01218,0.031732 0.08158,0.031004 0.08158,-8.55e-4 z"
     id="path8201" />
  <path
     style="fill:#3a3e59;fill-opacity:1;stroke-width:0.0191159"
     d="m 22.904034,10.031063 c 0.02347,-0.2917559 0.04311,-0.5696232 0.04364,-0.6174823 9.45e-4,-0.085923 -0.0039,-0.092767 -0.389667,-0.5448028 -0.317308,-0.3718641 -0.38458,-0.4604633 -0.358423,-0.4720495 0.01771,-0.00784 0.285708,-0.074971 0.595549,-0.1491702 0.309841,-0.074199 0.564498,-0.1365977 0.565903,-0.138664 0.0014,-0.00207 0.143371,-0.2338643 0.31548,-0.5151069 0.17211,-0.2812425 0.317707,-0.51135 0.32355,-0.51135 0.0073,0 0.557341,0.8837375 0.638544,1.0259157 0.001,0.00177 0.259888,0.065191 0.575284,0.1409396 0.315396,0.075748 0.583578,0.1431184 0.59596,0.1497115 0.01398,0.00744 -0.125491,0.1855186 -0.367981,0.4698344 -0.38547,0.4519569 -0.390482,0.4589656 -0.389537,0.544803 5.26e-4,0.047826 0.02016,0.3256656 0.04364,0.6174215 0.02347,0.291757 0.04031,0.530466 0.03741,0.530466 -0.0029,0 -0.254851,-0.103226 -0.559899,-0.22939 -0.305048,-0.126165 -0.56234,-0.229391 -0.571759,-0.229391 -0.0094,0 -0.267193,0.103226 -0.57283,0.229391 -0.305637,0.126164 -0.558364,0.22939 -0.561617,0.22939 -0.0033,0 0.01329,-0.238709 0.03676,-0.530466 z m 1.140485,-1.0207825 c 0.0094,-0.035957 -0.029,-0.05924 -0.07108,-0.043094 -0.03787,0.014532 -0.01639,0.075995 0.02656,0.075995 0.01975,0 0.03979,-0.014805 0.04452,-0.032901 z"
     id="path8203" />
  <path
     style="fill:#3a3e59;fill-opacity:1;stroke-width:0.0191159"
     d="m 18.688906,13.242969 c 0.01813,-0.228914 0.03345,-0.434423 0.03404,-0.456688 6.72e-4,-0.02545 -0.106166,-0.166069 -0.287709,-0.378684 -0.158828,-0.186013 -0.283873,-0.34311 -0.277877,-0.349105 0.006,-0.006 0.201905,-0.05682 0.435355,-0.112935 0.23345,-0.05612 0.430271,-0.108761 0.437381,-0.116985 0.0071,-0.0082 0.114051,-0.180521 0.237648,-0.382883 0.123596,-0.202361 0.230806,-0.364169 0.238244,-0.359572 0.0074,0.0046 0.115996,0.176251 0.24124,0.381455 l 0.227718,0.373098 0.445231,0.107625 0.445232,0.107625 -0.157171,0.184704 c -0.08644,0.101588 -0.20868,0.24492 -0.271635,0.318516 -0.06296,0.0736 -0.125599,0.14733 -0.139208,0.163853 -0.02031,0.02466 -0.01826,0.110268 0.01147,0.477897 0.01992,0.246321 0.03433,0.449879 0.03202,0.452352 -0.0023,0.0025 -0.19249,-0.07315 -0.422623,-0.168057 l -0.418425,-0.172552 -0.392691,0.162433 c -0.21598,0.08934 -0.405858,0.16731 -0.42195,0.173271 -0.02611,0.0097 -0.02571,-0.03398 0.0037,-0.405368 z"
     id="path8205" />
  <path
     style="fill:#ffffff;stroke-width:0.0382318"
     d="M 16.152927,29.969157 C 12.639643,29.713909 9.5460251,28.316022 7.1102352,25.883112 5.244417,24.0195 3.956844,21.696861 3.3693695,19.135006 2.4162065,14.978459 3.4066163,10.612876 6.0566946,7.2896646 7.4997345,5.4800855 9.4164431,4.020796 11.530219,3.1223876 12.426912,2.74127 12.664233,2.7070146 13.050802,2.9029037 c 0.32359,0.1639753 0.514042,0.4904469 0.514552,0.8820425 2.68e-4,0.2047079 -0.02455,0.2787564 -0.230632,0.6881721 -0.674524,1.3400484 -1.055232,2.5700217 -1.260291,4.0716846 -0.09003,0.6593036 -0.08996,2.2351571 1.14e-4,2.9138761 0.385871,2.907074 1.643842,5.351506 3.791055,7.366605 1.290393,1.210996 3.019185,2.191649 4.750763,2.694856 2.337193,0.679203 4.899525,0.631965 7.204112,-0.132812 0.551795,-0.183114 0.746009,-0.184939 1.067366,-0.01003 0.333326,0.181419 0.493269,0.463698 0.493269,0.870559 0,0.213961 -0.02026,0.286392 -0.147938,0.528815 -0.552499,1.04906 -1.514523,2.307941 -2.476261,3.240373 -1.128012,1.09364 -2.258954,1.88412 -3.684153,2.575066 -1.417998,0.687455 -2.907203,1.121792 -4.47301,1.304586 -0.500524,0.05843 -2.020426,0.103445 -2.446834,0.07246 z m 1.873357,-2.003548 c 2.38666,-0.209075 4.638375,-1.115074 6.518519,-2.622788 0.231302,-0.185485 0.66141,-0.578428 0.955794,-0.873207 0.484987,-0.485637 0.52627,-0.53734 0.439666,-0.550633 -0.05257,-0.0081 -0.494009,0.0074 -0.980979,0.03448 -2.563602,0.142319 -4.795539,-0.284524 -6.992415,-1.337254 -4.117592,-1.973125 -7.014612,-5.816032 -7.754945,-10.286961 -0.150652,-0.9098 -0.186316,-1.356216 -0.186276,-2.3316385 3.8e-5,-1.3041139 0.14242,-2.4265512 0.454891,-3.5864574 0.07539,-0.2798395 0.126807,-0.5190599 0.114266,-0.5316009 -0.05832,-0.058317 -1.1576387,0.7592825 -1.6969462,1.2620706 -1.1227553,1.0467287 -1.9415677,2.1244849 -2.6054945,3.4294642 -1.5804947,3.106538 -1.7267915,6.730197 -0.4030728,9.9838 1.6724064,4.110652 5.5692485,6.992866 10.0151295,7.40747 0.496617,0.04631 1.610824,0.04802 2.121863,0.0033 z"
     id="path1615" />
  <path
     style="fill:#ffffff;stroke-width:0.0382318"
     d="m 18.65257,13.548732 c 0.01098,-0.07116 0.03011,-0.277603 0.0425,-0.458768 l 0.02254,-0.32939 -0.285113,-0.339666 c -0.156812,-0.186816 -0.273651,-0.351372 -0.259642,-0.365681 0.01401,-0.01431 0.145901,-0.05364 0.293094,-0.08741 0.572832,-0.131406 0.527126,-0.10228 0.767986,-0.489394 0.120791,-0.194138 0.231695,-0.367049 0.246453,-0.384247 0.01476,-0.0172 0.13337,0.141112 0.263582,0.3518 0.130212,0.210688 0.265819,0.391052 0.301348,0.400809 0.03553,0.0098 0.232339,0.05698 0.437357,0.104949 0.205018,0.04796 0.372625,0.09673 0.372459,0.108357 -1.64e-4,0.01163 -0.129763,0.174244 -0.287994,0.361361 l -0.287692,0.340213 0.02037,0.223706 c 0.0112,0.123038 0.02983,0.326932 0.04139,0.453097 0.01156,0.126165 0.0141,0.22939 0.0056,0.22939 -0.0085,0 -0.200911,-0.07774 -0.427687,-0.172747 l -0.412321,-0.172747 -0.384917,0.15784 c -0.211705,0.08681 -0.408409,0.166853 -0.43712,0.177871 -0.03995,0.01533 -0.04752,-0.01032 -0.03224,-0.109346 z"
     id="path1617" />
  <path
     style="fill:#ffffff;stroke-width:0.0382318"
     d="M 15.56154,9.8902074 C 15.57471,9.7074631 15.59156,9.5380785 15.59898,9.5137972 15.60638,9.4895162 15.50051,9.3389423 15.363655,9.1791891 15.200733,8.9890073 15.132334,8.8828085 15.165536,8.8715805 c 0.02789,-0.00943 0.123826,-0.035202 0.213193,-0.057268 0.483912,-0.1194834 0.447993,-0.096343 0.658199,-0.4240353 0.108061,-0.1684575 0.212514,-0.2963733 0.232118,-0.2842573 0.0196,0.012116 0.106867,0.1419154 0.193918,0.2884433 0.08705,0.1465278 0.17282,0.2754047 0.1906,0.2863931 0.01778,0.010988 0.174774,0.055497 0.348877,0.098908 0.174103,0.043411 0.328219,0.090024 0.342482,0.1035845 0.01426,0.013561 -0.07785,0.1450862 -0.204685,0.2922785 l -0.230615,0.2676225 0.02327,0.3727599 c 0.01458,0.2335343 0.0093,0.3727593 -0.01415,0.3727593 -0.02059,0 -0.167357,-0.05161 -0.326157,-0.114695 -0.158801,-0.06308 -0.314337,-0.1146952 -0.345635,-0.1146952 -0.0313,0 -0.203708,0.059195 -0.383133,0.1315452 L 15.53759,10.22247 Z"
     id="path1619" />
  <path
     style="fill:#ffffff;stroke-width:0.0382318"
     d="m 18.881836,6.1648746 c 0.01396,-0.2155317 0.03545,-0.4872913 0.04775,-0.6039102 L 18.951959,5.3489299 18.565905,4.8919082 C 18.353575,4.6405463 18.179707,4.4233726 18.179531,4.4093 18.179355,4.3952274 18.441577,4.3214342 18.762246,4.2453152 L 19.345281,4.106917 19.667556,3.5870337 c 0.37498,-0.6049047 0.296723,-0.6128195 0.709082,0.071715 l 0.266722,0.4427696 0.583935,0.14126 c 0.321165,0.077693 0.583936,0.1561751 0.583936,0.1744047 0,0.01823 -0.173031,0.2361222 -0.384512,0.4842055 -0.341178,0.4002271 -0.38225,0.4639867 -0.364441,0.5657561 0.01104,0.063082 0.0319,0.3369166 0.04637,0.6085205 0.02216,0.416109 0.01784,0.490503 -0.02744,0.4727157 -0.02955,-0.01161 -0.271394,-0.1091002 -0.537428,-0.2166447 -0.266034,-0.1075445 -0.51223,-0.1955354 -0.547101,-0.1955354 -0.03487,0 -0.294352,0.094624 -0.576622,0.2102748 -0.28227,0.1156511 -0.524555,0.2102748 -0.538412,0.2102748 -0.01386,0 -0.01377,-0.1763441 1.91e-4,-0.3918757 z"
     id="path1621" />
  <path
     style="fill:#ffffff;stroke-width:0.0382318"
     d="m 22.854438,10.491352 c 0.01232,-0.05077 0.03432,-0.333708 0.0489,-0.6287535 l 0.0265,-0.5364457 -0.384691,-0.4569634 c -0.21158,-0.2513299 -0.378859,-0.4627947 -0.371732,-0.4699217 0.0071,-0.00713 0.275464,-0.076277 0.596304,-0.1536679 l 0.583347,-0.1407097 0.30901,-0.5064474 c 0.169955,-0.2785461 0.321119,-0.5064475 0.33592,-0.5064475 0.0148,0 0.159339,0.2150621 0.321196,0.4779157 0.161857,0.2628536 0.313243,0.4926628 0.336413,0.5106871 0.02317,0.018024 0.274385,0.089224 0.558256,0.1582213 0.283871,0.068998 0.538777,0.1372858 0.566458,0.1517518 0.03547,0.018535 -0.06412,0.1635416 -0.337261,0.491077 l -0.38759,0.4647752 0.04503,0.5955186 c 0.02477,0.3275351 0.0389,0.6015781 0.03141,0.6089841 -0.0075,0.0074 -0.262152,-0.08869 -0.565904,-0.213541 l -0.552276,-0.227006 -0.53733,0.215557 c -0.295531,0.118556 -0.561409,0.225044 -0.590841,0.23664 -0.0401,0.0158 -0.0479,-0.002 -0.03112,-0.07122 z"
     id="path1623" />
</svg>
