<?xml version="1.0" encoding="UTF-8" standalone="no"?>
<svg
   height="32px"
   version="1.1"
   viewBox="0 0 32 32"
   width="32px"
   id="svg10916"
   sodipodi:docname="cloudy_night.svg"
   inkscape:version="1.2.1 (9c6d41e410, 2022-07-14)"
   xmlns:inkscape="http://www.inkscape.org/namespaces/inkscape"
   xmlns:sodipodi="http://sodipodi.sourceforge.net/DTD/sodipodi-0.dtd"
   xmlns="http://www.w3.org/2000/svg"
   xmlns:svg="http://www.w3.org/2000/svg">
  <sodipodi:namedview
     id="namedview10918"
     pagecolor="#ffffff"
     bordercolor="#000000"
     borderopacity="0.25"
     inkscape:showpageshadow="2"
     inkscape:pageopacity="0.0"
     inkscape:pagecheckerboard="0"
     inkscape:deskcolor="#d1d1d1"
     showgrid="false"
     inkscape:zoom="26.15625"
     inkscape:cx="16.019116"
     inkscape:cy="16.019116"
     inkscape:window-width="1920"
     inkscape:window-height="1017"
     inkscape:window-x="-8"
     inkscape:window-y="-8"
     inkscape:window-maximized="1"
     inkscape:current-layer="svg10916" />
  <title
     id="title10897" />
  <desc
     id="desc10899" />
  <defs
     id="defs10901" />
  <g
     fill="none"
     fill-rule="evenodd"
     id="Cloudy-Night"
     stroke="none"
     stroke-width="1">
    <g
       stroke="#979797"
       stroke-width="2"
       transform="translate(4.000000, 3.000000)"
       id="g10913">
      <path
         d="M16.0621864,19.3929166 C17.3043159,19.7872469 18.6273124,20 20,20 C21.5486507,20 23.034054,19.7292058 24.4114424,19.2323849 C22.2042341,23.2651989 17.9214905,26 13,26 C5.82029825,26 0,20.1797017 0,13 C0,7.36894896 3.58023357,2.57410627 8.58855755,0.76761511 C8.04797446,1.75532026 7.63189107,2.82088593 7.36141554,3.94320397"
         id="Combined-Shape"
         stroke-linecap="round"
         stroke-linejoin="round" />
      <g
         id="Overcast"
         transform="translate(14.847860, 10.961592) rotate(-3.000000) translate(-14.847860, -10.961592) translate(6.347860, 4.461592)">
        <g
           id="Group-3"
           transform="translate(1.000000, 0.000000)">
          <path
             d="M5.05263158,3.45454545 C5.05263158,2.04872973 3.92156147,0.909090909 2.52631579,0.909090909 C1.13107011,0.909090909 0,2.04872973 0,3.45454545 C0,3.93124095 0.130051341,4.37733122 0.356354993,4.75876117"
             id="Oval-3" />
          <path
             d="M8.73969947,1.24730106 C8.31702185,0.502182136 7.52063906,0 6.60784723,0 C5.74460361,0 4.98547418,0.449142895 4.54808866,1.12815027"
             id="path10905"
             stroke-linecap="round" />
        </g>
        <g
           id="Group-2"
           transform="translate(0.000000, 1.000000)">
          <path
             d="M6.63269352,3.35590568 C6.07602369,3.08499648 5.45281855,2.93333333 4.79487179,2.93333333 C2.43562463,2.93333333 0.523076923,4.88338198 0.523076923,7.28888889 C0.523076923,9.6943958 2.43562463,11.6444444 4.79487179,11.6444444 C5.96044378,11.6444444 7.01698558,11.1684775 7.78773639,10.3967704"
             id="Oval" />
          <path
             d="M6.84106912,9.19565328 C7.8297678,10.6739131 9.49468994,11.6444444 11.3819326,11.6444444 C14.4152504,11.6444444 16.8742403,9.13723904 16.8742403,6.04444444 C16.8742403,2.95164985 14.4152504,0.444444444 11.3819326,0.444444444 C8.75156109,0.444444444 6.55306476,2.32977835 6.01538462,4.84740829"
             id="path10909"
             stroke-linecap="round" />
        </g>
      </g>
    </g>
  </g>
  <path
     style="fill:#3a3e59;stroke-width:0.0382318"
     d="m 14.569204,21.237089 c -1.999382,-0.279961 -3.685464,-1.707305 -4.317558,-3.655005 -0.180124,-0.555024 -0.24733,-0.998863 -0.248245,-1.639432 -0.0013,-0.910168 0.16979,-1.639876 0.569208,-2.427718 l 0.203517,-0.401433 -0.186554,-0.377867 c -0.263219,-0.533149 -0.357251,-0.947139 -0.357049,-1.571954 1.08e-4,-0.336446 0.02098,-0.581662 0.06459,-0.759032 0.309308,-1.2578423 1.226864,-2.2335856 2.45507,-2.6107618 0.314428,-0.096559 0.393396,-0.1050872 0.973024,-0.1050796 0.570382,7.4e-6 0.661595,0.00949 0.951973,0.098957 l 0.321148,0.098948 0.29056,-0.2957795 c 0.687391,-0.6997379 1.501128,-1.0467474 2.450656,-1.0450554 0.968283,0.00173 1.832647,0.3751271 2.495914,1.0782253 l 0.257426,0.2728852 0.257739,-0.048852 c 0.155269,-0.02943 0.554135,-0.048487 1.003258,-0.047934 0.61868,7.62e-4 0.818732,0.015601 1.175834,0.087216 2.321986,0.4656627 4.194082,2.1138268 4.937337,4.3467528 0.279004,0.838198 0.326198,1.144259 0.327189,2.121863 7.61e-4,0.751784 -0.01019,0.913226 -0.08692,1.280765 -0.66996,3.209482 -3.403265,5.40335 -6.582836,5.283667 -0.896776,-0.03375 -1.684297,-0.229255 -2.530403,-0.628166 l -0.44677,-0.210637 -0.164938,0.13394 c -0.518235,0.420842 -1.296589,0.776852 -2.076527,0.949778 -0.394973,0.08757 -1.343611,0.126743 -1.73665,0.07171 z m 1.474313,-2.026479 c 0.28316,-0.07196 0.931393,-0.350942 0.931393,-0.400852 0,-0.0126 -0.09245,-0.138128 -0.205438,-0.278942 -0.301859,-0.376186 -0.346926,-0.479019 -0.346778,-0.79127 1.53e-4,-0.315985 0.08366,-0.505787 0.314185,-0.714049 0.216154,-0.195283 0.453545,-0.276206 0.735305,-0.250657 0.303152,0.02749 0.516772,0.156655 0.756697,0.45754 0.696486,0.873447 1.677794,1.469193 2.760366,1.6758 0.335414,0.06401 1.176631,0.06478 1.529272,0.0014 0.906698,-0.162974 1.756101,-0.609212 2.403202,-1.262535 1.218472,-1.230188 1.64696,-3.052614 1.111526,-4.727506 -0.485591,-1.518979 -1.727431,-2.68594 -3.250827,-3.0548109 -1.809996,-0.4382678 -3.705806,0.3103289 -4.746289,1.8741639 -0.377431,0.567274 -0.575677,1.05824 -0.736696,1.824466 -0.09987,0.475245 -0.407559,0.783081 -0.848845,0.849256 -0.372496,0.05586 -0.845225,-0.212226 -1.009882,-0.572706 -0.09163,-0.200599 -0.09137,-0.564552 6.73e-4,-0.949185 0.0863,-0.360631 0.09621,-0.352378 -0.380043,-0.316426 -1.561356,0.117867 -2.784218,1.222445 -3.057022,2.761327 -0.069,0.38921 -0.03033,1.174502 0.07602,1.54371 0.500901,1.739033 2.248479,2.767018 3.96318,2.331279 z M 12.90991,11.166081 c 0.588722,-0.296493 1.262977,-0.487195 1.914463,-0.541476 0.173476,-0.01445 0.315412,-0.04381 0.315412,-0.06523 0,-0.07566 -0.236776,-0.406616 -0.38985,-0.544909 -0.08529,-0.077056 -0.269027,-0.1940936 -0.4083,-0.2600822 -0.2304,-0.1091651 -0.28596,-0.1197645 -0.616426,-0.1175973 -0.460463,0.00302 -0.715957,0.095861 -1.014385,0.3686085 -0.366685,0.33513 -0.518344,0.682737 -0.518272,1.1879 2.3e-5,0.163483 0.01047,0.314111 0.02321,0.334728 0.01318,0.02133 0.09506,-0.01198 0.189957,-0.07727 0.09173,-0.06311 0.31862,-0.191219 0.504191,-0.284677 z m 5.036918,-2.1336529 c 0.166575,-0.1236563 0.355822,-0.2524785 0.42055,-0.2862716 l 0.117688,-0.061442 -0.172043,-0.079514 c -0.139685,-0.064559 -0.247546,-0.079514 -0.573477,-0.079514 -0.362502,0 -0.42263,0.010407 -0.619996,0.1073128 -0.120209,0.059022 -0.297413,0.1839469 -0.393786,0.2776108 l -0.175224,0.170298 0.09973,0.1620546 c 0.05485,0.08913 0.15348,0.2684754 0.219179,0.3985452 L 16.9889,9.8779983 17.316435,9.5676278 C 17.496579,9.396924 17.780257,9.156084 17.946831,9.0324276 Z"
     id="path10920" />
  <path
     style="fill:#3a3e59;stroke-width:0.0382318"
     d="M 16.363202,29.970388 C 15.747501,29.929526 15.139509,29.861713 14.661648,29.780602 9.0569998,28.82929 4.594144,24.578346 3.3461457,19.002399 2.8964335,16.993124 2.9173353,14.826163 3.4064512,12.750299 4.439058,8.3677962 7.6389578,4.6746889 11.851852,3.0031906 c 0.638909,-0.2534921 0.858902,-0.271471 1.180434,-0.096471 0.258111,0.1404818 0.411483,0.3250207 0.488302,0.5875308 0.09181,0.3137414 0.05468,0.470723 -0.264878,1.1197421 -0.343016,0.6966691 -0.591733,1.3190421 -0.754876,1.8889473 -0.282085,0.9854098 -0.259483,0.929601 -0.456125,1.1262439 -0.394141,0.3941402 -0.979974,0.3902432 -1.379393,-0.00918 C 10.367846,7.3225374 10.32971,6.9789301 10.518493,6.2971054 10.584232,6.0596771 10.628709,5.8561083 10.617331,5.8447305 10.555768,5.7831675 9.3956198,6.6573706 8.8363294,7.1867634 6.6280199,9.2770248 5.3916272,11.743642 5.0415115,14.757467 c -0.069195,0.595637 -0.058212,2.007678 0.020518,2.637993 0.4158927,3.329639 2.0777903,6.224193 4.7107714,8.204826 1.6302671,1.226352 3.4128181,1.969454 5.5194311,2.300913 0.712519,0.11211 2.603034,0.120539 3.307529,0.01475 2.537559,-0.381055 4.657927,-1.371239 6.499403,-3.035133 0.429442,-0.38803 0.999778,-0.992944 0.967045,-1.025676 -0.01,-0.01 -0.248869,0.0069 -0.530838,0.0376 -1.885402,0.205088 -3.873263,0.0211 -5.598462,-0.518165 C 19.615644,23.27415 19.540992,23.234 19.38441,23.077418 c -0.328441,-0.328441 -0.388664,-0.748356 -0.166001,-1.157463 0.172723,-0.317348 0.464737,-0.491356 0.823374,-0.490638 0.11213,2.29e-4 0.407859,0.05819 0.664935,0.130331 1.051595,0.295103 1.807631,0.40435 2.985812,0.431447 1.56052,0.03589 2.666543,-0.120038 4.059522,-0.572319 0.608114,-0.197446 0.82324,-0.205251 1.118182,-0.04057 0.345727,0.19304 0.564277,0.60289 0.514632,0.965093 -0.04586,0.334607 -0.755377,1.483419 -1.47772,2.392658 -0.733418,0.923177 -1.934135,2.046894 -2.920956,2.733638 -0.81263,0.565522 -1.998353,1.201412 -2.888221,1.548919 -1.157578,0.452053 -2.488045,0.771058 -3.737034,0.896027 -0.432072,0.04323 -1.667427,0.07776 -1.997733,0.05584 z"
     id="path10922" />
</svg>
