<?xml version="1.0" encoding="UTF-8" standalone="no"?>
<svg
   height="32px"
   version="1.1"
   viewBox="0 0 32 32"
   width="32px"
   id="svg10866"
   sodipodi:docname="cloudy_day.svg"
   inkscape:version="1.2.1 (9c6d41e410, 2022-07-14)"
   xmlns:inkscape="http://www.inkscape.org/namespaces/inkscape"
   xmlns:sodipodi="http://sodipodi.sourceforge.net/DTD/sodipodi-0.dtd"
   xmlns="http://www.w3.org/2000/svg"
   xmlns:svg="http://www.w3.org/2000/svg">
  <sodipodi:namedview
     id="namedview10868"
     pagecolor="#ffffff"
     bordercolor="#000000"
     borderopacity="0.25"
     inkscape:showpageshadow="2"
     inkscape:pageopacity="0.0"
     inkscape:pagecheckerboard="0"
     inkscape:deskcolor="#d1d1d1"
     showgrid="false"
     inkscape:zoom="26.15625"
     inkscape:cx="16.019116"
     inkscape:cy="16.019116"
     inkscape:window-width="1920"
     inkscape:window-height="1017"
     inkscape:window-x="-8"
     inkscape:window-y="-8"
     inkscape:window-maximized="1"
     inkscape:current-layer="svg10866" />
  <title
     id="title10851" />
  <desc
     id="desc10853" />
  <defs
     id="defs10855" />
  <g
     fill="none"
     fill-rule="evenodd"
     id="Partly-Cloudy"
     stroke="none"
     stroke-width="1">
    <g
       stroke="#979797"
       stroke-width="2"
       transform="translate(2.000000, 5.000000)"
       id="g10863">
      <path
         d="M12.0414117,7.57296994 C11.6651156,5.90909589 10.1776503,4.66666667 8.4,4.66666667 C6.33813693,4.66666667 4.66666667,6.33813693 4.66666667,8.4 C4.66666667,8.96920193 4.79404975,9.50865195 5.02186366,9.99139781"
         id="Oval-2"
         stroke-linecap="round" />
      <g
         id="Group-3"
         transform="translate(2.000000, 4.000000)">
        <path
           d="M10.1441195,5.03385852 C9.29274212,4.62749472 8.33960485,4.4 7.33333333,4.4 C3.72507297,4.4 0.8,7.32507297 0.8,10.9333333 C0.8,14.5415937 3.72507297,17.4666667 7.33333333,17.4666667 C9.11597284,17.4666667 10.7318603,16.7527163 11.9106557,15.5951556"
           id="Oval" />
        <path
           d="M10.4628116,13.7934799 C11.974939,16.0108696 14.5212905,17.4666667 17.4076616,17.4666667 C22.0468535,17.4666667 25.8076616,13.7058586 25.8076616,9.06666667 C25.8076616,4.42747477 22.0468535,0.666666667 17.4076616,0.666666667 C13.3847405,0.666666667 10.0223343,3.49466753 9.2,7.27111244"
           id="path10859"
           stroke-linecap="round" />
      </g>
      <path
         d="M7.94386176,1.86666667 L7.94386176,0 M12.6913459,4.15627042 L14.1420184,2.98153902 M2.02877844,9.28102555 L0.209954317,9.70093419 M3.19637762,4.15627042 L1.74570516,2.98153902"
         id="Path-4"
         stroke-linecap="round" />
    </g>
  </g>
  <path
     style="fill:#3a3e59;stroke-width:0.0382318"
     d="M 10.246117,27.368141 C 8.6310182,27.120635 7.1707196,26.38263 6.0214836,25.233096 4.8068388,24.018136 4.0432524,22.412077 3.8583673,20.683393 3.8047148,20.181739 3.8327294,19.226549 3.9155568,18.733455 4.141054,17.391009 4.7181176,16.13908 5.5904971,15.099703 L 5.8808515,14.753767 5.8047627,14.449763 C 5.6958828,14.014745 5.6679165,13.114117 5.7488619,12.649532 6.0577163,10.876864 7.2982606,9.4409958 8.977933,8.9120423 c 1.124175,-0.3540191 2.379445,-0.2694535 3.438176,0.2316246 0.901595,0.4267083 1.749292,1.2534961 2.188693,2.1347081 0.05242,0.105138 0.09932,0.198028 0.104211,0.206425 0.0049,0.0084 0.142526,-0.112209 0.305854,-0.268011 1.421353,-1.3558546 3.394221,-2.2599541 5.408955,-2.478743 0.532626,-0.05784 1.498963,-0.049683 2.07331,0.017502 1.785074,0.2088113 3.537743,0.9624101 4.915935,2.113715 3.313644,2.768131 4.31339,7.475604 2.404704,11.322958 -1.449007,2.920776 -4.213005,4.852655 -7.443362,5.202492 -0.623824,0.06756 -1.925124,0.02922 -2.505391,-0.07382 -1.23122,-0.218626 -2.287289,-0.612519 -3.326329,-1.240654 l -0.489569,-0.29596 -0.25595,0.185766 c -1.048701,0.761133 -2.159347,1.216949 -3.41498,1.401528 -0.512692,0.07537 -1.633637,0.07357 -2.136073,-0.0034 z m 2.225051,-2.000113 c 0.442904,-0.09374 0.94508,-0.266215 1.310212,-0.450005 0.281848,-0.141869 0.746696,-0.425243 0.746696,-0.45519 0,-0.0098 -0.104672,-0.139386 -0.232606,-0.28803 -0.328912,-0.382156 -0.639085,-0.809272 -0.724777,-0.998035 -0.156282,-0.34426 -0.07143,-0.792956 0.201581,-1.065968 0.205237,-0.205237 0.389533,-0.278743 0.698455,-0.278578 0.419549,2.29e-4 0.559648,0.09405 0.976373,0.653885 1.394743,1.873724 3.618299,2.995374 5.938021,2.995374 3.213828,0 6.047035,-2.034186 7.055501,-5.06571 0.979178,-2.943487 0.01822,-6.217173 -2.386214,-8.129081 -3.437469,-2.7333353 -8.442657,-1.946224 -10.84924,1.706142 -0.444218,0.67417 -0.726364,1.339472 -1.059719,2.498818 -0.103861,0.361212 -0.338528,0.616721 -0.651875,0.709775 -0.252592,0.07501 -0.316281,0.07505 -0.567926,3.06e-4 -0.240695,-0.07148 -0.500011,-0.295116 -0.613115,-0.528756 -0.149401,-0.308622 -0.07665,-0.789247 0.26617,-1.75848 0.08828,-0.24959 0.108162,-0.347445 0.07478,-0.368076 -0.129987,-0.08034 -0.681705,-0.132908 -1.37511,-0.131028 -0.669157,0.0018 -0.789949,0.01245 -1.179283,0.103866 -2.0772502,0.487741 -3.6935734,2.093024 -4.1662988,4.137852 -0.2401881,1.038961 -0.1916771,2.032985 0.1492847,3.058944 0.2795916,0.841294 0.740386,1.564238 1.4059681,2.205832 0.8824494,0.850646 1.9136473,1.349988 3.140389,1.520686 0.404752,0.05632 1.418102,0.01533 1.842733,-0.07454 z M 7.9498701,13.229374 C 8.8372802,12.782482 9.7473747,12.5292 10.77015,12.444482 c 0.578858,-0.04795 1.116974,-0.02297 1.763953,0.08187 0.259588,0.04207 0.477899,0.07056 0.485138,0.06332 0.02404,-0.02404 -0.164527,-0.451887 -0.29416,-0.667423 -0.177539,-0.295188 -0.689146,-0.770118 -1.011063,-0.93858 -0.46258,-0.242071 -0.769996,-0.315929 -1.314974,-0.315929 -0.392714,0 -0.5290064,0.01586 -0.7646354,0.08899 -0.495995,0.153938 -0.7871037,0.331399 -1.1672835,0.711579 -0.3728062,0.372806 -0.558746,0.673613 -0.6983035,1.129693 -0.079083,0.258445 -0.1497868,0.763994 -0.106849,0.763994 0.013488,0 0.1430423,-0.05968 0.2878975,-0.132633 z"
     id="path10870" />
  <path
     style="fill:#3a3e59;stroke-width:0.0382318"
     d="m 14.479044,10.11023 c -0.217029,-0.05324 -0.343285,-0.1294498 -0.497775,-0.3004517 -0.184872,-0.204632 -0.25606,-0.3862474 -0.25606,-0.6532669 0,-0.2487919 0.06433,-0.4312913 0.215253,-0.6106529 0.161541,-0.1919804 1.637966,-1.3720046 1.820013,-1.4546347 0.341464,-0.154989 0.789741,-0.073955 1.054275,0.1905793 0.348354,0.3483541 0.401565,0.8216609 0.138438,1.2314055 -0.10063,0.1567014 -1.603142,1.3958623 -1.837466,1.5154054 -0.18593,0.09485 -0.446538,0.128262 -0.636678,0.08162 z"
     id="path10872" />
  <path
     style="fill:#3a3e59;stroke-width:0.0382318"
     d="M 9.7235644,7.8220525 C 9.5021734,7.7654871 9.2496929,7.5878828 9.1361484,7.4088416 8.9621081,7.1344085 8.9384655,6.9271003 8.9525821,5.7992553 8.9648272,4.8209346 8.969022,4.7715214 9.054576,4.5978022 9.1637234,4.3761762 9.4252883,4.1388555 9.6270239,4.078414 10.021849,3.9601215 10.385936,4.058294 10.661628,4.357385 c 0.258237,0.2801544 0.279979,0.4170573 0.265765,1.6735034 -0.0132,1.1669939 -0.01131,1.155547 -0.241527,1.4635201 -0.18426,0.2464974 -0.653968,0.4064232 -0.9623016,0.327644 z"
     id="path10874" />
  <path
     style="fill:#3a3e59;stroke-width:0.0382318"
     d="M 4.9404476,10.094368 C 4.716587,10.024462 4.6767206,9.9960016 3.7747587,9.2621776 2.9301049,8.5749788 2.8344692,8.4637066 2.7733077,8.0969884 2.7115422,7.7266493 2.9721064,7.2714224 3.3466079,7.0953859 3.5730542,6.9889436 3.9190662,6.9878836 4.1390069,7.0929559 4.3739666,7.2052061 5.8884132,8.4461849 6.0091058,8.625366 6.3746515,9.1680576 6.0954858,9.9030482 5.4511339,10.0944 5.2253666,10.16145 5.1552478,10.16144 4.9404476,10.094365 Z"
     id="path10876" />
  <path
     style="fill:#3a3e59;stroke-width:0.0382318"
     d="M 2.0007448,15.65747 C 1.4859147,15.534846 1.1407394,15.001405 1.2552416,14.505355 c 0.059416,-0.257404 0.2376835,-0.507116 0.4514671,-0.632401 0.2210501,-0.129544 1.986998,-0.553502 2.3267441,-0.55859 0.4954826,-0.0074 0.9122182,0.366551 0.9632103,0.86437 0.025432,0.248287 -0.032951,0.465997 -0.1790516,0.667683 -0.2075343,0.286493 -0.3126718,0.329072 -1.4793776,0.599119 -1.1069136,0.256208 -1.1337534,0.260461 -1.3374891,0.211934 z"
     id="path10878" />
</svg>
