<?xml version="1.0" encoding="UTF-8" standalone="no"?>
<svg
   height="32px"
   version="1.1"
   viewBox="0 0 32 32"
   width="32px"
   id="svg6758"
   sodipodi:docname="cloudy_night.svg"
   inkscape:version="1.2.1 (9c6d41e410, 2022-07-14)"
   xmlns:inkscape="http://www.inkscape.org/namespaces/inkscape"
   xmlns:sodipodi="http://sodipodi.sourceforge.net/DTD/sodipodi-0.dtd"
   xmlns="http://www.w3.org/2000/svg"
   xmlns:svg="http://www.w3.org/2000/svg">
  <sodipodi:namedview
     id="namedview6760"
     pagecolor="#ffffff"
     bordercolor="#000000"
     borderopacity="0.25"
     inkscape:showpageshadow="2"
     inkscape:pageopacity="0.0"
     inkscape:pagecheckerboard="0"
     inkscape:deskcolor="#d1d1d1"
     showgrid="false"
     inkscape:zoom="26.15625"
     inkscape:cx="16.038232"
     inkscape:cy="16.019116"
     inkscape:window-width="1920"
     inkscape:window-height="1017"
     inkscape:window-x="-8"
     inkscape:window-y="-8"
     inkscape:window-maximized="1"
     inkscape:current-layer="svg6758" />
  <title
     id="title6739" />
  <desc
     id="desc6741" />
  <defs
     id="defs6743" />
  <g
     fill="none"
     fill-rule="evenodd"
     id="Cloudy-Night"
     stroke="none"
     stroke-width="1">
    <g
       stroke="#979797"
       stroke-width="2"
       transform="translate(4.000000, 3.000000)"
       id="g6755">
      <path
         d="M16.0621864,19.3929166 C17.3043159,19.7872469 18.6273124,20 20,20 C21.5486507,20 23.034054,19.7292058 24.4114424,19.2323849 C22.2042341,23.2651989 17.9214905,26 13,26 C5.82029825,26 0,20.1797017 0,13 C0,7.36894896 3.58023357,2.57410627 8.58855755,0.76761511 C8.04797446,1.75532026 7.63189107,2.82088593 7.36141554,3.94320397"
         id="Combined-Shape"
         stroke-linecap="round"
         stroke-linejoin="round" />
      <g
         id="Overcast"
         transform="translate(14.847860, 10.961592) rotate(-3.000000) translate(-14.847860, -10.961592) translate(6.347860, 4.461592)">
        <g
           id="Group-3"
           transform="translate(1.000000, 0.000000)">
          <path
             d="M5.05263158,3.45454545 C5.05263158,2.04872973 3.92156147,0.909090909 2.52631579,0.909090909 C1.13107011,0.909090909 0,2.04872973 0,3.45454545 C0,3.93124095 0.130051341,4.37733122 0.356354993,4.75876117"
             id="Oval-3" />
          <path
             d="M8.73969947,1.24730106 C8.31702185,0.502182136 7.52063906,0 6.60784723,0 C5.74460361,0 4.98547418,0.449142895 4.54808866,1.12815027"
             id="path6747"
             stroke-linecap="round" />
        </g>
        <g
           id="Group-2"
           transform="translate(0.000000, 1.000000)">
          <path
             d="M6.63269352,3.35590568 C6.07602369,3.08499648 5.45281855,2.93333333 4.79487179,2.93333333 C2.43562463,2.93333333 0.523076923,4.88338198 0.523076923,7.28888889 C0.523076923,9.6943958 2.43562463,11.6444444 4.79487179,11.6444444 C5.96044378,11.6444444 7.01698558,11.1684775 7.78773639,10.3967704"
             id="Oval" />
          <path
             d="M6.84106912,9.19565328 C7.8297678,10.6739131 9.49468994,11.6444444 11.3819326,11.6444444 C14.4152504,11.6444444 16.8742403,9.13723904 16.8742403,6.04444444 C16.8742403,2.95164985 14.4152504,0.444444444 11.3819326,0.444444444 C8.75156109,0.444444444 6.55306476,2.32977835 6.01538462,4.84740829"
             id="path6751"
             stroke-linecap="round" />
        </g>
      </g>
    </g>
  </g>
  <path
     style="fill:#ffffff;stroke-width:0.0382318;fill-opacity:1"
     d="M 16.136006,29.990039 C 9.9353527,29.618265 4.6929753,25.159078 3.3233008,19.091501 2.9353915,17.373086 2.8881829,15.342583 3.1947942,13.564263 3.9567119,9.1452032 6.8921264,5.2833473 10.960314,3.3478816 11.780167,2.9578309 12.317356,2.7628471 12.578256,2.760616 c 0.586826,-0.00502 1.011897,0.4189918 1.012768,1.0102402 3.44e-4,0.2370862 -0.01693,0.2885548 -0.266398,0.7934322 -0.346735,0.701731 -0.648445,1.4675743 -0.822598,2.0880413 C 12.305701,7.3517958 12.259777,7.4669071 12.111639,7.6308783 11.655193,8.1361097 10.805594,8.0366245 10.481192,7.4399587 10.313111,7.1308108 10.30979,6.9009621 10.465313,6.340996 L 10.594255,5.8767352 10.262362,6.0998995 C 9.6798406,6.4915858 9.1535794,6.933833 8.5407193,7.546693 7.5353741,8.5520382 6.8906709,9.4487987 6.2702074,10.704898 5.6605173,11.939188 5.3557773,12.910433 5.1366148,14.317802 5.0614777,14.8003 5.0502869,15.018365 5.0502869,16 c 0,1.209912 0.047329,1.684449 0.263107,2.637993 0.3878415,1.71391 1.2096911,3.425949 2.3124565,4.817204 0.4090724,0.516088 1.3978575,1.504744 1.9129788,1.912728 1.7831818,1.41231 3.8852238,2.279528 6.1553168,2.539437 0.648285,0.07422 1.922367,0.07655 2.561529,0.0047 2.365012,-0.265926 4.425677,-1.120363 6.265223,-2.597823 0.446453,-0.358575 1.520202,-1.388617 1.484625,-1.424193 -0.0086,-0.0086 -0.13432,0.0011 -0.279391,0.02159 -0.145072,0.02047 -0.564842,0.05647 -0.932823,0.08001 -1.572752,0.10059 -3.442078,-0.123947 -4.914514,-0.590317 -0.546569,-0.173117 -0.819985,-0.512485 -0.819039,-1.016604 7.68e-4,-0.410002 0.187792,-0.718748 0.542435,-0.895474 0.268689,-0.133893 0.547741,-0.130872 1.045206,0.01132 0.527828,0.150869 1.016116,0.258224 1.603499,0.352547 0.715451,0.114889 2.272301,0.143783 3.039427,0.05641 0.715437,-0.08149 1.534469,-0.249177 2.160095,-0.442268 0.875191,-0.270115 0.913948,-0.27786 1.147651,-0.229343 0.454549,0.09436 0.775634,0.445561 0.810672,0.8867 0.0269,0.338734 -0.02209,0.478289 -0.373201,1.0631 -1.399641,2.331212 -3.425607,4.197649 -5.847965,5.387484 -1.74269,0.855989 -3.462734,1.303517 -5.448029,1.417489 -0.716444,0.04113 -0.87808,0.04086 -1.60354,-0.0026 z"
     id="path7296" />
  <path
     style="fill:#ffffff;fill-opacity:1;stroke-width:0.0382318"
     d="M 14.700119,21.290259 C 13.808127,21.177341 13.050466,20.89833 12.331886,20.41815 11.047995,19.560212 10.203397,18.189269 9.9943714,16.62392 c -0.056395,-0.422326 -0.023258,-1.377741 0.06142,-1.770873 0.09716,-0.451065 0.312702,-1.060373 0.499212,-1.411174 l 0.170968,-0.321567 -0.151428,-0.309257 c -0.308614,-0.630273 -0.407252,-1.111029 -0.375169,-1.828551 0.0139,-0.310865 0.04875,-0.565341 0.103473,-0.755497 0.378229,-1.3143741 1.415991,-2.2737374 2.752485,-2.5445458 0.450834,-0.091351 1.196549,-0.060318 1.629679,0.067818 l 0.309862,0.091669 0.198891,-0.2214902 c 0.545221,-0.6071734 1.334101,-1.0035768 2.184916,-1.0978962 1.069424,-0.1185538 2.110707,0.2646618 2.873776,1.0576133 l 0.257234,0.2673084 0.411822,-0.055761 c 0.558761,-0.075657 1.49307,-0.046884 2.048121,0.063074 2.658847,0.5267268 4.704614,2.6327875 5.194404,5.3474955 0.0958,0.531001 0.114709,1.636078 0.03642,2.128658 -0.473181,2.977011 -2.709449,5.201404 -5.61165,5.581849 -1.236525,0.162094 -2.448132,-0.0311 -3.59298,-0.572897 l -0.425921,-0.201568 -0.310869,0.222216 c -0.555333,0.396964 -1.271325,0.702462 -2.01164,0.858321 -0.296462,0.06241 -1.265133,0.107111 -1.547274,0.07139 z m 1.392571,-2.136371 c 0.26335,-0.07632 0.745975,-0.280055 0.819074,-0.34577 0.0073,-0.0066 -0.08274,-0.130861 -0.200145,-0.27617 -0.271401,-0.335907 -0.329508,-0.477563 -0.328462,-0.800732 9.87e-4,-0.305098 0.08151,-0.511136 0.275617,-0.705242 0.21486,-0.21486 0.387159,-0.280454 0.736686,-0.280454 0.265046,0 0.329793,0.01407 0.485269,0.105468 0.09998,0.05877 0.280289,0.228916 0.407258,0.384301 1.293325,1.582765 3.379188,2.125238 5.179283,1.346982 0.56428,-0.243962 0.892453,-0.469355 1.366175,-0.938304 0.732253,-0.724877 1.09953,-1.396575 1.299097,-2.375869 0.09615,-0.471841 0.105446,-1.235855 0.02086,-1.7153 -0.264549,-1.499492 -1.280037,-2.801674 -2.656096,-3.40597 -1.877497,-0.8245026 -4.067296,-0.2273378 -5.309402,1.44789 -0.399159,0.538346 -0.656333,1.117121 -0.808538,1.819634 -0.118133,0.545251 -0.250681,0.758291 -0.571921,0.919232 -0.242031,0.121258 -0.431474,0.149185 -0.672522,0.09914 -0.415285,-0.08621 -0.747368,-0.431376 -0.808733,-0.840586 -0.02279,-0.151991 0.03709,-0.587743 0.125731,-0.914914 l 0.02498,-0.09219 -0.359715,0.024 c -0.966846,0.06452 -1.813634,0.49629 -2.38072,1.21392 -0.883633,1.11821 -0.986851,2.625439 -0.26407,3.856069 0.189725,0.323033 0.680361,0.839222 0.998482,1.050485 0.792377,0.526214 1.74069,0.679709 2.621816,0.424369 z m -3.423797,-7.91388 c 0.534737,-0.313399 1.317953,-0.562445 2.002553,-0.636768 0.226045,-0.02454 0.410991,-0.05607 0.410991,-0.07006 0,-0.06788 -0.25593,-0.399267 -0.398718,-0.516272 -0.684261,-0.5606996 -1.631646,-0.4452094 -2.167873,0.264273 -0.230058,0.30439 -0.373221,0.897777 -0.27706,1.148369 0.02182,0.05687 0.03142,0.05681 0.119312,-7.79e-4 0.05257,-0.03444 0.192425,-0.119386 0.310795,-0.188761 z M 18.020182,8.9271207 18.373419,8.6786141 18.247641,8.622112 C 18.164261,8.584656 17.992988,8.565327 17.739546,8.564772 17.400343,8.5640287 17.333515,8.575598 17.146953,8.6673626 17.031302,8.7242486 16.861375,8.8475525 16.769338,8.941372 l -0.167341,0.1705811 0.07708,0.1083006 c 0.04239,0.059565 0.132012,0.2164372 0.199157,0.3486041 l 0.12208,0.2403035 0.333317,-0.3167671 c 0.183325,-0.1742219 0.492274,-0.428595 0.686554,-0.5652736 z"
     id="path7574" />
</svg>
