<?xml version="1.0" encoding="UTF-8" standalone="no"?>
<svg
   height="32px"
   version="1.1"
   viewBox="0 0 32 32"
   width="32px"
   id="svg2551"
   sodipodi:docname="foggy_night.svg"
   inkscape:version="1.2.1 (9c6d41e410, 2022-07-14)"
   xmlns:inkscape="http://www.inkscape.org/namespaces/inkscape"
   xmlns:sodipodi="http://sodipodi.sourceforge.net/DTD/sodipodi-0.dtd"
   xmlns="http://www.w3.org/2000/svg"
   xmlns:svg="http://www.w3.org/2000/svg">
  <sodipodi:namedview
     id="namedview2553"
     pagecolor="#ffffff"
     bordercolor="#000000"
     borderopacity="0.25"
     inkscape:showpageshadow="2"
     inkscape:pageopacity="0.0"
     inkscape:pagecheckerboard="0"
     inkscape:deskcolor="#d1d1d1"
     showgrid="false"
     inkscape:zoom="18.495262"
     inkscape:cx="17.004355"
     inkscape:cy="13.327738"
     inkscape:window-width="1350"
     inkscape:window-height="1040"
     inkscape:window-x="480"
     inkscape:window-y="0"
     inkscape:window-maximized="0"
     inkscape:current-layer="svg2551" />
  <title
     id="title2536" />
  <desc
     id="desc2538" />
  <defs
     id="defs2540" />
  <g
     fill="none"
     fill-rule="evenodd"
     id="Foggy-Night"
     stroke="none"
     stroke-linecap="round"
     stroke-width="1">
    <g
       stroke="#979797"
       stroke-width="2"
       transform="translate(2.000000, 3.000000)"
       id="g2548">
      <path
         d="M3.51316662,18.3249972 C2.54726095,16.5076902 2,14.4339474 2,12.2323849 C2,6.60133385 5.58023357,1.80649116 10.5885576,0 C9.57578659,1.85044465 9,3.97417369 9,6.23238489 C9,9.97477528 10.5813595,13.3478194 13.1123215,15.7197602 M24.5725541,18.9778781 C25.2032153,18.8512818 25.8173753,18.6790485 26.4114424,18.4647698 C25.4048345,20.303954 23.9665443,21.8731697 22.2328555,23.0361332"
         id="Combined-Shape"
         stroke-linejoin="round" />
      <path
         d="M0,22 L13.0550475,22 M17,22 L18.902832,22"
         id="Path-8" />
      <path
         d="M6,18 L22,18"
         id="path2544" />
      <path
         d="M8,25 L21.8560103,25 M25.2606282,25 L26.902832,25"
         id="path2546"
         transform="translate(17.451416, 25.500000) rotate(180.000000) translate(-17.451416, -25.500000) " />
    </g>
  </g>
  <path
     style="fill:#ffffff;stroke-width:0.0382318"
     d="M 5.1792355,22.287754 C 4.8609495,22.189637 4.7054549,22.011514 4.4136638,21.410775 3.4499193,19.426619 2.9989062,17.457949 2.9989062,15.235364 c 0,-1.840763 0.3028846,-3.477131 0.9482556,-5.123058 1.4071362,-3.5887007 4.2584858,-6.4581853 7.8473422,-7.8972523 0.482622,-0.1935227 0.58652,-0.2220285 0.802868,-0.2202779 0.584403,0.00473 0.992782,0.4204195 0.993652,1.0114448 3.44e-4,0.2369123 -0.01699,0.2886717 -0.264488,0.7895657 -0.65614,1.3279112 -1.05892,2.6537338 -1.233671,4.0608445 -0.06546,0.5270966 -0.06546,2.2255912 0,2.7526882 0.257926,2.076844 1.051302,4.086499 2.253562,5.708364 0.391602,0.528277 0.595487,0.76508 1.145276,1.330187 0.536798,0.551755 0.621085,0.696338 0.621779,1.066586 8.76e-4,0.46609 -0.283959,0.853843 -0.720412,0.980724 -0.477366,0.138774 -0.788301,-0.007 -1.423057,-0.666967 -2.168757,-2.255041 -3.438386,-4.882369 -3.883595,-8.036576 -0.09702,-0.687368 -0.097492,-2.8310295 -7.72e-4,-3.517324 0.08786,-0.6234162 0.263347,-1.4872575 0.401652,-1.977114 0.06064,-0.2147723 0.0914,-0.37961 0.06835,-0.366306 -0.02305,0.013304 -0.23348,0.1599891 -0.467627,0.3259668 -2.1128549,1.497717 -3.7192338,3.6857207 -4.4985663,6.1273692 -0.4193029,1.313676 -0.5892749,2.547577 -0.5503488,3.995221 0.047921,1.782161 0.4500891,3.411461 1.2220837,4.951016 0.19521,0.389299 0.2328965,0.497884 0.2488377,0.716972 0.054046,0.742778 -0.6105772,1.262333 -1.3307888,1.040316 z"
     id="path3035" />
  <path
     style="fill:#ffffff;stroke-width:0.0382318"
     d="M 7.6275324,21.952067 C 7.554097,21.928683 7.4050405,21.822912 7.2962958,21.717021 6.9541418,21.383846 6.8878165,20.918238 7.1225855,20.497562 c 0.1196402,-0.21438 0.3763674,-0.416378 0.6125711,-0.481982 0.1950407,-0.05417 16.3346464,-0.05417 16.5296864,0 0.236204,0.0656 0.492931,0.267602 0.612571,0.481982 0.234711,0.42057 0.168418,0.886517 -0.173417,1.218892 -0.120497,0.117161 -0.258744,0.21027 -0.354789,0.238948 -0.215897,0.06447 -16.5189683,0.06121 -16.7216756,-0.0033 z"
     id="path3037" />
  <path
     style="fill:#ffffff;stroke-width:0.0382318"
     d="m 23.816942,26.96096 c -0.230444,-0.1102 -0.484062,-0.385452 -0.546174,-0.592763 -0.02473,-0.08254 -0.04496,-0.232096 -0.04496,-0.332355 0,-0.415549 0.149452,-0.639365 0.680577,-1.019228 0.73623,-0.526553 1.756003,-1.448072 2.142523,-1.936093 l 0.115324,-0.145609 -0.177488,-0.131733 c -0.09762,-0.07245 -0.229732,-0.216406 -0.293585,-0.319894 -0.104384,-0.169178 -0.116042,-0.21932 -0.115562,-0.497013 5.9e-4,-0.341318 0.05283,-0.481808 0.261811,-0.704079 0.173877,-0.184936 0.337493,-0.256314 0.889467,-0.388033 0.270685,-0.06459 0.741617,-0.195599 1.046515,-0.291122 0.463639,-0.145254 0.584938,-0.169767 0.741204,-0.149786 0.527802,0.06749 0.902122,0.481114 0.900245,0.994777 -0.0011,0.304617 -0.04736,0.420912 -0.40202,1.011033 -0.963696,1.603479 -2.310857,3.061739 -3.859222,4.177486 -0.473691,0.341341 -0.567219,0.384093 -0.878415,0.401528 -0.22373,0.01253 -0.299212,-1.15e-4 -0.460238,-0.07712 z"
     id="path3039" />
  <path
     style="fill:#ffffff;stroke-width:0.0382318"
     d="M 1.6425444,25.955886 C 1.3024672,25.835138 1.0324123,25.483447 0.98730293,25.102569 0.94172737,24.717754 1.1739113,24.281399 1.5238211,24.094261 l 0.1583772,-0.0847 6.7972041,-0.01 6.7972046,-0.01 0.191094,0.08221 c 0.112594,0.04844 0.253395,0.152985 0.342758,0.254506 0.360768,0.409854 0.34598,1.002359 -0.03451,1.382852 -0.335298,0.335299 0.317478,0.307942 -7.2666276,0.304532 -5.7253411,-0.0026 -6.7351223,-0.01108 -6.866774,-0.05782 z"
     id="path3041" />
  <path
     style="fill:#ffffff;stroke-width:0.0382318"
     d="m 18.714209,25.981005 c -0.264184,-0.08036 -0.504218,-0.284162 -0.631328,-0.536028 -0.101657,-0.201431 -0.119337,-0.576462 -0.0373,-0.791264 0.09108,-0.238492 0.302107,-0.464603 0.535067,-0.573317 0.187341,-0.08742 0.21483,-0.08921 1.376344,-0.08921 1.164395,0 1.188576,0.0016 1.37847,0.09 0.106743,0.0497 0.256912,0.164337 0.33539,0.256021 0.349491,0.408303 0.33001,0.996512 -0.04544,1.371962 -0.294815,0.294815 -0.368326,0.308091 -1.684788,0.304264 -0.621822,-0.0018 -1.173707,-0.0164 -1.226412,-0.03243 z"
     id="path3043" />
  <path
     style="fill:#ffffff;stroke-width:0.0382318"
     d="m 14.774243,29.979132 c -0.291179,-0.07894 -0.547959,-0.305526 -0.672108,-0.593066 -0.03316,-0.07681 -0.06062,-0.249705 -0.0615,-0.387261 -0.0026,-0.406708 0.230231,-0.766068 0.613113,-0.946318 0.133544,-0.06287 0.566265,-0.06682 7.310405,-0.06682 h 7.168458 l 0.218224,0.107162 c 0.466377,0.229022 0.678131,0.753048 0.507114,1.254955 -0.08355,0.245201 -0.2542,0.432811 -0.506285,0.5566 l -0.219053,0.107567 -7.091995,0.0072 c -5.531868,0.0056 -7.130356,-0.0032 -7.266378,-0.04005 z"
     id="path3045" />
  <path
     style="fill:#ffffff;stroke-width:0.0382318"
     d="m 9.7276479,29.980286 c -0.446694,-0.124062 -0.7305534,-0.503835 -0.7336024,-0.981481 -0.0026,-0.406831 0.2308074,-0.766947 0.6131125,-0.94596 0.1241665,-0.05814 0.2760299,-0.06651 1.212436,-0.06682 1.192825,-3.99e-4 1.21275,0.0031 1.503699,0.26598 0.222881,0.20136 0.328053,0.44078 0.328053,0.746804 0,0.306024 -0.105172,0.545445 -0.328053,0.746804 -0.284895,0.257386 -0.32178,0.264474 -1.427236,0.274286 -0.70932,0.0063 -1.0439723,-0.005 -1.1684091,-0.03961 z"
     id="path3047" />
</svg>
