<?xml version="1.0" encoding="UTF-8" standalone="no"?>
<svg
   height="32px"
   version="1.1"
   viewBox="0 0 32 32"
   width="32px"
   id="svg10956"
   sodipodi:docname="foggy_night.svg"
   inkscape:version="1.2.1 (9c6d41e410, 2022-07-14)"
   xmlns:inkscape="http://www.inkscape.org/namespaces/inkscape"
   xmlns:sodipodi="http://sodipodi.sourceforge.net/DTD/sodipodi-0.dtd"
   xmlns="http://www.w3.org/2000/svg"
   xmlns:svg="http://www.w3.org/2000/svg">
  <sodipodi:namedview
     id="namedview10958"
     pagecolor="#ffffff"
     bordercolor="#000000"
     borderopacity="0.25"
     inkscape:showpageshadow="2"
     inkscape:pageopacity="0.0"
     inkscape:pagecheckerboard="0"
     inkscape:deskcolor="#d1d1d1"
     showgrid="false"
     inkscape:zoom="26.15625"
     inkscape:cx="16.019116"
     inkscape:cy="16.019116"
     inkscape:window-width="1920"
     inkscape:window-height="1017"
     inkscape:window-x="-8"
     inkscape:window-y="-8"
     inkscape:window-maximized="1"
     inkscape:current-layer="svg10956" />
  <title
     id="title10941" />
  <desc
     id="desc10943" />
  <defs
     id="defs10945" />
  <g
     fill="none"
     fill-rule="evenodd"
     id="Foggy-Night"
     stroke="none"
     stroke-linecap="round"
     stroke-width="1">
    <g
       stroke="#979797"
       stroke-width="2"
       transform="translate(2.000000, 3.000000)"
       id="g10953">
      <path
         d="M3.51316662,18.3249972 C2.54726095,16.5076902 2,14.4339474 2,12.2323849 C2,6.60133385 5.58023357,1.80649116 10.5885576,0 C9.57578659,1.85044465 9,3.97417369 9,6.23238489 C9,9.97477528 10.5813595,13.3478194 13.1123215,15.7197602 M24.5725541,18.9778781 C25.2032153,18.8512818 25.8173753,18.6790485 26.4114424,18.4647698 C25.4048345,20.303954 23.9665443,21.8731697 22.2328555,23.0361332"
         id="Combined-Shape"
         stroke-linejoin="round" />
      <path
         d="M0,22 L13.0550475,22 M17,22 L18.902832,22"
         id="Path-8" />
      <path
         d="M6,18 L22,18"
         id="path10949" />
      <path
         d="M8,25 L21.8560103,25 M25.2606282,25 L26.902832,25"
         id="path10951"
         transform="translate(17.451416, 25.500000) rotate(180.000000) translate(-17.451416, -25.500000) " />
    </g>
  </g>
  <path
     style="fill:#3a3e59;stroke-width:0.0382318"
     d="M 5.2298168,22.2598 C 4.9108092,22.15372 4.7667901,22.003402 4.520543,21.519503 3.7871612,20.078341 3.337412,18.592803 3.1099352,16.860215 3.0182509,16.161897 3.0177434,14.351658 3.1090295,13.62963 3.3246906,11.923855 3.7594644,10.473086 4.4987617,8.9923211 5.9610043,6.0635427 8.4255071,3.7231828 11.432058,2.4082716 c 0.685121,-0.2996367 1.054633,-0.4120497 1.255454,-0.3819347 0.39404,0.05909 0.711272,0.3193071 0.831855,0.6823499 0.09925,0.2988064 0.05531,0.4871807 -0.26701,1.1448849 -0.341168,0.6961506 -0.582964,1.3026736 -0.765869,1.921107 -0.967821,3.2723724 -0.520851,6.7909233 1.229103,9.6755073 0.525213,0.865748 0.934092,1.386996 1.756055,2.238652 0.436823,0.452603 0.512555,0.54975 0.564238,0.723785 0.117152,0.394492 0.03875,0.708735 -0.248479,0.995967 -0.306713,0.306712 -0.733656,0.37386 -1.12462,0.176874 -0.184703,-0.09306 -0.915041,-0.826015 -1.383262,-1.388218 -2.567664,-3.083042 -3.6826205,-7.030412 -3.107537,-11.0018629 0.08555,-0.5907888 0.256993,-1.3867576 0.394893,-1.8333759 0.06406,-0.207488 0.07758,-0.2962963 0.0451,-0.2962963 -0.02551,0 -0.170151,0.085258 -0.321416,0.1894628 C 7.5046702,7.1743434 5.6798411,10.00914 5.1458223,13.247312 4.9873852,14.208039 4.9436274,15.567474 5.0424508,16.458781 5.2017703,17.895716 5.5778576,19.212831 6.1996153,20.51135 6.499814,21.138304 6.534597,21.288877 6.4477691,21.585592 6.2952412,22.106821 5.722764,22.423721 5.2298168,22.2598 Z"
     id="path10960" />
  <path
     style="fill:#3a3e59;stroke-width:0.0382318"
     d="M 7.5890084,21.87304 C 7.2326681,21.70458 7.0363268,21.390611 7.0363268,20.989247 c 0,-0.378871 0.1888766,-0.679412 0.5475412,-0.871249 l 0.1580675,-0.08454 H 16 24.258065 l 0.200882,0.111303 c 0.334794,0.185501 0.506997,0.475984 0.505566,0.852821 -0.0015,0.393239 -0.201023,0.708819 -0.553521,0.875463 l -0.191159,0.09037 H 16 7.7801673 Z"
     id="path10962" />
  <path
     style="fill:#3a3e59;stroke-width:0.0382318"
     d="M 1.6699234,25.919514 C 0.86626516,25.624684 0.80779275,24.509993 1.5759069,24.127226 l 0.1977682,-0.09855 6.7499604,3.73e-4 6.7499605,3.74e-4 0.191159,0.09037 c 0.356431,0.168503 0.552055,0.481576 0.553521,0.885845 0.0015,0.417702 -0.255006,0.781829 -0.644212,0.914444 -0.151332,0.05156 -0.956366,0.0581 -6.8647456,0.05572 -5.641354,-0.0023 -6.7162685,-0.01112 -6.839395,-0.05629 z"
     id="path10964" />
  <path
     style="fill:#3a3e59;stroke-width:0.0382318"
     d="m 14.784745,29.938713 c -0.205674,-0.0556 -0.424519,-0.215631 -0.553046,-0.404428 -0.333692,-0.490169 -0.122334,-1.177426 0.444362,-1.4449 0.129461,-0.0611 0.617549,-0.06549 7.288097,-0.06549 h 7.149343 l 0.217896,0.107002 c 0.393242,0.193109 0.62016,0.641388 0.529572,1.046179 -0.06504,0.290611 -0.246133,0.536953 -0.498962,0.678728 l -0.210275,0.117912 -7.091995,0.0072 c -5.699875,0.0058 -7.127916,-0.0025 -7.274992,-0.04223 z"
     id="path10966" />
  <path
     style="fill:#3a3e59;stroke-width:0.0382318"
     d="M 9.7381498,29.939886 C 9.5319503,29.882827 9.3131289,29.722344 9.1851039,29.534285 8.9197771,29.144539 9.0039743,28.564438 9.3706517,28.2559 c 0.2688001,-0.226181 0.304617,-0.231915 1.4489423,-0.231962 1.162597,-4.8e-5 1.188023,0.0043 1.471204,0.25296 0.530969,0.466197 0.380433,1.334745 -0.283239,1.634204 -0.186153,0.084 -1.987329,0.106841 -2.2694092,0.02878 z"
     id="path10968" />
  <path
     style="fill:#3a3e59;stroke-width:0.0382318"
     d="m 18.685705,25.923947 c -0.485407,-0.173224 -0.76537,-0.697677 -0.626831,-1.174235 0.07719,-0.265528 0.289945,-0.514425 0.538761,-0.630287 0.189639,-0.08831 0.215319,-0.09001 1.361406,-0.09038 l 1.16812,-3.73e-4 0.197768,0.09855 c 0.772342,0.384874 0.708312,1.516957 -0.101402,1.792854 -0.233895,0.0797 -2.316444,0.08287 -2.537822,0.0039 z"
     id="path10970" />
  <path
     style="fill:#3a3e59;stroke-width:0.0382318"
     d="m 23.837515,26.920799 c -0.649012,-0.302869 -0.77872,-1.154345 -0.244361,-1.604118 0.09234,-0.07773 0.374349,-0.294171 0.626679,-0.480987 0.585155,-0.43323 1.221515,-1.009214 1.661673,-1.504019 0.190022,-0.213615 0.345495,-0.399481 0.345495,-0.413036 0,-0.01356 -0.03918,-0.04249 -0.08706,-0.06431 -0.310955,-0.14168 -0.537774,-0.509586 -0.537019,-0.871054 5.58e-4,-0.267035 0.06798,-0.446179 0.242914,-0.645416 0.173871,-0.198028 0.334222,-0.270013 0.90215,-0.404994 0.270685,-0.06433 0.71581,-0.189653 0.989168,-0.278484 0.618425,-0.200966 0.832638,-0.208539 1.134323,-0.0401 0.344289,0.192225 0.562948,0.602789 0.513433,0.964045 -0.05827,0.425112 -1.035011,1.911434 -1.90909,2.905088 -0.671413,0.763261 -1.587542,1.584054 -2.413236,2.162103 -0.561649,0.393197 -0.838899,0.455497 -1.225072,0.275285 z"
     id="path10972" />
</svg>
