<?xml version="1.0" encoding="UTF-8" standalone="no"?>
<svg
   height="32px"
   version="1.1"
   viewBox="0 0 32 32"
   width="32px"
   id="svg3093"
   sodipodi:docname="light_rain.svg"
   inkscape:version="1.2.1 (9c6d41e410, 2022-07-14)"
   xmlns:inkscape="http://www.inkscape.org/namespaces/inkscape"
   xmlns:sodipodi="http://sodipodi.sourceforge.net/DTD/sodipodi-0.dtd"
   xmlns="http://www.w3.org/2000/svg"
   xmlns:svg="http://www.w3.org/2000/svg">
  <sodipodi:namedview
     id="namedview3095"
     pagecolor="#ffffff"
     bordercolor="#000000"
     borderopacity="0.25"
     inkscape:showpageshadow="2"
     inkscape:pageopacity="0.0"
     inkscape:pagecheckerboard="0"
     inkscape:deskcolor="#d1d1d1"
     showgrid="false"
     inkscape:zoom="26.15625"
     inkscape:cx="16.038232"
     inkscape:cy="16.038232"
     inkscape:window-width="1350"
     inkscape:window-height="1040"
     inkscape:window-x="405"
     inkscape:window-y="8"
     inkscape:window-maximized="0"
     inkscape:current-layer="svg3093" />
  <title
     id="title3067" />
  <desc
     id="desc3069" />
  <defs
     id="defs3071" />
  <g
     fill="none"
     fill-rule="evenodd"
     id="Light-Rain"
     stroke="none"
     stroke-width="1">
    <g
       stroke="#979797"
       stroke-width="2"
       transform="translate(3.000000, 2.000000)"
       id="g3090">
      <g
         id="Group-2">
        <path
           d="M9.64075822,4.50583286 C8.76235298,4.08656863 7.77895738,3.85185185 6.74074074,3.85185185 C3.01793243,3.85185185 0,6.86978428 0,10.5925926 C0,14.3154009 3.01793243,17.3333333 6.74074074,17.3333333 C8.57997198,17.3333333 10.2471575,16.5967179 11.4633749,15.4024092"
           id="Oval" />
        <path
           d="M9.96956753,13.5435375 C11.529699,15.8313205 14.156887,17.3333333 17.134889,17.3333333 C21.9213568,17.3333333 25.8015556,13.4531345 25.8015556,8.66666667 C25.8015556,3.88019884 21.9213568,0 17.134889,0 C12.9842561,0 9.51510686,2.91777867 8.66666667,6.81411072"
           id="path3074"
           stroke-linecap="round" />
      </g>
      <g
         id="Group-5"
         stroke-linecap="round"
         transform="translate(17.000000, 20.000000)">
        <path
           d="M1,0 L1,2"
           id="Path-5" />
        <path
           d="M1,5 L1,7"
           id="Path-6" />
      </g>
      <g
         id="Group-3"
         stroke-linecap="round"
         transform="translate(12.000000, 20.000000)">
        <path
           d="M1,0 L1,2"
           id="path3080" />
        <path
           d="M1,5 L1,7"
           id="path3082" />
      </g>
      <g
         id="Group-4"
         stroke-linecap="round"
         transform="translate(7.000000, 20.000000)">
        <path
           d="M1,0 L1,2"
           id="path3085" />
        <path
           d="M1,5 L1,7"
           id="path3087" />
      </g>
    </g>
  </g>
  <path
     style="fill:#ffffff;stroke-width:0.0382318"
     d="M 9.0035842,20.316966 C 6.6896084,20.095958 4.6138873,18.856384 3.2921438,16.906223 2.9779627,16.442666 2.5541494,15.578825 2.3761198,15.03913 1.5440664,12.516769 2.0708309,9.6869693 3.7487193,7.6654719 5.6168796,5.4147376 8.5062717,4.410385 11.381529,5.0123076 c 0.245983,0.051495 0.513433,0.1169812 0.594333,0.1455247 l 0.147092,0.051897 0.284999,-0.3835894 c 0.156749,-0.2109741 0.482307,-0.5895885 0.723463,-0.8413653 1.542449,-1.6103809 3.46812,-2.5936559 5.716852,-2.9191061 0.689248,-0.0997523 1.97145,-0.0914063 2.676224,0.01742 1.673367,0.2583888 3.08326,0.8429413 4.396655,1.8228868 2.159884,1.6115252 3.557816,4.0563018 3.841016,6.717369 0.05081,0.4774447 0.05081,1.6091997 0,2.0866447 -0.215077,2.020951 -1.102403,3.988342 -2.47024,5.477047 -1.568785,1.707411 -3.536996,2.738413 -5.882126,3.081218 -0.68047,0.09947 -1.963779,0.09053 -2.676225,-0.01864 -1.348707,-0.206668 -2.637131,-0.680953 -3.750066,-1.380447 l -0.370067,-0.232592 -0.195608,0.149463 c -1.494033,1.141576 -3.513153,1.7125 -5.4142468,1.530928 z M 10.3369,18.275214 c 0.351031,-0.02609 0.85762,-0.135169 1.252057,-0.269584 0.439813,-0.149879 1.145362,-0.511143 1.423695,-0.728977 0.0076,-0.006 -0.127165,-0.179517 -0.299512,-0.38568 -0.402837,-0.481879 -0.675784,-0.890316 -0.730664,-1.093363 -0.0932,-0.344819 0.02024,-0.724096 0.296244,-0.990486 0.195256,-0.188456 0.401249,-0.269212 0.687095,-0.269364 0.346232,-1.91e-4 0.612864,0.132984 0.824076,0.411586 0.98011,1.292824 1.80218,2.001699 2.99386,2.581623 1.094177,0.532474 2.117762,0.767099 3.350963,0.768107 1.929658,0.0016 3.635416,-0.651425 5.120859,-1.960379 0.92179,-0.812269 1.73978,-2.06468 2.133279,-3.26623 C 28.668045,9.1664593 26.681675,4.9975941 22.833172,3.511301 22.398218,3.343322 21.74437,3.1757724 21.217334,3.0972401 20.666303,3.0151324 19.639062,3.0147332 19.064737,3.0964037 16.012875,3.5303867 13.48993,5.7934069 12.726355,8.7817784 12.578612,9.3599958 12.459518,9.5490477 12.143168,9.7075387 11.901433,9.8286478 11.711735,9.8567321 11.471833,9.8069287 11.049244,9.7191998 10.724292,9.3816705 10.661786,8.9655298 10.626969,8.7337336 10.723683,8.2778032 10.952356,7.5957154 11.0733,7.2349614 11.121118,7.0429848 11.092472,7.0331856 10.647664,6.8810281 9.4128845,6.8360239 8.7933094,6.949388 8.0265856,7.0896761 7.1759878,7.425972 6.5892385,7.8207985 5.3309301,8.6675211 4.4756894,9.9233556 4.1419238,11.414432 c -0.077823,0.34767 -0.089327,0.500337 -0.089137,1.18294 1.721e-4,0.621159 0.014957,0.851167 0.071267,1.108721 0.2486943,1.137495 0.7707691,2.103718 1.5730582,2.911316 0.9728801,0.979318 2.2383502,1.568671 3.5932103,1.673426 0.373406,0.02887 0.4667947,0.02748 1.0465777,-0.01562 z"
     id="path3631" />
  <path
     style="fill:#ffffff;stroke-width:0.0382318"
     d="m 10.654532,24.952319 c -0.250141,-0.08926 -0.446444,-0.270485 -0.56565,-0.522211 -0.089468,-0.188927 -0.090519,-0.205667 -0.090058,-1.433692 4.381e-4,-1.167702 0.00516,-1.252894 0.078344,-1.414576 0.343497,-0.758836 1.396395,-0.802749 1.808921,-0.07545 l 0.11869,0.209257 0.01199,1.191171 c 0.0077,0.769003 -0.0026,1.245381 -0.02919,1.344128 -0.154343,0.573185 -0.775857,0.900189 -1.333047,0.701369 z"
     id="path3633" />
  <path
     style="fill:#ffffff;stroke-width:0.0382318"
     d="m 10.781362,29.995565 c -0.336266,-0.09177 -0.561447,-0.272478 -0.693857,-0.556816 -0.08748,-0.187857 -0.089154,-0.214234 -0.089521,-1.410418 -2.55e-4,-0.832178 0.014049,-1.267118 0.045076,-1.37068 0.07049,-0.235288 0.338679,-0.506973 0.59655,-0.604335 0.559444,-0.211225 1.191411,0.115516 1.347969,0.696929 0.02659,0.09875 0.03694,0.575125 0.02919,1.344128 -0.01152,1.144005 -0.01534,1.197429 -0.09654,1.349238 -0.112247,0.20986 -0.300315,0.39328 -0.488503,0.476427 -0.186174,0.08226 -0.494505,0.118065 -0.650369,0.07553 z"
     id="path3635" />
  <path
     style="fill:#ffffff;stroke-width:0.0382318"
     d="m 15.725517,29.979577 c -0.350112,-0.09789 -0.645786,-0.415212 -0.720007,-0.77273 -0.02791,-0.13443 -0.0387,-0.59887 -0.0308,-1.325759 0.01129,-1.039542 0.01781,-1.131066 0.09199,-1.291314 0.09644,-0.208343 0.275326,-0.393906 0.488503,-0.506732 0.223192,-0.118127 0.66642,-0.118127 0.889612,0 0.213177,0.112826 0.392065,0.298389 0.488503,0.506732 0.07578,0.163718 0.07983,0.23554 0.07983,1.415005 0,1.22064 -0.0016,1.24569 -0.08826,1.421703 -0.0991,0.201178 -0.335873,0.43309 -0.521259,0.510549 -0.190811,0.07973 -0.48019,0.09788 -0.678111,0.04255 z"
     id="path3637" />
  <path
     style="fill:#ffffff;stroke-width:0.0382318"
     d="m 15.683349,24.970099 c -0.360739,-0.134548 -0.602843,-0.410362 -0.678003,-0.772407 -0.02771,-0.133474 -0.03851,-0.600472 -0.03064,-1.324967 0.01172,-1.078825 0.01531,-1.12525 0.100407,-1.298012 0.101501,-0.206061 0.335464,-0.432101 0.537233,-0.519041 0.18039,-0.07773 0.594918,-0.07773 0.775308,0 0.201769,0.08694 0.435732,0.31298 0.537233,0.519041 0.0867,0.176013 0.08826,0.201063 0.08826,1.421703 0,1.179465 -0.0041,1.251287 -0.07983,1.415005 -0.09717,0.209917 -0.277472,0.396053 -0.487379,0.50314 -0.198708,0.101373 -0.56765,0.128243 -0.762581,0.05554 z"
     id="path3639" />
  <path
     style="fill:#ffffff;stroke-width:0.0382318"
     d="m 20.716452,24.981063 c -0.225849,-0.06546 -0.479689,-0.273136 -0.603319,-0.493608 L 19.995221,24.27718 v -1.280764 c 0,-1.248432 0.0021,-1.284755 0.08454,-1.438832 0.11525,-0.215475 0.30112,-0.393419 0.507618,-0.485972 0.210612,-0.0944 0.607169,-0.102764 0.806077,-0.01701 0.210139,0.0906 0.420649,0.296568 0.519034,0.507842 0.08748,0.187857 0.08916,0.214233 0.08952,1.410418 2.6e-4,0.854227 -0.01369,1.266069 -0.04661,1.376344 -0.07186,0.240658 -0.380618,0.536836 -0.638566,0.612545 -0.227479,0.06676 -0.415752,0.07282 -0.600384,0.01931 z"
     id="path3641" />
  <path
     style="fill:#ffffff;stroke-width:0.0382318"
     d="m 20.768172,29.991148 c -0.295354,-0.07326 -0.538152,-0.267026 -0.689997,-0.550655 -0.07918,-0.147899 -0.0835,-0.20915 -0.09495,-1.34612 -0.0077,-0.769003 0.0026,-1.245381 0.02919,-1.344128 0.156558,-0.581413 0.788525,-0.908154 1.347969,-0.696929 0.257871,0.09736 0.526056,0.369047 0.59655,0.604335 0.03103,0.103562 0.04533,0.538502 0.04508,1.37068 -3.67e-4,1.196184 -0.002,1.222561 -0.08952,1.410418 -0.196761,0.422527 -0.696104,0.663574 -1.144323,0.552399 z"
     id="path3643" />
</svg>
