<?xml version="1.0" encoding="UTF-8" standalone="no"?>
<svg
   height="32px"
   version="1.1"
   viewBox="0 0 32 32"
   width="32px"
   id="svg11018"
   sodipodi:docname="light_rain.svg"
   inkscape:version="1.2.1 (9c6d41e410, 2022-07-14)"
   xmlns:inkscape="http://www.inkscape.org/namespaces/inkscape"
   xmlns:sodipodi="http://sodipodi.sourceforge.net/DTD/sodipodi-0.dtd"
   xmlns="http://www.w3.org/2000/svg"
   xmlns:svg="http://www.w3.org/2000/svg">
  <sodipodi:namedview
     id="namedview11020"
     pagecolor="#ffffff"
     bordercolor="#000000"
     borderopacity="0.25"
     inkscape:showpageshadow="2"
     inkscape:pageopacity="0.0"
     inkscape:pagecheckerboard="0"
     inkscape:deskcolor="#d1d1d1"
     showgrid="false"
     inkscape:zoom="26.15625"
     inkscape:cx="16.019116"
     inkscape:cy="16.019116"
     inkscape:window-width="1920"
     inkscape:window-height="1017"
     inkscape:window-x="-8"
     inkscape:window-y="-8"
     inkscape:window-maximized="1"
     inkscape:current-layer="svg11018" />
  <title
     id="title10992" />
  <desc
     id="desc10994" />
  <defs
     id="defs10996" />
  <g
     fill="none"
     fill-rule="evenodd"
     id="Light-Rain"
     stroke="none"
     stroke-width="1">
    <g
       stroke="#979797"
       stroke-width="2"
       transform="translate(3.000000, 2.000000)"
       id="g11015">
      <g
         id="Group-2">
        <path
           d="M9.64075822,4.50583286 C8.76235298,4.08656863 7.77895738,3.85185185 6.74074074,3.85185185 C3.01793243,3.85185185 0,6.86978428 0,10.5925926 C0,14.3154009 3.01793243,17.3333333 6.74074074,17.3333333 C8.57997198,17.3333333 10.2471575,16.5967179 11.4633749,15.4024092"
           id="Oval" />
        <path
           d="M9.96956753,13.5435375 C11.529699,15.8313205 14.156887,17.3333333 17.134889,17.3333333 C21.9213568,17.3333333 25.8015556,13.4531345 25.8015556,8.66666667 C25.8015556,3.88019884 21.9213568,0 17.134889,0 C12.9842561,0 9.51510686,2.91777867 8.66666667,6.81411072"
           id="path10999"
           stroke-linecap="round" />
      </g>
      <g
         id="Group-5"
         stroke-linecap="round"
         transform="translate(17.000000, 20.000000)">
        <path
           d="M1,0 L1,2"
           id="Path-5" />
        <path
           d="M1,5 L1,7"
           id="Path-6" />
      </g>
      <g
         id="Group-3"
         stroke-linecap="round"
         transform="translate(12.000000, 20.000000)">
        <path
           d="M1,0 L1,2"
           id="path11005" />
        <path
           d="M1,5 L1,7"
           id="path11007" />
      </g>
      <g
         id="Group-4"
         stroke-linecap="round"
         transform="translate(7.000000, 20.000000)">
        <path
           d="M1,0 L1,2"
           id="path11010" />
        <path
           d="M1,5 L1,7"
           id="path11012" />
      </g>
    </g>
  </g>
  <path
     style="fill:#3a3e59;stroke-width:0.0382318"
     d="m 9.1947431,20.298182 c -0.063082,-0.0089 -0.2763618,-0.03496 -0.473954,-0.05791 C 7.7656006,20.129351 6.7294062,19.766866 5.7655865,19.206474 5.0491999,18.789947 4.107087,17.94355 3.5909744,17.252796 1.3072527,14.196313 1.5405332,10.024026 4.1481481,7.2875867 5.3389515,6.0379542 6.8022564,5.2644477 8.5448029,4.9635051 c 0.5483592,-0.094703 1.8808911,-0.093274 2.4086021,0.00258 0.364704,0.066248 1.00393,0.218573 1.129618,0.2691843 0.04301,0.017318 0.146876,-0.093759 0.380969,-0.407404 0.630174,-0.8443229 1.733321,-1.8432778 2.637561,-2.388442 2.615791,-1.57705399 5.74593,-1.85214455 8.544803,-0.7509554 2.243649,0.8827416 4.089569,2.5826575 5.141109,4.7344705 0.33455,0.6846042 0.506843,1.1526579 0.688674,1.870866 0.231016,0.9124752 0.284609,1.3593027 0.284609,2.3728615 0,1.013559 -0.05359,1.460386 -0.284609,2.372861 -0.268169,1.059231 -0.69469,2.023852 -1.292357,2.922801 -1.493452,2.246293 -3.747166,3.728806 -6.391667,4.204493 -2.306969,0.414973 -4.780159,-0.07299 -6.798074,-1.341279 -0.197578,-0.12418 -0.36824,-0.225782 -0.379248,-0.225782 -0.01101,0 -0.133948,0.08432 -0.273199,0.187384 -1.301304,0.963114 -2.791241,1.472874 -4.420447,1.51239 -0.3364397,0.0082 -0.6633214,0.0076 -0.7264039,-0.0014 z m 1.5541459,-2.04085 c 0.532011,-0.09172 1.044073,-0.258033 1.523512,-0.494822 0.39606,-0.195609 0.802868,-0.444451 0.802868,-0.49111 0,-0.01619 -0.09765,-0.141131 -0.216994,-0.277655 -0.306658,-0.350794 -0.732815,-0.931849 -0.798189,-1.088311 -0.03042,-0.0728 -0.05531,-0.236335 -0.05531,-0.363404 0,-0.724633 0.73922,-1.183769 1.391829,-0.864478 0.186216,0.09111 0.260741,0.165746 0.567772,0.568636 1.109863,1.456374 2.533664,2.413649 4.250966,2.858085 0.648154,0.167741 1.1531,0.227866 1.913686,0.227866 1.246066,0 2.218524,-0.214112 3.287933,-0.723923 0.861315,-0.410607 1.478349,-0.845427 2.143269,-1.510347 1.190348,-1.190348 1.927328,-2.651885 2.179612,-4.322481 0.08522,-0.564311 0.08522,-1.653132 0,-2.217443 C 27.317322,6.7600371 25.449114,4.4508717 22.805257,3.4586358 22.336902,3.2828627 21.76276,3.1406267 21.180406,3.0561002 20.642966,2.9780928 19.316832,2.9968603 18.829152,3.0893752 16.880247,3.4590902 15.228639,4.4502701 14.075706,5.9420613 13.40544,6.8093259 13.003282,7.6227036 12.70015,8.7241657 12.529288,9.3450128 12.435238,9.4970904 12.114029,9.6719144 11.480029,10.01698 10.708362,9.5548349 10.705738,8.8285003 10.704828,8.5766488 10.881514,7.8750761 11.082375,7.332977 11.216466,6.9710811 11.250124,7.0110352 10.736609,6.9225382 8.7966826,6.5882193 6.8301328,7.2519188 5.5068409,8.6875554 4.8536326,9.3962196 4.3758627,10.288136 4.1501652,11.220241 c -0.4722521,1.950347 0.089833,3.992195 1.4890224,5.409069 0.8652001,0.876136 1.9008975,1.417988 3.1367486,1.641072 0.4666521,0.08423 1.4462448,0.07776 1.9729528,-0.01305 z"
     id="path11022" />
  <path
     style="fill:#3a3e59;stroke-width:0.0382318"
     d="m 10.68436,24.925945 c -0.211831,-0.07839 -0.418085,-0.256773 -0.543418,-0.469978 l -0.1051,-0.178787 -0.01175,-1.185185 c -0.01277,-1.288704 2.87e-4,-1.403697 0.188976,-1.664175 0.340618,-0.470209 1.004009,-0.53904 1.428054,-0.148168 0.320359,0.295296 0.325421,0.322015 0.325421,1.717575 0,1.317866 -0.0042,1.350454 -0.208152,1.617858 -0.220919,0.28964 -0.731808,0.437507 -1.074035,0.31086 z"
     id="path11024" />
  <path
     style="fill:#3a3e59;stroke-width:0.0382318"
     d="m 10.800478,29.956958 c -0.202219,-0.04945 -0.428962,-0.187285 -0.550363,-0.334565 -0.225475,-0.273541 -0.2387,-0.37311 -0.22586,-1.700494 0.01106,-1.143542 0.01534,-1.204822 0.09426,-1.350812 0.190553,-0.35249 0.486315,-0.533163 0.873123,-0.53337 0.308921,-1.64e-4 0.493218,0.07334 0.698454,0.278579 0.269374,0.269373 0.274679,0.301698 0.275617,1.679342 9.56e-4,1.404699 -0.0038,1.430258 -0.323891,1.725268 -0.235891,0.217437 -0.55329,0.306489 -0.84134,0.236052 z"
     id="path11026" />
  <path
     style="fill:#3a3e59;stroke-width:0.0382318"
     d="m 15.744069,29.940809 c -0.09871,-0.02737 -0.210535,-0.07332 -0.248507,-0.102099 -0.197317,-0.14956 -0.297532,-0.265392 -0.379355,-0.438471 -0.08908,-0.188436 -0.09036,-0.208311 -0.0899,-1.39546 4.37e-4,-1.12871 0.0053,-1.2151 0.07825,-1.376344 0.17449,-0.385925 0.484534,-0.590322 0.895443,-0.590322 0.410909,0 0.720953,0.204397 0.895444,0.590322 0.0729,0.161244 0.07782,0.247634 0.07825,1.376344 4.58e-4,1.181683 -0.0012,1.207896 -0.08868,1.395738 -0.202778,0.435448 -0.688902,0.66565 -1.140947,0.540292 z"
     id="path11028" />
  <path
     style="fill:#3a3e59;stroke-width:0.0382318"
     d="m 20.759609,24.948747 c -0.285321,-0.08679 -0.539563,-0.302739 -0.654622,-0.556023 -0.06297,-0.138616 -0.06994,-0.275368 -0.0707,-1.387167 -9.56e-4,-1.405096 0.0038,-1.430184 0.324582,-1.725905 0.424045,-0.390872 1.087436,-0.322041 1.428054,0.148168 0.188689,0.260478 0.201747,0.375471 0.188976,1.664175 -0.01129,1.138754 -0.01506,1.19139 -0.09645,1.343563 -0.212684,0.397675 -0.726105,0.632959 -1.119846,0.513189 z"
     id="path11030" />
  <path
     style="fill:#3a3e59;stroke-width:0.0382318"
     d="m 20.689998,29.921896 c -0.239133,-0.08482 -0.469441,-0.29482 -0.579041,-0.527983 -0.07281,-0.154893 -0.0775,-0.23911 -0.0775,-1.389945 0,-1.317866 0.0042,-1.350454 0.208152,-1.617858 0.05355,-0.07021 0.187768,-0.177631 0.298253,-0.238706 0.168627,-0.09322 0.243855,-0.110925 0.468505,-0.110295 0.387066,0.0011 0.682828,0.181966 0.873123,0.533978 0.07892,0.14599 0.0832,0.20727 0.09426,1.350812 0.0097,1.005523 0.002,1.226736 -0.04809,1.377555 -0.170129,0.512212 -0.740172,0.798897 -1.237657,0.622442 z"
     id="path11032" />
  <path
     style="fill:#3a3e59;stroke-width:0.0382318"
     d="m 15.751246,24.951022 c -0.292062,-0.09578 -0.521166,-0.300638 -0.64669,-0.578262 -0.07291,-0.161244 -0.07782,-0.247634 -0.07825,-1.376344 -4.59e-4,-1.184952 9.8e-4,-1.207407 0.08954,-1.397586 0.149623,-0.321318 0.552644,-0.590467 0.88416,-0.590467 0.331516,0 0.734537,0.269149 0.88416,0.590467 0.08856,0.190179 0.09,0.212634 0.08954,1.397586 -4.37e-4,1.12871 -0.0053,1.2151 -0.07825,1.376344 -0.09593,0.212179 -0.274081,0.402581 -0.472127,0.504604 -0.163927,0.08445 -0.520125,0.123486 -0.672071,0.07366 z"
     id="path11034" />
</svg>
