<?xml version="1.0" encoding="UTF-8" standalone="no"?>
<svg
   height="32px"
   version="1.1"
   viewBox="0 0 32 32"
   width="32px"
   id="svg11091"
   sodipodi:docname="moderate_rain.svg"
   inkscape:version="1.2.1 (9c6d41e410, 2022-07-14)"
   xmlns:inkscape="http://www.inkscape.org/namespaces/inkscape"
   xmlns:sodipodi="http://sodipodi.sourceforge.net/DTD/sodipodi-0.dtd"
   xmlns="http://www.w3.org/2000/svg"
   xmlns:svg="http://www.w3.org/2000/svg">
  <sodipodi:namedview
     id="namedview11093"
     pagecolor="#ffffff"
     bordercolor="#000000"
     borderopacity="0.25"
     inkscape:showpageshadow="2"
     inkscape:pageopacity="0.0"
     inkscape:pagecheckerboard="0"
     inkscape:deskcolor="#d1d1d1"
     showgrid="false"
     inkscape:zoom="26.15625"
     inkscape:cx="16.019116"
     inkscape:cy="16.019116"
     inkscape:window-width="1920"
     inkscape:window-height="1017"
     inkscape:window-x="-8"
     inkscape:window-y="-8"
     inkscape:window-maximized="1"
     inkscape:current-layer="svg11091" />
  <title
     id="title11062" />
  <desc
     id="desc11064" />
  <defs
     id="defs11066" />
  <g
     fill="none"
     fill-rule="evenodd"
     id="Moderate-Rain"
     stroke="none"
     stroke-width="1">
    <g
       id="Moderate-rain"
       stroke="#979797"
       stroke-width="2"
       transform="translate(3.000000, 2.000000)">
      <g
         id="Group-2">
        <path
           d="M9.64075822,4.50583286 C8.76235298,4.08656863 7.77895738,3.85185185 6.74074074,3.85185185 C3.01793243,3.85185185 0,6.86978428 0,10.5925926 C0,14.3154009 3.01793243,17.3333333 6.74074074,17.3333333 C8.57997198,17.3333333 10.2471575,16.5967179 11.4633749,15.4024092"
           id="Oval" />
        <path
           d="M9.96956753,13.5435375 C11.529699,15.8313205 14.156887,17.3333333 17.134889,17.3333333 C21.9213568,17.3333333 25.8015556,13.4531345 25.8015556,8.66666667 C25.8015556,3.88019884 21.9213568,0 17.134889,0 C12.9842561,0 9.51510686,2.91777867 8.66666667,6.81411072"
           id="path11069"
           stroke-linecap="round" />
      </g>
      <g
         id="Group-3"
         stroke-linecap="round"
         transform="translate(13.409396, 22.893086) rotate(25.000000) translate(-13.409396, -22.893086) translate(10.409396, 18.893086)">
        <path
           d="M5,0 L5,2"
           id="Path-5" />
        <path
           d="M5,5 L5,7"
           id="Path-6" />
        <path
           d="M1,1 L1,3"
           id="path11074" />
        <path
           d="M1,6 L1,8"
           id="path11076" />
      </g>
      <g
         id="g11087"
         stroke-linecap="round"
         transform="translate(4.409396, 22.893086) rotate(25.000000) translate(-4.409396, -22.893086) translate(1.409396, 18.893086)">
        <path
           d="M5,0 L5,2"
           id="path11079" />
        <path
           d="M5,5 L5,7"
           id="path11081" />
        <path
           d="M1,1 L1,3"
           id="path11083" />
        <path
           d="M1,6 L1,8"
           id="path11085" />
      </g>
    </g>
  </g>
  <path
     style="fill:#3a3e59;stroke-width:0.0382318"
     d="m 9.1947431,20.298182 c -0.063082,-0.0089 -0.2763618,-0.03496 -0.473954,-0.05791 C 7.7656006,20.129351 6.7294062,19.766866 5.7655865,19.206474 5.0491999,18.789947 4.107087,17.94355 3.5909744,17.252796 1.3072527,14.196313 1.5405332,10.024026 4.1481481,7.2875867 5.3389515,6.0379542 6.8022564,5.2644477 8.5448029,4.9635051 c 0.5483592,-0.094703 1.8808911,-0.093274 2.4086021,0.00258 0.364704,0.066248 1.00393,0.218573 1.129618,0.2691843 0.04301,0.017318 0.146876,-0.093759 0.380969,-0.407404 0.630174,-0.8443229 1.733321,-1.8432778 2.637561,-2.388442 2.615791,-1.57705399 5.74593,-1.85214455 8.544803,-0.7509554 2.243649,0.8827416 4.089569,2.5826575 5.141109,4.7344705 0.33455,0.6846042 0.506843,1.1526579 0.688674,1.870866 0.231016,0.9124752 0.284609,1.3593027 0.284609,2.3728615 0,1.013559 -0.05359,1.460386 -0.284609,2.372861 -0.268169,1.059231 -0.69469,2.023852 -1.292357,2.922801 -1.493452,2.246293 -3.747166,3.728806 -6.391667,4.204493 -2.306969,0.414973 -4.780159,-0.07299 -6.798074,-1.341279 -0.197578,-0.12418 -0.36824,-0.225782 -0.379248,-0.225782 -0.01101,0 -0.133948,0.08432 -0.273199,0.187384 -1.301304,0.963114 -2.791241,1.472874 -4.420447,1.51239 -0.3364397,0.0082 -0.6633214,0.0076 -0.7264039,-0.0014 z m 1.5541459,-2.04085 c 0.532011,-0.09172 1.044073,-0.258033 1.523512,-0.494822 0.39606,-0.195609 0.802868,-0.444451 0.802868,-0.49111 0,-0.01619 -0.09765,-0.141131 -0.216994,-0.277655 -0.306658,-0.350794 -0.732815,-0.931849 -0.798189,-1.088311 -0.03042,-0.0728 -0.05531,-0.236335 -0.05531,-0.363404 0,-0.724633 0.73922,-1.183769 1.391829,-0.864478 0.186216,0.09111 0.260741,0.165746 0.567772,0.568636 1.109863,1.456374 2.533664,2.413649 4.250966,2.858085 0.648154,0.167741 1.1531,0.227866 1.913686,0.227866 1.246066,0 2.218524,-0.214112 3.287933,-0.723923 0.861315,-0.410607 1.478349,-0.845427 2.143269,-1.510347 1.190348,-1.190348 1.927328,-2.651885 2.179612,-4.322481 0.08522,-0.564311 0.08522,-1.653132 0,-2.217443 C 27.317322,6.7600371 25.449114,4.4508717 22.805257,3.4586358 22.336902,3.2828627 21.76276,3.1406267 21.180406,3.0561002 20.642966,2.9780928 19.316832,2.9968603 18.829152,3.0893752 16.880247,3.4590902 15.228639,4.4502701 14.075706,5.9420613 13.40544,6.8093259 13.003282,7.6227036 12.70015,8.7241657 12.529288,9.3450128 12.435238,9.4970904 12.114029,9.6719144 11.480029,10.01698 10.708362,9.5548349 10.705738,8.8285003 10.704828,8.5766488 10.881514,7.8750761 11.082375,7.332977 11.216466,6.9710811 11.250124,7.0110352 10.736609,6.9225382 8.7966826,6.5882193 6.8301328,7.2519188 5.5068409,8.6875554 4.8536326,9.3962196 4.3758627,10.288136 4.1501652,11.220241 c -0.4722521,1.950347 0.089833,3.992195 1.4890224,5.409069 0.8652001,0.876136 1.9008975,1.417988 3.1367486,1.641072 0.4666521,0.08423 1.4462448,0.07776 1.9729528,-0.01305 z"
     id="path11095" />
  <path
     style="fill:#3a3e59;stroke-width:0.0382318"
     d="m 5.5993935,24.014648 c -0.3587922,-0.167076 -0.5715033,-0.52504 -0.5457126,-0.918361 0.013273,-0.202419 0.079039,-0.370977 0.4915738,-1.259897 0.5095408,-1.097947 0.6189311,-1.263331 0.9286068,-1.403936 0.099798,-0.04531 0.2470228,-0.07267 0.3939352,-0.07319 0.4247528,-0.0015 0.8269129,0.298976 0.9344123,0.698198 0.087618,0.325388 0.041546,0.482311 -0.4576758,1.558854 -0.2578358,0.556009 -0.5166099,1.07114 -0.5750534,1.144736 -0.2606528,0.328232 -0.7718704,0.43903 -1.1700863,0.253596 z"
     id="path11097" />
  <path
     style="fill:#3a3e59;stroke-width:0.0382318"
     d="M 3.5815124,28.598082 C 3.1853816,28.446403 2.9429701,28.090136 2.9450896,27.662744 c 0.00119,-0.239427 0.022257,-0.295566 0.474278,-1.2637 0.3083896,-0.660505 0.5234369,-1.071581 0.6178415,-1.181039 0.3698256,-0.4288 0.9878294,-0.449893 1.3902701,-0.04745 0.2248588,0.224859 0.3275945,0.497022 0.2941644,0.779287 -0.026727,0.225671 -0.8987624,2.136852 -1.069739,2.344475 -0.2475499,0.300609 -0.7248707,0.436069 -1.0703922,0.303768 z"
     id="path11099" />
  <path
     style="fill:#3a3e59;stroke-width:0.0382318"
     d="m 7.5507766,29.347823 c -0.1949845,-0.08906 -0.4530658,-0.36917 -0.5182788,-0.562509 -0.071037,-0.210608 -0.058154,-0.499139 0.032292,-0.723187 0.204705,-0.507087 0.9363223,-1.995276 1.0299769,-2.095085 0.1613962,-0.172003 0.4514338,-0.293736 0.6985428,-0.293188 0.6390666,0.0014 1.1290582,0.635263 0.9448178,1.222203 -0.029702,0.09462 -0.2566616,0.605809 -0.504354,1.135967 -0.4772669,1.021536 -0.5814494,1.177203 -0.8801292,1.315065 -0.204058,0.09419 -0.5974851,0.09455 -0.8028675,7.34e-4 z"
     id="path11101" />
  <path
     style="fill:#3a3e59;stroke-width:0.0382318"
     d="m 9.7828352,24.857552 c -0.3457793,-0.129387 -0.6137831,-0.41098 -0.6684415,-0.702335 -0.0599,-0.319294 -0.00478,-0.495177 0.4829636,-1.541119 0.5408147,-1.159749 0.6552127,-1.31875 1.0284587,-1.429451 0.255759,-0.07585 0.321019,-0.07645 0.561269,-0.0051 0.2303,0.06839 0.484694,0.27777 0.598294,0.492424 0.06529,0.123362 0.08351,0.221772 0.08243,0.445116 -0.0014,0.286717 -0.0014,0.286816 -0.488056,1.318711 -0.504691,1.070178 -0.601953,1.220651 -0.882365,1.365105 -0.189894,0.09782 -0.5320337,0.124949 -0.7145558,0.05665 z"
     id="path11103" />
  <path
     style="fill:#3a3e59;stroke-width:0.0382318"
     d="m 14.622807,24.033603 c -0.349693,-0.158855 -0.569282,-0.499069 -0.57074,-0.88426 -9.02e-4,-0.238594 0.0181,-0.289451 0.476483,-1.274956 0.282194,-0.606709 0.531273,-1.089579 0.609109,-1.180829 0.372873,-0.437135 1.070929,-0.441681 1.450437,-0.0094 0.178277,0.203047 0.245704,0.380846 0.246203,0.649221 3.97e-4,0.213327 -0.03282,0.301282 -0.474284,1.255974 -0.510611,1.10422 -0.63443,1.294777 -0.932296,1.43479 -0.220988,0.103877 -0.587637,0.108207 -0.804912,0.0095 z"
     id="path11105" />
  <path
     style="fill:#3a3e59;stroke-width:0.0382318"
     d="m 12.654472,28.618998 c -0.170485,-0.05186 -0.322053,-0.146076 -0.444696,-0.276429 -0.198538,-0.211019 -0.259455,-0.365721 -0.260975,-0.66276 -0.0013,-0.263288 0.0063,-0.284034 0.470662,-1.280765 0.259618,-0.557228 0.514773,-1.069733 0.567012,-1.1389 0.134742,-0.178404 0.347802,-0.30815 0.588591,-0.35843 0.174044,-0.03634 0.244468,-0.03263 0.436881,0.02301 0.295604,0.08548 0.589865,0.369499 0.666536,0.643338 0.09783,0.349435 0.05437,0.50474 -0.436374,1.559022 -0.249169,0.535304 -0.497171,1.035875 -0.551114,1.112381 -0.225989,0.320507 -0.681845,0.487426 -1.036523,0.379538 z"
     id="path11107" />
  <path
     style="fill:#3a3e59;stroke-width:0.0382318"
     d="m 16.796894,29.414347 c -0.500731,-0.08827 -0.841348,-0.511019 -0.808826,-1.003843 0.01332,-0.201908 0.07721,-0.366243 0.469837,-1.208592 0.249929,-0.536201 0.496465,-1.039237 0.547859,-1.117857 0.122299,-0.187089 0.392651,-0.363208 0.606853,-0.395329 0.806869,-0.120998 1.382326,0.610809 1.069641,1.360258 -0.247246,0.592606 -0.894985,1.92903 -0.99202,2.04675 -0.198033,0.240249 -0.575075,0.374722 -0.893344,0.318613 z"
     id="path11109" />
  <path
     style="fill:#3a3e59;stroke-width:0.0382318"
     d="m 18.809788,24.874559 c -0.176506,-0.05788 -0.32377,-0.150177 -0.444695,-0.278705 -0.200381,-0.212977 -0.260335,-0.365651 -0.26026,-0.66276 6.5e-5,-0.261924 0.01022,-0.289552 0.476888,-1.297623 0.40018,-0.864443 0.505356,-1.059191 0.65435,-1.211607 0.311884,-0.319048 0.74361,-0.378105 1.151191,-0.157475 0.318893,0.172621 0.48729,0.468775 0.48729,0.85698 0,0.224553 -0.0278,0.298129 -0.487455,1.290322 -0.513347,1.108078 -0.607812,1.253721 -0.904487,1.394502 -0.164978,0.07829 -0.527442,0.11404 -0.672822,0.06637 z"
     id="path11111" />
</svg>
