<?xml version="1.0" encoding="UTF-8" standalone="no"?>
<svg
   height="32px"
   version="1.1"
   viewBox="0 0 32 32"
   width="32px"
   id="svg4213"
   sodipodi:docname="moderate_rain.svg"
   inkscape:version="1.2.1 (9c6d41e410, 2022-07-14)"
   xmlns:inkscape="http://www.inkscape.org/namespaces/inkscape"
   xmlns:sodipodi="http://sodipodi.sourceforge.net/DTD/sodipodi-0.dtd"
   xmlns="http://www.w3.org/2000/svg"
   xmlns:svg="http://www.w3.org/2000/svg">
  <sodipodi:namedview
     id="namedview4215"
     pagecolor="#ffffff"
     bordercolor="#000000"
     borderopacity="0.25"
     inkscape:showpageshadow="2"
     inkscape:pageopacity="0.0"
     inkscape:pagecheckerboard="0"
     inkscape:deskcolor="#d1d1d1"
     showgrid="false"
     inkscape:zoom="26.15625"
     inkscape:cx="16.038232"
     inkscape:cy="16.019116"
     inkscape:window-width="1920"
     inkscape:window-height="1017"
     inkscape:window-x="-8"
     inkscape:window-y="-8"
     inkscape:window-maximized="1"
     inkscape:current-layer="svg4213" />
  <title
     id="title4184" />
  <desc
     id="desc4186" />
  <defs
     id="defs4188" />
  <g
     fill="none"
     fill-rule="evenodd"
     id="Moderate-Rain"
     stroke="none"
     stroke-width="1">
    <g
       id="Moderate-rain"
       stroke="#979797"
       stroke-width="2"
       transform="translate(3.000000, 2.000000)">
      <g
         id="Group-2">
        <path
           d="M9.64075822,4.50583286 C8.76235298,4.08656863 7.77895738,3.85185185 6.74074074,3.85185185 C3.01793243,3.85185185 0,6.86978428 0,10.5925926 C0,14.3154009 3.01793243,17.3333333 6.74074074,17.3333333 C8.57997198,17.3333333 10.2471575,16.5967179 11.4633749,15.4024092"
           id="Oval" />
        <path
           d="M9.96956753,13.5435375 C11.529699,15.8313205 14.156887,17.3333333 17.134889,17.3333333 C21.9213568,17.3333333 25.8015556,13.4531345 25.8015556,8.66666667 C25.8015556,3.88019884 21.9213568,0 17.134889,0 C12.9842561,0 9.51510686,2.91777867 8.66666667,6.81411072"
           id="path4191"
           stroke-linecap="round" />
      </g>
      <g
         id="Group-3"
         stroke-linecap="round"
         transform="translate(13.409396, 22.893086) rotate(25.000000) translate(-13.409396, -22.893086) translate(10.409396, 18.893086)">
        <path
           d="M5,0 L5,2"
           id="Path-5" />
        <path
           d="M5,5 L5,7"
           id="Path-6" />
        <path
           d="M1,1 L1,3"
           id="path4196" />
        <path
           d="M1,6 L1,8"
           id="path4198" />
      </g>
      <g
         id="g4209"
         stroke-linecap="round"
         transform="translate(4.409396, 22.893086) rotate(25.000000) translate(-4.409396, -22.893086) translate(1.409396, 18.893086)">
        <path
           d="M5,0 L5,2"
           id="path4201" />
        <path
           d="M5,5 L5,7"
           id="path4203" />
        <path
           d="M1,1 L1,3"
           id="path4205" />
        <path
           d="M1,6 L1,8"
           id="path4207" />
      </g>
    </g>
  </g>
  <path
     style="fill:#ffffff;stroke-width:0.0382318"
     d="M 9.0035842,20.316966 C 6.6896084,20.095958 4.6138873,18.856384 3.2921438,16.906223 2.9779627,16.442666 2.5541494,15.578825 2.3761198,15.03913 1.5440664,12.516769 2.0708309,9.6869693 3.7487193,7.6654719 5.6168796,5.4147376 8.5062717,4.410385 11.381529,5.0123076 c 0.245983,0.051495 0.513433,0.1169812 0.594333,0.1455247 l 0.147092,0.051897 0.284999,-0.3835894 c 0.156749,-0.2109741 0.482307,-0.5895885 0.723463,-0.8413653 1.542449,-1.6103809 3.46812,-2.5936559 5.716852,-2.9191061 0.689248,-0.0997523 1.97145,-0.0914063 2.676224,0.01742 1.673367,0.2583888 3.08326,0.8429413 4.396655,1.8228868 2.159884,1.6115252 3.557816,4.0563018 3.841016,6.717369 0.05081,0.4774447 0.05081,1.6091997 0,2.0866447 -0.215077,2.020951 -1.102403,3.988342 -2.47024,5.477047 -1.568785,1.707411 -3.536996,2.738413 -5.882126,3.081218 -0.68047,0.09947 -1.963779,0.09053 -2.676225,-0.01864 -1.348707,-0.206668 -2.637131,-0.680953 -3.750066,-1.380447 l -0.370067,-0.232592 -0.195608,0.149463 c -1.494033,1.141576 -3.513153,1.7125 -5.4142468,1.530928 z M 10.3369,18.275214 c 0.351031,-0.02609 0.85762,-0.135169 1.252057,-0.269584 0.439813,-0.149879 1.145362,-0.511143 1.423695,-0.728977 0.0076,-0.006 -0.127165,-0.179517 -0.299512,-0.38568 -0.402837,-0.481879 -0.675784,-0.890316 -0.730664,-1.093363 -0.0932,-0.344819 0.02024,-0.724096 0.296244,-0.990486 0.195256,-0.188456 0.401249,-0.269212 0.687095,-0.269364 0.346232,-1.91e-4 0.612864,0.132984 0.824076,0.411586 0.98011,1.292824 1.80218,2.001699 2.99386,2.581623 1.094177,0.532474 2.117762,0.767099 3.350963,0.768107 1.929658,0.0016 3.635416,-0.651425 5.120859,-1.960379 0.92179,-0.812269 1.73978,-2.06468 2.133279,-3.26623 C 28.668045,9.1664593 26.681675,4.9975941 22.833172,3.511301 22.398218,3.343322 21.74437,3.1757724 21.217334,3.0972401 20.666303,3.0151324 19.639062,3.0147332 19.064737,3.0964037 16.012875,3.5303867 13.48993,5.7934069 12.726355,8.7817784 12.578612,9.3599958 12.459518,9.5490477 12.143168,9.7075387 11.901433,9.8286478 11.711735,9.8567321 11.471833,9.8069287 11.049244,9.7191998 10.724292,9.3816705 10.661786,8.9655298 10.626969,8.7337336 10.723683,8.2778032 10.952356,7.5957154 11.0733,7.2349614 11.121118,7.0429848 11.092472,7.0331856 10.647664,6.8810281 9.4128845,6.8360239 8.7933094,6.949388 8.0265856,7.0896761 7.1759878,7.425972 6.5892385,7.8207985 5.3309301,8.6675211 4.4756894,9.9233556 4.1419238,11.414432 c -0.077823,0.34767 -0.089327,0.500337 -0.089137,1.18294 1.721e-4,0.621159 0.014957,0.851167 0.071267,1.108721 0.2486943,1.137495 0.7707691,2.103718 1.5730582,2.911316 0.9728801,0.979318 2.2383502,1.568671 3.5932103,1.673426 0.373406,0.02887 0.4667947,0.02748 1.0465777,-0.01562 z"
     id="path4697" />
  <path
     style="fill:#ffffff;stroke-width:0.0382318"
     d="M 5.5815616,24.053474 C 5.1612329,23.857737 4.9261235,23.391337 5.0251148,22.949618 c 0.049015,-0.218714 0.9201733,-2.094511 1.0545598,-2.2707 0.2185147,-0.286488 0.6908619,-0.428382 1.0776186,-0.323718 0.4856805,0.131434 0.8268506,0.714225 0.6982556,1.19277 -0.073725,0.274355 -0.9638191,2.144329 -1.0880151,2.28578 -0.1711907,0.194976 -0.4462882,0.308872 -0.7460283,0.308872 -0.1800719,0 -0.3012253,-0.02455 -0.4399438,-0.08915 z"
     id="path4699" />
  <path
     style="fill:#ffffff;stroke-width:0.0382318"
     d="M 3.5609105,28.632867 C 3.145711,28.500185 2.8492976,28.02416 2.8978218,27.56798 c 0.029262,-0.275098 0.9366511,-2.218509 1.1276645,-2.415189 0.1989996,-0.204903 0.4345249,-0.300343 0.7343703,-0.29758 0.2923969,0.0027 0.4701258,0.07062 0.6793793,0.259673 0.2257511,0.203953 0.3261311,0.466763 0.3067764,0.803187 -0.014525,0.252468 -0.047585,0.338928 -0.4909122,1.283841 -0.4975281,1.060436 -0.6148655,1.242326 -0.8929447,1.384192 -0.201973,0.103039 -0.559791,0.123922 -0.8012449,0.04676 z"
     id="path4701" />
  <path
     style="fill:#ffffff;stroke-width:0.0382318"
     d="M 7.5308123,29.386052 C 7.2094516,29.240068 6.9827897,28.909921 6.9491383,28.538808 6.9237006,28.258276 6.9387677,28.2162 7.4817823,27.051347 c 0.4963423,-1.064733 0.5881495,-1.198333 0.9222264,-1.342049 0.1510003,-0.06496 0.2464667,-0.07946 0.4437714,-0.06743 0.2924413,0.01784 0.4769444,0.09703 0.6655612,0.285646 0.21468,0.21468 0.2739944,0.370553 0.2739944,0.720032 V 26.9534 l -0.4737465,1.013142 c -0.2605605,0.557228 -0.5233009,1.076306 -0.5838674,1.153507 -0.1700338,0.216731 -0.4486684,0.33771 -0.7754602,0.336693 -0.1780242,-5.54e-4 -0.321935,-0.02458 -0.4234493,-0.0707 z"
     id="path4703" />
  <path
     style="fill:#ffffff;stroke-width:0.0382318"
     d="M 9.7602828,24.89781 C 9.5208131,24.81815 9.298446,24.631574 9.1773127,24.408671 9.0834702,24.235988 9.06403,24.155326 9.0626948,23.933094 c -0.00159,-0.264048 0.00499,-0.281806 0.4926307,-1.32974 0.4370168,-0.939148 0.5151095,-1.08164 0.6745035,-1.230734 0.39476,-0.369252 0.959861,-0.370219 1.36706,-0.0023 0.223544,0.201958 0.323555,0.431552 0.323555,0.742779 0,0.245501 -0.01689,0.290769 -0.479875,1.285754 -0.507033,1.089657 -0.638553,1.295412 -0.919727,1.438856 -0.189985,0.09692 -0.5616391,0.126311 -0.7605592,0.06014 z"
     id="path4705" />
  <path
     style="fill:#ffffff;stroke-width:0.0382318"
     d="m 12.635356,28.659522 c -0.269511,-0.08843 -0.52065,-0.28924 -0.632687,-0.505897 -0.08992,-0.173878 -0.129404,-0.454348 -0.09201,-0.653493 0.04883,-0.260019 0.94476,-2.159709 1.099737,-2.331829 0.370223,-0.411175 1.058693,-0.426662 1.452678,-0.03268 0.252089,0.252089 0.362677,0.632977 0.276597,0.952654 -0.06008,0.223119 -0.93282,2.087702 -1.047625,2.23822 -0.142351,0.18663 -0.449982,0.335347 -0.726263,0.351094 -0.129032,0.0074 -0.277725,-7.76e-4 -0.33043,-0.01807 z"
     id="path4707" />
  <path
     style="fill:#ffffff;stroke-width:0.0382318"
     d="m 14.542699,24.036598 c -0.371033,-0.19383 -0.553601,-0.537102 -0.522395,-0.982228 0.01383,-0.197205 0.08382,-0.374445 0.490945,-1.243139 0.303491,-0.647571 0.523245,-1.067039 0.609026,-1.162511 0.46775,-0.520598 1.318517,-0.40462 1.656607,0.225832 0.06456,0.120395 0.08184,0.217991 0.08121,0.458781 l -7.96e-4,0.305855 -0.486083,1.030733 c -0.518422,1.099308 -0.617923,1.248355 -0.931904,1.395944 -0.255161,0.11994 -0.634715,0.107551 -0.896614,-0.02927 z"
     id="path4709" />
  <path
     style="fill:#ffffff;stroke-width:0.0382318"
     d="m 18.790672,24.910515 c -0.307799,-0.09363 -0.607995,-0.386089 -0.687397,-0.669684 -0.02684,-0.09586 -0.04001,-0.27653 -0.02999,-0.411376 0.0156,-0.20981 0.07969,-0.371934 0.50305,-1.272419 0.308105,-0.655337 0.52938,-1.077577 0.606288,-1.156926 0.466622,-0.481432 1.288567,-0.368015 1.615456,0.22291 0.09944,0.179761 0.114491,0.24545 0.113203,0.494065 -0.0015,0.282686 -0.0071,0.298623 -0.395565,1.127837 -0.550372,1.174684 -0.642024,1.341072 -0.813536,1.476912 -0.24193,0.191612 -0.63464,0.272902 -0.911513,0.188681 z"
     id="path4711" />
  <path
     style="fill:#ffffff;stroke-width:0.0382318"
     d="m 16.515851,29.367692 c -0.211274,-0.09839 -0.417244,-0.308895 -0.507842,-0.519033 -0.03239,-0.07513 -0.05959,-0.249074 -0.06044,-0.386553 -0.0015,-0.240584 0.01632,-0.288618 0.474663,-1.280472 0.261916,-0.566781 0.527983,-1.09852 0.591259,-1.181643 0.220293,-0.289387 0.692858,-0.434089 1.078508,-0.330244 0.35941,0.09678 0.669854,0.469531 0.719584,0.864007 0.01793,0.142227 0.0042,0.251342 -0.053,0.42055 -0.128256,0.379558 -0.953199,2.08863 -1.06637,2.209247 -0.272693,0.290635 -0.795723,0.381398 -1.176368,0.204141 z"
     id="path4713" />
</svg>
