<?xml version="1.0" encoding="UTF-8" standalone="no"?>
<svg
   height="32px"
   version="1.1"
   viewBox="0 0 32 32"
   width="32px"
   id="svg25"
   sodipodi:docname="snow.svg"
   inkscape:version="1.2.1 (9c6d41e410, 2022-07-14)"
   xmlns:inkscape="http://www.inkscape.org/namespaces/inkscape"
   xmlns:sodipodi="http://sodipodi.sourceforge.net/DTD/sodipodi-0.dtd"
   xmlns="http://www.w3.org/2000/svg"
   xmlns:svg="http://www.w3.org/2000/svg">
  <sodipodi:namedview
     id="namedview27"
     pagecolor="#ffffff"
     bordercolor="#000000"
     borderopacity="0.25"
     inkscape:showpageshadow="2"
     inkscape:pageopacity="0.0"
     inkscape:pagecheckerboard="0"
     inkscape:deskcolor="#d1d1d1"
     showgrid="false"
     inkscape:zoom="22.627417"
     inkscape:cx="17.832349"
     inkscape:cy="11.645165"
     inkscape:window-width="1350"
     inkscape:window-height="1040"
     inkscape:window-x="407"
     inkscape:window-y="0"
     inkscape:window-maximized="0"
     inkscape:current-layer="svg25" />
  <title
     id="title2" />
  <desc
     id="desc4" />
  <defs
     id="defs6" />
  <g
     fill="none"
     fill-rule="evenodd"
     id="Light-Snow"
     stroke="none"
     stroke-width="1">
    <g
       id="Group-2"
       stroke="#979797"
       stroke-width="2"
       transform="translate(3.000000, 2.000000)">
      <path
         d="M9.64075822,4.50583286 C8.76235298,4.08656863 7.77895738,3.85185185 6.74074074,3.85185185 C3.01793243,3.85185185 0,6.86978428 0,10.5925926 C0,14.3154009 3.01793243,17.3333333 6.74074074,17.3333333 C8.57997198,17.3333333 10.2471575,16.5967179 11.4633749,15.4024092"
         id="Oval" />
      <path
         d="M9.96956753,13.5435375 C11.529699,15.8313205 14.156887,17.3333333 17.134889,17.3333333 C21.9213568,17.3333333 25.8015556,13.4531345 25.8015556,8.66666667 C25.8015556,3.88019884 21.9213568,0 17.134889,0 C12.9842561,0 9.51510686,2.91777867 8.66666667,6.81411072"
         id="path9"
         stroke-linecap="round" />
    </g>
    <circle
       cx="14"
       cy="29"
       id="Oval-10"
       r="1"
       stroke="#979797" />
    <circle
       cx="22"
       cy="23"
       id="circle13"
       r="1"
       stroke="#979797" />
    <circle
       cx="8.5"
       cy="22.5"
       id="circle15"
       r="1"
       stroke="#979797" />
    <circle
       cx="18.5"
       cy="26.5"
       id="circle17"
       r="1"
       stroke="#979797" />
    <polygon
       fill="#D8D8D8"
       id="Star-2"
       points="8 27 7 28.7320508 8 27 6 27 8 27 7 25.2679492 8 27 9 25.2679492 8 27 10 27 8 27 9 28.7320508"
       stroke="#979797"
       stroke-linecap="round"
       stroke-linejoin="round" />
    <polygon
       fill="#D8D8D8"
       id="polygon20"
       points="15 23 14 24.7320508 15 23 13 23 15 23 14 21.2679492 15 23 16 21.2679492 15 23 17 23 15 23 16 24.7320508"
       stroke="#979797"
       stroke-linecap="round"
       stroke-linejoin="round" />
    <polygon
       fill="#D8D8D8"
       id="polygon22"
       points="22 28 21 29.7320508 22 28 20 28 22 28 21 26.2679492 22 28 23 26.2679492 22 28 24 28 22 28 23 29.7320508"
       stroke="#979797"
       stroke-linecap="round"
       stroke-linejoin="round" />
  </g>
  <path
     style="fill:#ffffff;stroke-width:0.03125"
     d="M 9.234375,20.328161 C 6.7867519,20.163768 4.6249406,18.904616 3.2520635,16.84375 2.9801451,16.435565 2.5825477,15.627758 2.4224034,15.158113 1.7330268,13.136419 1.8632815,11.045395 2.7962732,9.15625 3.6525524,7.4224344 5.0972216,6.0897412 6.890625,5.3792509 8.4273706,4.7704406 10.286041,4.6744178 11.83641,5.1237412 c 0.15065,0.043661 0.27911,0.079384 0.285467,0.079384 0.0064,0 0.107935,-0.1300781 0.22573,-0.2890625 2.286878,-3.0865333 6.164312,-4.53121606 9.911346,-3.6928418 3.006365,0.6726543 5.551748,2.7773833 6.756049,5.5864496 1.258502,2.9354925 1.01604,6.2819895 -0.649027,8.9579545 -0.769146,1.236111 -1.920007,2.385045 -3.147225,3.141953 -2.221013,1.36985 -4.943085,1.785179 -7.46875,1.139569 -1.043993,-0.266866 -1.997266,-0.680518 -2.852638,-1.237842 -0.142388,-0.09277 -0.26709,-0.16868 -0.277115,-0.16868 -0.01002,0 -0.120169,0.07672 -0.244766,0.170498 -1.439595,1.083471 -3.322788,1.639164 -5.141106,1.517038 z m 0.967222,-2.032242 c 0.933183,-0.08259 1.859535,-0.393488 2.607731,-0.875186 l 0.246828,-0.158911 -0.123881,-0.130911 c -0.329149,-0.347829 -0.746515,-0.896689 -0.877983,-1.154599 -0.112701,-0.221093 -0.12115,-0.61754 -0.01793,-0.841177 0.234945,-0.509019 0.841826,-0.741602 1.339984,-0.513538 0.233329,0.106822 0.285654,0.155347 0.547401,0.507645 1.302148,1.752628 3.103788,2.829502 5.231437,3.126929 0.534372,0.0747 1.515424,0.06596 2.072841,-0.01847 1.679645,-0.254405 3.107049,-0.974908 4.30527,-2.173147 1.220321,-1.220339 1.942821,-2.675895 2.188167,-4.408304 0.06321,-0.446321 0.07179,-1.451218 0.01602,-1.875 C 27.507357,8.032735 26.746604,6.4684025 25.539264,5.2610628 24.359934,4.0817325 22.899757,3.3499295 21.203125,3.0879021 20.713194,3.0122373 19.587846,3.0121597 19.076301,3.0877554 17.217161,3.3624975 15.550635,4.2764137 14.335668,5.6875 13.545548,6.6051612 13.000836,7.6802528 12.667857,8.9792365 12.55707,9.4114287 12.321378,9.6800828 11.961118,9.7848131 11.346597,9.963459 10.754723,9.5654362 10.654664,8.90625 10.629152,8.7381815 10.747483,8.2262381 10.958036,7.59375 11.049582,7.31875 11.1246,7.080095 11.124742,7.0634056 11.125148,7.0156637 10.635821,6.9264072 10.152196,6.8860066 8.9435681,6.7850412 7.6492319,7.1244566 6.59375,7.8191419 5.2666259,8.6926134 4.3839982,10.046101 4.0906984,11.65751 c -0.079506,0.436812 -0.079506,1.435667 0,1.87248 0.5044478,2.771469 2.7806113,4.720967 5.5968016,4.793572 0.085937,0.0022 0.317281,-0.01022 0.514097,-0.02764 z"
     id="path899" />
  <path
     style="fill:#ffffff;stroke-width:0.03125"
     d="M 13.734057,25.164062 C 13.558199,25.044374 13.5,24.938904 13.5,24.739896 c 0,-0.16747 0.01694,-0.206683 0.302766,-0.700834 l 0.302767,-0.523437 h -0.608699 c -0.682401,0 -0.779777,-0.0238 -0.92389,-0.225855 -0.103373,-0.144933 -0.103373,-0.434607 0,-0.57954 0.144113,-0.20205 0.241489,-0.225855 0.92389,-0.225855 h 0.608699 L 13.802766,21.960937 C 13.51694,21.466787 13.5,21.427574 13.5,21.260104 c 0,-0.131045 0.01708,-0.200449 0.06537,-0.265625 0.112647,-0.152029 0.255543,-0.228854 0.425678,-0.228854 0.286874,0 0.357118,0.06799 0.71867,0.695598 0.156616,0.271865 0.29418,0.483213 0.305698,0.469663 0.01152,-0.01355 0.137616,-0.228542 0.280219,-0.477761 0.27741,-0.484814 0.343981,-0.574776 0.476248,-0.643594 0.132434,-0.06891 0.372898,-0.05605 0.494057,0.02641 0.175858,0.119689 0.234057,0.225159 0.234057,0.424167 0,0.167281 -0.0172,0.207242 -0.301582,0.700833 l -0.301581,0.523438 h 0.607514 c 0.681092,0 0.778645,0.02388 0.922705,0.225855 0.103373,0.144933 0.103373,0.434607 0,0.57954 -0.14406,0.201976 -0.241613,0.225855 -0.922705,0.225855 h -0.607514 l 0.301581,0.523437 C 16.482804,24.532654 16.5,24.572615 16.5,24.739896 c 0,0.199008 -0.0582,0.304478 -0.234057,0.424166 -0.121159,0.08246 -0.361623,0.09531 -0.494057,0.02641 -0.132267,-0.06882 -0.198838,-0.158781 -0.476248,-0.643594 -0.142603,-0.249219 -0.268702,-0.464211 -0.280219,-0.477761 -0.01152,-0.01355 -0.149082,0.197798 -0.305698,0.469663 -0.361552,0.627609 -0.431796,0.695598 -0.71867,0.695598 -0.107931,0 -0.184439,-0.02093 -0.256994,-0.07031 z"
     id="path901" />
  <path
     style="fill:#ffffff;stroke-width:0.03125"
     d="M 21.606838,24.458335 C 20.648791,24.208242 20.188899,23.071819 20.702677,22.224091 20.974897,21.774928 21.484474,21.484375 22,21.484375 c 0.669999,0 1.289868,0.477106 1.458335,1.122463 0.295295,1.131204 -0.720293,2.146792 -1.851497,1.851497 z m 0.575312,-1.016586 c 0.3247,-0.135668 0.395023,-0.564546 0.130632,-0.796684 -0.190642,-0.167386 -0.435568,-0.166819 -0.627217,0.0015 -0.399902,0.351119 0.0055,1.000403 0.496585,0.795233 z"
     id="path903" />
  <path
     style="fill:#ffffff;stroke-width:0.03125"
     d="M 8.1068379,23.958335 C 7.1487907,23.708242 6.6888993,22.571819 7.2026766,21.724091 7.4748975,21.274928 7.9844737,20.984375 8.5,20.984375 c 0.6699986,0 1.2898685,0.477106 1.4583352,1.122463 0.2952948,1.131204 -0.7202929,2.146792 -1.8514973,1.851497 z m 0.5753124,-1.016586 c 0.3246995,-0.135668 0.3950223,-0.564546 0.1306317,-0.796684 -0.1906418,-0.167386 -0.4355678,-0.166819 -0.6272172,0.0015 -0.3999018,0.351119 0.00555,1.000403 0.4965855,0.795233 z"
     id="path905" />
  <path
     style="fill:#ffffff;stroke-width:0.03125"
     d="M 6.7340572,29.164062 C 6.5581989,29.044374 6.5,28.938904 6.5,28.739896 c 0,-0.16747 0.01694,-0.206683 0.3027665,-0.700834 L 7.105533,27.515625 H 6.4968341 c -0.682401,0 -0.7797772,-0.0238 -0.9238899,-0.225855 -0.1033735,-0.144933 -0.1033735,-0.434607 0,-0.57954 0.1441127,-0.20205 0.2414889,-0.225855 0.9238899,-0.225855 H 7.105533 L 6.8027665,25.960937 C 6.5169403,25.466787 6.5,25.427574 6.5,25.260104 c 0,-0.131045 0.017081,-0.200449 0.065373,-0.265625 0.1126462,-0.152029 0.2555431,-0.228854 0.4256774,-0.228854 0.2868739,0 0.3571183,0.06799 0.7186707,0.695598 0.1566157,0.271865 0.2941794,0.483213 0.305697,0.469663 0.011518,-0.01355 0.1376165,-0.228542 0.2802195,-0.477761 0.2774104,-0.484814 0.343981,-0.574776 0.4762476,-0.643594 0.1324344,-0.06891 0.3728984,-0.05605 0.4940572,0.02641 C 9.4418009,24.955626 9.5,25.061096 9.5,25.260104 c 0,0.167281 -0.017196,0.207242 -0.3015816,0.700833 l -0.3015815,0.523438 h 0.607514 c 0.6810921,0 0.7786451,0.02388 0.9227051,0.225855 0.103373,0.144933 0.103373,0.434607 0,0.57954 -0.14406,0.201976 -0.241613,0.225855 -0.9227051,0.225855 h -0.607514 l 0.3015815,0.523437 C 9.4828037,28.532654 9.5,28.572615 9.5,28.739896 9.5,28.938904 9.4418009,29.044374 9.2659428,29.164062 9.144784,29.246522 8.90432,29.259375 8.7718856,29.190469 8.639619,29.121651 8.5730484,29.031688 8.295638,28.546875 8.153035,28.297656 8.0269362,28.082664 8.0154185,28.069114 c -0.011518,-0.01355 -0.1490813,0.197798 -0.305697,0.469663 -0.3615524,0.627609 -0.4317968,0.695598 -0.7186707,0.695598 -0.1079312,0 -0.1844389,-0.02093 -0.2569936,-0.07031 z"
     id="path907" />
  <path
     style="fill:#ffffff;stroke-width:0.03125"
     d="M 13.606838,30.458335 C 12.648791,30.208242 12.188899,29.071819 12.702677,28.224091 12.974897,27.774928 13.484474,27.484375 14,27.484375 c 0.669999,0 1.289869,0.477106 1.458335,1.122463 0.295295,1.131204 -0.720293,2.146792 -1.851497,1.851497 z m 0.575312,-1.016586 c 0.3247,-0.135668 0.395023,-0.564546 0.130632,-0.796684 -0.190642,-0.167386 -0.435568,-0.166819 -0.627217,0.0015 -0.399902,0.351119 0.0055,1.000403 0.496585,0.795233 z"
     id="path909" />
  <path
     style="fill:#ffffff;stroke-width:0.03125"
     d="m 18.106838,27.958335 c -0.958047,-0.250093 -1.417939,-1.386516 -0.904161,-2.234244 0.27222,-0.449163 0.781797,-0.739716 1.297323,-0.739716 0.669999,0 1.289868,0.477106 1.458335,1.122463 0.295295,1.131204 -0.720293,2.146792 -1.851497,1.851497 z m 0.575312,-1.016586 c 0.3247,-0.135668 0.395023,-0.564546 0.130632,-0.796684 -0.190642,-0.167386 -0.435568,-0.166819 -0.627217,0.0015 -0.399902,0.351119 0.0055,1.000403 0.496585,0.795233 z"
     id="path911" />
  <path
     style="fill:#ffffff;stroke-width:0.03125"
     d="M 20.734057,30.164062 C 20.558199,30.044374 20.5,29.938904 20.5,29.739896 c 0,-0.16747 0.01694,-0.206683 0.302766,-0.700834 l 0.302767,-0.523437 h -0.608699 c -0.682401,0 -0.779777,-0.0238 -0.92389,-0.225855 -0.103373,-0.144933 -0.103373,-0.434607 0,-0.57954 0.144113,-0.20205 0.241489,-0.225855 0.92389,-0.225855 h 0.608699 L 20.802766,26.960937 C 20.51694,26.466787 20.5,26.427574 20.5,26.260104 c 0,-0.131045 0.01708,-0.200449 0.06537,-0.265625 0.112647,-0.152029 0.255543,-0.228854 0.425678,-0.228854 0.286874,0 0.357118,0.06799 0.71867,0.695598 0.156616,0.271865 0.29418,0.483213 0.305698,0.469663 0.01152,-0.01355 0.137616,-0.228542 0.280219,-0.477761 0.27741,-0.484814 0.343981,-0.574776 0.476248,-0.643594 0.132434,-0.06891 0.372898,-0.05605 0.494057,0.02641 0.175858,0.119689 0.234057,0.225159 0.234057,0.424167 0,0.167281 -0.0172,0.207242 -0.301582,0.700833 l -0.301581,0.523438 h 0.607514 c 0.681092,0 0.778645,0.02388 0.922705,0.225855 0.103373,0.144933 0.103373,0.434607 0,0.57954 -0.14406,0.201976 -0.241613,0.225855 -0.922705,0.225855 h -0.607514 l 0.301581,0.523437 C 23.482804,29.532654 23.5,29.572615 23.5,29.739896 c 0,0.199008 -0.0582,0.304478 -0.234057,0.424166 -0.121159,0.08246 -0.361623,0.09531 -0.494057,0.02641 -0.132267,-0.06882 -0.198838,-0.158781 -0.476248,-0.643594 -0.142603,-0.249219 -0.268702,-0.464211 -0.280219,-0.477761 -0.01152,-0.01355 -0.149082,0.197798 -0.305698,0.469663 -0.361552,0.627609 -0.431796,0.695598 -0.71867,0.695598 -0.107931,0 -0.184439,-0.02093 -0.256994,-0.07031 z"
     id="path913" />
</svg>
