<?xml version="1.0" encoding="UTF-8" standalone="no"?>
<svg
   height="32px"
   version="1.1"
   viewBox="0 0 32 32"
   width="32px"
   id="svg11165"
   sodipodi:docname="snow.svg"
   inkscape:version="1.2.1 (9c6d41e410, 2022-07-14)"
   xmlns:inkscape="http://www.inkscape.org/namespaces/inkscape"
   xmlns:sodipodi="http://sodipodi.sourceforge.net/DTD/sodipodi-0.dtd"
   xmlns="http://www.w3.org/2000/svg"
   xmlns:svg="http://www.w3.org/2000/svg">
  <sodipodi:namedview
     id="namedview11167"
     pagecolor="#ffffff"
     bordercolor="#000000"
     borderopacity="0.25"
     inkscape:showpageshadow="2"
     inkscape:pageopacity="0.0"
     inkscape:pagecheckerboard="0"
     inkscape:deskcolor="#d1d1d1"
     showgrid="false"
     inkscape:zoom="26.15625"
     inkscape:cx="16.019116"
     inkscape:cy="16.019116"
     inkscape:window-width="1920"
     inkscape:window-height="1017"
     inkscape:window-x="-8"
     inkscape:window-y="-8"
     inkscape:window-maximized="1"
     inkscape:current-layer="svg11165" />
  <title
     id="title11142" />
  <desc
     id="desc11144" />
  <defs
     id="defs11146" />
  <g
     fill="none"
     fill-rule="evenodd"
     id="Light-Snow"
     stroke="none"
     stroke-width="1">
    <g
       id="Group-2"
       stroke="#979797"
       stroke-width="2"
       transform="translate(3.000000, 2.000000)">
      <path
         d="M9.64075822,4.50583286 C8.76235298,4.08656863 7.77895738,3.85185185 6.74074074,3.85185185 C3.01793243,3.85185185 0,6.86978428 0,10.5925926 C0,14.3154009 3.01793243,17.3333333 6.74074074,17.3333333 C8.57997198,17.3333333 10.2471575,16.5967179 11.4633749,15.4024092"
         id="Oval" />
      <path
         d="M9.96956753,13.5435375 C11.529699,15.8313205 14.156887,17.3333333 17.134889,17.3333333 C21.9213568,17.3333333 25.8015556,13.4531345 25.8015556,8.66666667 C25.8015556,3.88019884 21.9213568,0 17.134889,0 C12.9842561,0 9.51510686,2.91777867 8.66666667,6.81411072"
         id="path11149"
         stroke-linecap="round" />
    </g>
    <circle
       cx="14"
       cy="29"
       id="Oval-10"
       r="1"
       stroke="#979797" />
    <circle
       cx="22"
       cy="23"
       id="circle11153"
       r="1"
       stroke="#979797" />
    <circle
       cx="8.5"
       cy="22.5"
       id="circle11155"
       r="1"
       stroke="#979797" />
    <circle
       cx="18.5"
       cy="26.5"
       id="circle11157"
       r="1"
       stroke="#979797" />
    <polygon
       fill="#D8D8D8"
       id="Star-2"
       points="8 27 7 28.7320508 8 27 6 27 8 27 7 25.2679492 8 27 9 25.2679492 8 27 10 27 8 27 9 28.7320508"
       stroke="#979797"
       stroke-linecap="round"
       stroke-linejoin="round" />
    <polygon
       fill="#D8D8D8"
       id="polygon11160"
       points="15 23 14 24.7320508 15 23 13 23 15 23 14 21.2679492 15 23 16 21.2679492 15 23 17 23 15 23 16 24.7320508"
       stroke="#979797"
       stroke-linecap="round"
       stroke-linejoin="round" />
    <polygon
       fill="#D8D8D8"
       id="polygon11162"
       points="22 28 21 29.7320508 22 28 20 28 22 28 21 26.2679492 22 28 23 26.2679492 22 28 24 28 22 28 23 29.7320508"
       stroke="#979797"
       stroke-linecap="round"
       stroke-linejoin="round" />
  </g>
  <path
     style="fill:#3a3e59;stroke-width:0.0382318"
     d="m 9.1947431,20.298182 c -0.063082,-0.0089 -0.2763618,-0.03496 -0.473954,-0.05791 C 7.7656006,20.129351 6.7294062,19.766866 5.7655865,19.206474 5.0491999,18.789947 4.107087,17.94355 3.5909744,17.252796 1.3072527,14.196313 1.5405332,10.024026 4.1481481,7.2875867 5.3389515,6.0379542 6.8022564,5.2644477 8.5448029,4.9635051 c 0.5483592,-0.094703 1.8808911,-0.093274 2.4086021,0.00258 0.364704,0.066248 1.00393,0.218573 1.129618,0.2691843 0.04301,0.017318 0.146876,-0.093759 0.380969,-0.407404 0.630174,-0.8443229 1.733321,-1.8432778 2.637561,-2.388442 2.615791,-1.57705399 5.74593,-1.85214455 8.544803,-0.7509554 2.243649,0.8827416 4.089569,2.5826575 5.141109,4.7344705 0.33455,0.6846042 0.506843,1.1526579 0.688674,1.870866 0.231016,0.9124752 0.284609,1.3593027 0.284609,2.3728615 0,1.013559 -0.05359,1.460386 -0.284609,2.372861 -0.268169,1.059231 -0.69469,2.023852 -1.292357,2.922801 -1.493452,2.246293 -3.747166,3.728806 -6.391667,4.204493 -2.306969,0.414973 -4.780159,-0.07299 -6.798074,-1.341279 -0.197578,-0.12418 -0.36824,-0.225782 -0.379248,-0.225782 -0.01101,0 -0.133948,0.08432 -0.273199,0.187384 -1.301304,0.963114 -2.791241,1.472874 -4.420447,1.51239 -0.3364397,0.0082 -0.6633214,0.0076 -0.7264039,-0.0014 z m 1.5541459,-2.04085 c 0.532011,-0.09172 1.044073,-0.258033 1.523512,-0.494822 0.39606,-0.195609 0.802868,-0.444451 0.802868,-0.49111 0,-0.01619 -0.09765,-0.141131 -0.216994,-0.277655 -0.306658,-0.350794 -0.732815,-0.931849 -0.798189,-1.088311 -0.03042,-0.0728 -0.05531,-0.236335 -0.05531,-0.363404 0,-0.724633 0.73922,-1.183769 1.391829,-0.864478 0.186216,0.09111 0.260741,0.165746 0.567772,0.568636 1.109863,1.456374 2.533664,2.413649 4.250966,2.858085 0.648154,0.167741 1.1531,0.227866 1.913686,0.227866 1.246066,0 2.218524,-0.214112 3.287933,-0.723923 0.861315,-0.410607 1.478349,-0.845427 2.143269,-1.510347 1.190348,-1.190348 1.927328,-2.651885 2.179612,-4.322481 0.08522,-0.564311 0.08522,-1.653132 0,-2.217443 C 27.317322,6.7600371 25.449114,4.4508717 22.805257,3.4586358 22.336902,3.2828627 21.76276,3.1406267 21.180406,3.0561002 20.642966,2.9780928 19.316832,2.9968603 18.829152,3.0893752 16.880247,3.4590902 15.228639,4.4502701 14.075706,5.9420613 13.40544,6.8093259 13.003282,7.6227036 12.70015,8.7241657 12.529288,9.3450128 12.435238,9.4970904 12.114029,9.6719144 11.480029,10.01698 10.708362,9.5548349 10.705738,8.8285003 10.704828,8.5766488 10.881514,7.8750761 11.082375,7.332977 11.216466,6.9710811 11.250124,7.0110352 10.736609,6.9225382 8.7966826,6.5882193 6.8301328,7.2519188 5.5068409,8.6875554 4.8536326,9.3962196 4.3758627,10.288136 4.1501652,11.220241 c -0.4722521,1.950347 0.089833,3.992195 1.4890224,5.409069 0.8652001,0.876136 1.9008975,1.417988 3.1367486,1.641072 0.4666521,0.08423 1.4462448,0.07776 1.9729528,-0.01305 z"
     id="path11169" />
  <path
     style="fill:#3a3e59;stroke-width:0.0382318"
     d="M 8.1529529,23.933739 C 7.7021,23.80701 7.3633552,23.532004 7.1691393,23.135041 7.0393312,22.869722 6.9973809,22.431798 7.0719835,22.120819 c 0.1018977,-0.424757 0.4710316,-0.830465 0.9126267,-1.003051 0.2973727,-0.11622 0.7420383,-0.114873 1.0489699,0.0032 0.3081339,0.118513 0.6402638,0.433643 0.8008685,0.759878 0.1146274,0.232841 0.1249301,0.283854 0.1249301,0.618579 0,0.334724 -0.010303,0.385737 -0.1249301,0.618579 -0.3147535,0.639355 -1.0463603,0.994285 -1.6814957,0.815757 z m 0.49453,-0.938655 c 0.2683477,-0.07453 0.4294841,-0.387451 0.3396633,-0.65961 -0.125947,-0.381623 -0.6069121,-0.468518 -0.8788636,-0.158783 -0.096203,0.109569 -0.1178405,0.167508 -0.1178405,0.315535 0,0.253684 0.1261751,0.427485 0.3632019,0.500294 0.1529163,0.04697 0.1345273,0.04681 0.2938389,0.0026 z"
     id="path11171" />
  <path
     style="fill:#3a3e59;stroke-width:0.0382318"
     d="m 13.81767,25.176818 c -0.04377,-0.01771 -0.12549,-0.08675 -0.181601,-0.153437 -0.17961,-0.213455 -0.149077,-0.358514 0.203968,-0.96901 0.168147,-0.290765 0.305722,-0.535926 0.305722,-0.544803 0,-0.0089 -0.270968,-0.01617 -0.602151,-0.0162 -0.497718,-5e-5 -0.624886,-0.01165 -0.733244,-0.06691 -0.355557,-0.181303 -0.382744,-0.623553 -0.05167,-0.840507 0.08443,-0.05533 0.218091,-0.07087 0.7442,-0.08655 l 0.641288,-0.01912 -0.304672,-0.535245 c -0.365367,-0.641874 -0.390632,-0.782691 -0.178488,-0.994834 0.1672,-0.167201 0.358455,-0.204585 0.546746,-0.106871 0.115349,0.05986 0.194329,0.167747 0.44994,0.614612 0.170518,0.298103 0.325014,0.53756 0.343324,0.532126 0.01831,-0.0054 0.167648,-0.241176 0.331863,-0.523871 0.164215,-0.282695 0.335408,-0.543819 0.380429,-0.580275 0.204472,-0.165572 0.544228,-0.101653 0.689367,0.129692 0.127744,0.203617 0.08567,0.364618 -0.24498,0.93748 -0.160338,0.277789 -0.291523,0.512868 -0.291523,0.522397 0,0.0095 0.27957,0.02325 0.621266,0.03048 0.502865,0.01065 0.644824,0.02597 0.744873,0.0804 0.233807,0.127192 0.307523,0.431961 0.162152,0.670399 -0.123261,0.202172 -0.259996,0.236648 -0.938561,0.236648 -0.52731,0 -0.595195,0.0071 -0.574905,0.05995 0.01265,0.03297 0.145599,0.269533 0.295437,0.525687 0.149837,0.256155 0.28085,0.527452 0.291138,0.602883 0.03581,0.262508 -0.202646,0.531442 -0.471493,0.531766 -0.216108,2.68e-4 -0.350132,-0.139183 -0.676776,-0.704139 -0.285148,-0.493185 -0.311702,-0.526849 -0.361886,-0.458782 -0.02979,0.0404 -0.18299,0.294277 -0.340453,0.564166 -0.235832,0.404215 -0.309116,0.500243 -0.415763,0.544803 -0.143873,0.06011 -0.263913,0.06545 -0.383548,0.01705 z"
     id="path11173" />
  <path
     style="fill:#3a3e59;stroke-width:0.0382318"
     d="M 13.667861,30.436855 C 12.545626,30.163947 12.1475,28.77598 12.958753,27.964727 c 0.448015,-0.448016 1.097716,-0.564547 1.668627,-0.299287 0.281526,0.130804 0.633718,0.500392 0.742338,0.779004 0.12385,0.317678 0.125119,0.788042 0.003,1.100486 -0.171016,0.437443 -0.635114,0.817011 -1.107894,0.906106 -0.252991,0.04768 -0.352266,0.04532 -0.596933,-0.01418 z m 0.484998,-0.942368 c 0.169156,-0.04698 0.324884,-0.220252 0.358368,-0.398736 0.05681,-0.30283 -0.176773,-0.596675 -0.477611,-0.600827 -0.3286,-0.0045 -0.537798,0.190246 -0.537798,0.500735 0,0.271861 0.112948,0.421078 0.380086,0.502139 0.133024,0.04037 0.119102,0.04053 0.276955,-0.0033 z"
     id="path11175" />
  <path
     style="fill:#3a3e59;stroke-width:0.0382318"
     d=""
     id="path11177" />
  <path
     style="fill:#3a3e59;stroke-width:0.0382318"
     d="m 21.658303,24.433586 c -0.433551,-0.107429 -0.799151,-0.40363 -0.996295,-0.80718 -0.10058,-0.205885 -0.111694,-0.26648 -0.112041,-0.610874 -3.51e-4,-0.348443 0.01007,-0.404337 0.11762,-0.630825 0.208405,-0.438882 0.610997,-0.750979 1.086296,-0.842118 0.620852,-0.119049 1.277998,0.22914 1.576384,0.835248 0.114569,0.232723 0.12493,0.283958 0.12493,0.617775 0,0.32802 -0.01171,0.388573 -0.11842,0.612512 -0.20163,0.423127 -0.53894,0.702859 -0.988776,0.819995 -0.266407,0.06937 -0.426665,0.07064 -0.689698,0.0055 z m 0.617578,-0.997835 c 0.217447,-0.142476 0.301515,-0.443972 0.186054,-0.667249 -0.09791,-0.189333 -0.235821,-0.269099 -0.465263,-0.269099 -0.180884,0 -0.222897,0.01578 -0.348488,0.130873 -0.134494,0.123255 -0.142808,0.144219 -0.142808,0.360122 0,0.191435 0.01577,0.246326 0.09558,0.332782 0.192269,0.20827 0.460572,0.253021 0.674925,0.112571 z"
     id="path11179" />
  <path
     style="fill:#3a3e59;stroke-width:0.0382318"
     d="m 20.808399,30.16554 c -0.06793,-0.02953 -0.158183,-0.110576 -0.200574,-0.180104 -0.136546,-0.223963 -0.106539,-0.345381 0.228495,-0.924541 0.16822,-0.290795 0.305854,-0.544157 0.305854,-0.563027 0,-0.01887 -0.284638,-0.03431 -0.632723,-0.03431 -0.700553,0 -0.811323,-0.02762 -0.915017,-0.228139 -0.08477,-0.163919 -0.07381,-0.391379 0.02489,-0.516857 0.141603,-0.18002 0.277251,-0.210798 0.929032,-0.210798 0.326601,0 0.59382,-0.0095 0.59382,-0.02121 0,-0.01167 -0.137634,-0.258105 -0.305854,-0.547644 -0.364745,-0.627799 -0.388383,-0.756792 -0.180288,-0.983863 0.09867,-0.107664 0.162141,-0.141028 0.296297,-0.155741 0.265894,-0.02916 0.37504,0.07296 0.72267,0.676199 0.163589,0.283871 0.311596,0.513641 0.328905,0.510599 0.01731,-0.003 0.164282,-0.235299 0.326606,-0.516129 0.314804,-0.54463 0.449433,-0.682642 0.665906,-0.682642 0.144021,0 0.360321,0.134842 0.431133,0.26877 0.09263,0.175192 0.03404,0.374468 -0.256471,0.872275 -0.151493,0.259594 -0.284715,0.496153 -0.296048,0.525687 -0.01715,0.0447 0.0796,0.0537 0.577305,0.0537 0.678565,0 0.8153,0.03448 0.938561,0.236648 0.09184,0.150643 0.09922,0.336753 0.01945,0.491007 -0.103693,0.200521 -0.214463,0.228139 -0.915016,0.228139 -0.394972,0 -0.632723,0.01432 -0.632723,0.03811 0,0.02096 0.137634,0.27595 0.305854,0.566646 0.334394,0.577856 0.363667,0.695411 0.228411,0.917258 -0.140864,0.231043 -0.466192,0.293311 -0.678498,0.129863 -0.04779,-0.03679 -0.220798,-0.29878 -0.384471,-0.582202 -0.163672,-0.283423 -0.313821,-0.51437 -0.333664,-0.513217 -0.01984,0.0012 -0.174983,0.240652 -0.344754,0.532219 -0.38257,0.657032 -0.519104,0.755885 -0.847084,0.613303 z"
     id="path11181" />
  <path
     style="fill:#3a3e59;stroke-width:0.0382318"
     d="m 18.026284,27.899826 c -0.722295,-0.259151 -1.141784,-1.015902 -0.958887,-1.729817 0.120032,-0.468531 0.394705,-0.80469 0.825076,-1.009773 0.224349,-0.106908 0.283814,-0.118353 0.611709,-0.117729 0.312731,5.95e-4 0.393763,0.01492 0.583135,0.103068 0.607023,0.282565 0.973324,0.946176 0.870189,1.576484 -0.07778,0.475382 -0.400068,0.90785 -0.830244,1.114096 -0.291397,0.139708 -0.806088,0.169474 -1.100978,0.06367 z m 0.847399,-1.054665 c 0.112867,-0.123159 0.127512,-0.163794 0.127512,-0.353799 0,-0.192147 -0.01332,-0.227976 -0.126973,-0.341632 -0.210179,-0.210179 -0.485882,-0.223612 -0.710489,-0.03462 -0.172158,0.144861 -0.223362,0.351031 -0.140844,0.567101 0.09194,0.240741 0.247532,0.336267 0.516265,0.316961 0.180223,-0.01295 0.22352,-0.03288 0.334529,-0.154013 z"
     id="path11183" />
  <path
     style="fill:#3a3e59;stroke-width:0.0382318"
     d="m 6.8562165,29.186244 c -0.1875917,-0.05431 -0.3185821,-0.235921 -0.3185821,-0.441696 0,-0.144805 0.045287,-0.249534 0.2870856,-0.663901 0.1578971,-0.270585 0.2973722,-0.51878 0.3099446,-0.551543 0.020144,-0.0525 -0.054141,-0.05957 -0.6255178,-0.05957 -0.6120986,0 -0.6556454,-0.0049 -0.7782839,-0.08742 C 5.4717667,27.20776 5.457826,26.876356 5.6998263,26.644299 l 0.116219,-0.111444 0.6666488,-0.01202 c 0.3666568,-0.0066 0.6666488,-0.01818 0.6666488,-0.0257 0,-0.0075 -0.1375747,-0.251574 -0.3057217,-0.542339 -0.3224371,-0.557568 -0.3670694,-0.719559 -0.2542645,-0.922842 0.072248,-0.130197 0.2547645,-0.236127 0.4070591,-0.236251 0.23717,-1.93e-4 0.3421349,0.104591 0.6655562,0.664411 0.1662949,0.287846 0.3148216,0.53106 0.3300593,0.540478 0.015238,0.0094 0.1589847,-0.212132 0.3194379,-0.492331 0.1604531,-0.280199 0.332816,-0.548048 0.3830287,-0.595221 0.2012624,-0.189076 0.5594915,-0.12716 0.7120676,0.123073 0.125908,0.206496 0.098322,0.31217 -0.2309383,0.884653 -0.1682198,0.292484 -0.3058542,0.546005 -0.3058542,0.56338 0,0.01738 0.2672192,0.03159 0.5938206,0.03159 0.6741624,0 0.8113754,0.03475 0.9344704,0.236648 0.04244,0.0696 0.07722,0.193094 0.0773,0.27442 1.14e-4,0.120888 -0.02694,0.17495 -0.148286,0.296297 l -0.14843,0.148429 H 9.5242112 c -0.4436032,0 -0.6544382,0.01332 -0.6544382,0.04134 0,0.02274 0.1304688,0.265784 0.2899307,0.540105 0.1594621,0.274321 0.2989794,0.554526 0.3100391,0.622678 0.063994,0.394349 -0.4135747,0.6785 -0.7449862,0.443263 C 8.6765386,29.082696 8.5024484,28.82351 8.3378888,28.540959 8.1733294,28.258408 8.0235329,28.022325 8.0050079,28.016331 c -0.018525,-0.006 -0.1439874,0.182502 -0.2788055,0.41888 -0.3184076,0.558269 -0.4071651,0.675182 -0.5615554,0.73969 -0.1430543,0.05977 -0.141358,0.05971 -0.3084305,0.01134 z"
     id="path11185" />
</svg>
