<?xml version="1.0" encoding="UTF-8" standalone="no"?>
<svg
   height="32px"
   version="1.1"
   viewBox="0 0 32 32"
   width="32px"
   id="svg1313"
   sodipodi:docname="sunny.svg"
   inkscape:version="1.2.1 (9c6d41e410, 2022-07-14)"
   xmlns:inkscape="http://www.inkscape.org/namespaces/inkscape"
   xmlns:sodipodi="http://sodipodi.sourceforge.net/DTD/sodipodi-0.dtd"
   xmlns="http://www.w3.org/2000/svg"
   xmlns:svg="http://www.w3.org/2000/svg">
  <sodipodi:namedview
     id="namedview1315"
     pagecolor="#ffffff"
     bordercolor="#000000"
     borderopacity="0.25"
     inkscape:showpageshadow="2"
     inkscape:pageopacity="0.0"
     inkscape:pagecheckerboard="0"
     inkscape:deskcolor="#d1d1d1"
     showgrid="false"
     inkscape:zoom="26.15625"
     inkscape:cx="16.038232"
     inkscape:cy="16.038232"
     inkscape:window-width="1350"
     inkscape:window-height="1040"
     inkscape:window-x="438"
     inkscape:window-y="2"
     inkscape:window-maximized="0"
     inkscape:current-layer="svg1313" />
  <title
     id="title1302" />
  <desc
     id="desc1304" />
  <defs
     id="defs1306" />
  <g
     fill="none"
     fill-rule="evenodd"
     id="Sunny"
     stroke="none"
     stroke-width="1">
    <g
       stroke="#979797"
       stroke-width="2"
       transform="translate(2.000000, 2.000000)"
       id="g1310">
      <circle
         cx="14"
         cy="14"
         id="Oval-4"
         r="8" />
      <path
         d="M14,0 L14,3 M23.8994949,4.10050506 L21.7781746,6.22182541 M28,14 L25,14 M23.8994949,23.8994949 L21.7781746,21.7781746 M14,28 L14,25 M4.10050506,23.8994949 L6.22182541,21.7781746 M3.83475851e-17,14 L3,14 M4.10050506,4.10050506 L6.22182541,6.22182541"
         id="Path-7"
         stroke-linecap="round" />
    </g>
  </g>
  <path
     style="fill:#ffffff;stroke-width:0.0382318"
     d="m 15.369176,25.000596 c -0.08411,-0.0082 -0.307766,-0.0341 -0.497014,-0.05752 -3.823936,-0.473299 -6.9362587,-3.35616 -7.7033319,-7.135391 -0.5160684,-2.542575 0.067382,-5.136251 1.6278809,-7.236595 0.382776,-0.515195 1.259573,-1.3919277 1.774376,-1.7742463 2.10855,-1.565914 4.67146,-2.1421847 7.236118,-1.627042 1.749698,0.3514479 3.270729,1.1727545 4.560486,2.4625107 1.169368,1.1693686 1.958318,2.5345736 2.34818,4.0633126 0.400229,1.569388 0.400229,3.039368 0,4.608756 -0.389862,1.528739 -1.178812,2.893944 -2.34818,4.063313 -1.419745,1.419744 -3.062391,2.245067 -5.09369,2.559247 -0.364176,0.05633 -1.594947,0.10392 -1.904825,0.07366 z m 1.127837,-2.042942 c 0.960601,-0.07443 1.761677,-0.296589 2.618877,-0.726296 1.926501,-0.965738 3.300686,-2.757934 3.724441,-4.857376 0.428604,-2.123459 -0.161873,-4.313931 -1.614429,-5.98899 -0.955055,-1.101352 -2.390151,-1.9307031 -3.849558,-2.2246852 -2.137452,-0.4305669 -4.345851,0.16754 -6.00386,1.6260422 -1.108906,0.975472 -1.9181133,2.379606 -2.2128155,3.839669 -0.2312934,1.145912 -0.1558086,2.416569 0.2110813,3.553193 0.1680394,0.520587 0.6003434,1.380201 0.9132792,1.81601 0.705459,0.982456 1.551475,1.709998 2.600081,2.235974 0.960081,0.481573 1.841121,0.701559 3.039426,0.758911 0.05257,0.0025 0.310634,-0.01209 0.573477,-0.03245 z"
     id="path1797" />
  <path
     style="fill:#ffffff;stroke-width:0.0382318"
     d="M 7.7992832,9.1411812 C 7.5433696,9.0192925 5.2592146,6.732397 5.1606703,6.4994026 5.0638572,6.2705014 5.0723388,5.8899182 5.1789901,5.677359 5.3708736,5.2949294 5.6910795,5.0918065 6.0979689,5.0944039 c 0.1442157,9.206e-4 0.3126856,0.028731 0.4014337,0.066266 0.1067697,0.045158 0.5147878,0.4242723 1.3518294,1.256067 1.3271927,1.3188732 1.3809959,1.3891213 1.3809959,1.8030954 0,0.7371034 -0.774384,1.2350135 -1.4329447,0.9213489 z"
     id="path1799" />
  <path
     style="fill:#ffffff;stroke-width:0.0382318"
     d="m 15.683349,5.9689042 c -0.359611,-0.134127 -0.602841,-0.4103528 -0.677343,-0.7692288 -0.02797,-0.1347548 -0.03827,-0.7469667 -0.03064,-1.821981 0.0131,-1.8450593 0.0078,-1.8127905 0.346718,-2.1236809 0.508362,-0.46636128 1.310984,-0.30053432 1.609848,0.3326054 0.07908,0.1675339 0.08121,0.2176346 0.08121,1.911589 0,1.6834718 -0.0026,1.7451056 -0.07983,1.912018 -0.09717,0.2099177 -0.277472,0.3960537 -0.487379,0.5031401 -0.198708,0.1013735 -0.56765,0.1282432 -0.762581,0.055538 z"
     id="path1801" />
  <path
     style="fill:#ffffff;stroke-width:0.0382318"
     d="M 23.378734,9.1535086 C 22.854392,8.9164349 22.618892,8.3030254 22.858819,7.7992832 c 0.121889,-0.2559136 2.408784,-2.5400686 2.641778,-2.6386129 0.496078,-0.2098144 1.126537,0.047057 1.342171,0.5468461 0.08138,0.1886103 0.07961,0.5955336 -0.0034,0.7918862 -0.09855,0.2329944 -2.3827,2.5198899 -2.638613,2.6417786 -0.246785,0.1175405 -0.578286,0.1225122 -0.821984,0.012327 z"
     id="path1803" />
  <path
     style="fill:#ffffff;stroke-width:0.0382318"
     d="m 26.735849,16.979763 c -0.481622,-0.132203 -0.79614,-0.58772 -0.745714,-1.080022 0.03682,-0.359505 0.266784,-0.678978 0.599639,-0.83305 0.166824,-0.07722 0.228815,-0.07983 1.892902,-0.07983 1.972813,0 1.944167,-0.0041 2.249255,0.322061 0.173143,0.185105 0.293159,0.468024 0.293159,0.691081 0,0.35578 -0.275976,0.776727 -0.611709,0.933041 -0.165433,0.07702 -0.235943,0.08041 -1.835125,0.08802 -1.258697,0.006 -1.706686,-0.004 -1.842407,-0.0413 z"
     id="path1805" />
  <path
     style="fill:#ffffff;stroke-width:0.0382318"
     d="m 25.710872,26.897329 c -0.0736,-0.01594 -0.185424,-0.04955 -0.248506,-0.07469 -0.06308,-0.02514 -0.654202,-0.582349 -1.313598,-1.238238 -1.327615,-1.320553 -1.38137,-1.390805 -1.38053,-1.804233 0.0015,-0.738893 0.772759,-1.235064 1.432479,-0.921553 0.279336,0.132746 2.587024,2.458948 2.658884,2.680215 0.0664,0.204463 0.05785,0.578489 -0.01723,0.753655 -0.182326,0.425363 -0.694945,0.699386 -1.131496,0.604845 z"
     id="path1807" />
  <path
     style="fill:#ffffff;stroke-width:0.0382318"
     d="m 15.662228,30.954436 c -0.25286,-0.09015 -0.516926,-0.340861 -0.608269,-0.577497 -0.06041,-0.156501 -0.0671,-0.345368 -0.0671,-1.894263 0,-1.664087 0.0026,-1.726078 0.07983,-1.892902 0.09644,-0.208343 0.275326,-0.393906 0.488503,-0.506732 0.223192,-0.118127 0.66642,-0.118127 0.889612,0 0.213177,0.112826 0.392065,0.298389 0.488503,0.506732 0.07726,0.166912 0.07983,0.228546 0.07983,1.912018 0,1.693954 -0.0021,1.744055 -0.08121,1.911589 -0.227992,0.482999 -0.776714,0.716824 -1.269704,0.541055 z"
     id="path1809" />
  <path
     style="fill:#ffffff;stroke-width:0.0382318"
     d="m 5.90681,26.898778 c -0.4822811,-0.09923 -0.8157005,-0.508245 -0.8124659,-0.996687 9.546e-4,-0.14414 0.028819,-0.312813 0.066326,-0.401494 0.098544,-0.232994 2.3826993,-2.519889 2.6386129,-2.641778 0.6592667,-0.314001 1.4309769,0.182351 1.4324786,0.921348 8.411e-4,0.413636 -0.05278,0.483669 -1.3805298,1.803096 -0.7617636,0.756988 -1.2479235,1.21145 -1.3333486,1.246411 -0.1781311,0.0729 -0.4455917,0.10315 -0.6110734,0.0691 z"
     id="path1811" />
  <path
     style="fill:#ffffff;stroke-width:0.0382318"
     d="M 1.7669774,16.990525 C 1.5488029,16.939151 1.4266238,16.864343 1.2526671,16.675622 1.0947144,16.504264 0.97491039,16.21285 0.97491039,16 c 0,-0.35578 0.27597601,-0.776727 0.61170851,-0.933041 0.1647479,-0.07671 0.2406948,-0.08059 1.7910755,-0.09159 1.0897959,-0.0077 1.6864325,0.0025 1.8252223,0.03131 0.2860655,0.05939 0.5359048,0.2419 0.6807826,0.497327 0.103615,0.182678 0.1186902,0.245676 0.1186902,0.495995 0,0.250319 -0.015075,0.313317 -0.1186902,0.495995 -0.1423396,0.250952 -0.3912059,0.435728 -0.6663295,0.494732 -0.2353491,0.05047 -3.2359317,0.0503 -3.4503924,-2.03e-4 z"
     id="path1813" />
</svg>
