<?xml version="1.0" encoding="UTF-8" standalone="no"?>
<svg
   height="32px"
   version="1.1"
   viewBox="0 0 32 32"
   width="32px"
   id="svg11278"
   sodipodi:docname="thunder.svg"
   inkscape:version="1.2.1 (9c6d41e410, 2022-07-14)"
   xmlns:inkscape="http://www.inkscape.org/namespaces/inkscape"
   xmlns:sodipodi="http://sodipodi.sourceforge.net/DTD/sodipodi-0.dtd"
   xmlns="http://www.w3.org/2000/svg"
   xmlns:svg="http://www.w3.org/2000/svg">
  <sodipodi:namedview
     id="namedview11280"
     pagecolor="#ffffff"
     bordercolor="#000000"
     borderopacity="0.25"
     inkscape:showpageshadow="2"
     inkscape:pageopacity="0.0"
     inkscape:pagecheckerboard="0"
     inkscape:deskcolor="#d1d1d1"
     showgrid="false"
     inkscape:zoom="26.15625"
     inkscape:cx="16.019116"
     inkscape:cy="16.019116"
     inkscape:window-width="1920"
     inkscape:window-height="1017"
     inkscape:window-x="-8"
     inkscape:window-y="-8"
     inkscape:window-maximized="1"
     inkscape:current-layer="svg11278" />
  <title
     id="title11265" />
  <desc
     id="desc11267" />
  <defs
     id="defs11269" />
  <g
     fill="none"
     fill-rule="evenodd"
     id="Thunder"
     stroke="none"
     stroke-width="1">
    <g
       transform="translate(3.000000, 2.000000)"
       id="g11275">
      <path
         d="M9.64075822,4.50583286 C8.76235298,4.08656863 7.77895738,3.85185185 6.74074074,3.85185185 C3.01793243,3.85185185 0,6.86978428 0,10.5925926 C0,14.3154009 3.01793243,17.3333333 6.74074074,17.3333333 C8.57997198,17.3333333 10.2471575,16.5967179 11.4633749,15.4024092"
         id="Oval"
         stroke="#979797"
         stroke-width="2" />
      <path
         d="M9.96956753,13.5435375 C11.529699,15.8313205 14.156887,17.3333333 17.134889,17.3333333 C21.9213568,17.3333333 25.8015556,13.4531345 25.8015556,8.66666667 C25.8015556,3.88019884 21.9213568,0 17.134889,0 C12.9842561,0 9.51510686,2.91777867 8.66666667,6.81411072"
         id="path11272"
         stroke="#979797"
         stroke-linecap="round"
         stroke-width="2" />
      <polygon
         fill="#979797"
         id="Rectangle-5"
         points="10 18 14 18 12 22 15 22 9 30 10 25 7 25" />
    </g>
  </g>
  <path
     style="fill:#3a3e59;stroke-width:0.0382318"
     d="m 9.1947431,20.298182 c -0.063082,-0.0089 -0.2763618,-0.03496 -0.473954,-0.05791 C 7.7656006,20.129351 6.7294062,19.766866 5.7655865,19.206474 5.0491999,18.789947 4.107087,17.94355 3.5909744,17.252796 1.3072527,14.196313 1.5405332,10.024026 4.1481481,7.2875867 5.3389515,6.0379542 6.8022564,5.2644477 8.5448029,4.9635051 c 0.5483592,-0.094703 1.8808911,-0.093274 2.4086021,0.00258 0.364704,0.066248 1.00393,0.218573 1.129618,0.2691843 0.04301,0.017318 0.146876,-0.093759 0.380969,-0.407404 0.630174,-0.8443229 1.733321,-1.8432778 2.637561,-2.388442 2.615791,-1.57705399 5.74593,-1.85214455 8.544803,-0.7509554 2.243649,0.8827416 4.089569,2.5826575 5.141109,4.7344705 0.33455,0.6846042 0.506843,1.1526579 0.688674,1.870866 0.231016,0.9124752 0.284609,1.3593027 0.284609,2.3728615 0,1.013559 -0.05359,1.460386 -0.284609,2.372861 -0.268169,1.059231 -0.69469,2.023852 -1.292357,2.922801 -1.493452,2.246293 -3.747166,3.728806 -6.391667,4.204493 -2.306969,0.414973 -4.780159,-0.07299 -6.798074,-1.341279 -0.197578,-0.12418 -0.36824,-0.225782 -0.379248,-0.225782 -0.01101,0 -0.133948,0.08432 -0.273199,0.187384 -1.301304,0.963114 -2.791241,1.472874 -4.420447,1.51239 -0.3364397,0.0082 -0.6633214,0.0076 -0.7264039,-0.0014 z m 1.5541459,-2.04085 c 0.532011,-0.09172 1.044073,-0.258033 1.523512,-0.494822 0.39606,-0.195609 0.802868,-0.444451 0.802868,-0.49111 0,-0.01619 -0.09765,-0.141131 -0.216994,-0.277655 -0.306658,-0.350794 -0.732815,-0.931849 -0.798189,-1.088311 -0.03042,-0.0728 -0.05531,-0.236335 -0.05531,-0.363404 0,-0.724633 0.73922,-1.183769 1.391829,-0.864478 0.186216,0.09111 0.260741,0.165746 0.567772,0.568636 1.109863,1.456374 2.533664,2.413649 4.250966,2.858085 0.648154,0.167741 1.1531,0.227866 1.913686,0.227866 1.246066,0 2.218524,-0.214112 3.287933,-0.723923 0.861315,-0.410607 1.478349,-0.845427 2.143269,-1.510347 1.190348,-1.190348 1.927328,-2.651885 2.179612,-4.322481 0.08522,-0.564311 0.08522,-1.653132 0,-2.217443 C 27.317322,6.7600371 25.449114,4.4508717 22.805257,3.4586358 22.336902,3.2828627 21.76276,3.1406267 21.180406,3.0561002 20.642966,2.9780928 19.316832,2.9968603 18.829152,3.0893752 16.880247,3.4590902 15.228639,4.4502701 14.075706,5.9420613 13.40544,6.8093259 13.003282,7.6227036 12.70015,8.7241657 12.529288,9.3450128 12.435238,9.4970904 12.114029,9.6719144 11.480029,10.01698 10.708362,9.5548349 10.705738,8.8285003 10.704828,8.5766488 10.881514,7.8750761 11.082375,7.332977 11.216466,6.9710811 11.250124,7.0110352 10.736609,6.9225382 8.7966826,6.5882193 6.8301328,7.2519188 5.5068409,8.6875554 4.8536326,9.3962196 4.3758627,10.288136 4.1501652,11.220241 c -0.4722521,1.950347 0.089833,3.992195 1.4890224,5.409069 0.8652001,0.876136 1.9008975,1.417988 3.1367486,1.641072 0.4666521,0.08423 1.4462448,0.07776 1.9729528,-0.01305 z"
     id="path11282" />
  <path
     style="fill:#3a3e59;stroke-width:0.0382318"
     d="m 12.060193,31.789725 c 0.06854,-0.289939 0.938612,-4.692539 0.938612,-4.749395 0,-0.06375 -0.08828,-0.06781 -1.476014,-0.06781 -1.389561,0 -1.47458,-0.0039 -1.451544,-0.06691 0.01346,-0.0368 0.681898,-1.602389 1.485423,-3.479092 l 1.460953,-3.412186 h 1.978716 1.978716 l -0.994099,1.987908 c -0.546754,1.09335 -0.994098,1.996374 -0.994098,2.00672 0,0.01035 0.66344,0.02331 1.474312,0.02882 l 1.474312,0.01001 -2.910176,3.880525 c -1.600597,2.13429 -2.927621,3.89773 -2.948941,3.918758 -0.02612,0.02576 -0.0314,0.0071 -0.01617,-0.05735 z"
     id="path11284" />
</svg>
