<?xml version="1.0" encoding="UTF-8" standalone="no"?>
<svg
   height="32px"
   version="1.1"
   viewBox="0 0 32 32"
   width="32px"
   id="svg21"
   sodipodi:docname="windy.svg"
   inkscape:version="1.2.1 (9c6d41e410, 2022-07-14)"
   xmlns:inkscape="http://www.inkscape.org/namespaces/inkscape"
   xmlns:sodipodi="http://sodipodi.sourceforge.net/DTD/sodipodi-0.dtd"
   xmlns="http://www.w3.org/2000/svg"
   xmlns:svg="http://www.w3.org/2000/svg">
  <sodipodi:namedview
     id="namedview23"
     pagecolor="#ffffff"
     bordercolor="#000000"
     borderopacity="0.25"
     inkscape:showpageshadow="2"
     inkscape:pageopacity="0.0"
     inkscape:pagecheckerboard="0"
     inkscape:deskcolor="#d1d1d1"
     showgrid="false"
     inkscape:zoom="26.15625"
     inkscape:cx="16.038232"
     inkscape:cy="16.038232"
     inkscape:window-width="1350"
     inkscape:window-height="1040"
     inkscape:window-x="473"
     inkscape:window-y="14"
     inkscape:window-maximized="0"
     inkscape:current-layer="svg21" />
  <title
     id="title2" />
  <desc
     id="desc4" />
  <defs
     id="defs6" />
  <g
     fill="none"
     fill-rule="evenodd"
     id="Windy"
     stroke="none"
     stroke-linecap="round"
     stroke-width="1">
    <g
       stroke="#979797"
       stroke-width="2"
       transform="translate(3.000000, 3.000000)"
       id="g18">
      <g
         id="Group-2"
         transform="translate(2.000000, 0.000000)">
        <g
           id="Group"
           transform="translate(5.000000, 0.000000)">
          <path
             d="M5,10 C7.76142375,10 10,7.76142375 10,5 C10,2.23857625 7.76142375,0 5,0 C2.23857625,0 0,2.23857625 0,5"
             id="Oval-6" />
        </g>
        <path
           d="M0,10 L10,10"
           id="Path-9" />
      </g>
      <g
         id="Group-3"
         transform="translate(3.000000, 17.000000)">
        <path
           d="M0,1 L14,1"
           id="Path-10" />
        <path
           d="M11,4 C11,5.65685425 12.3431458,7 14,7 C15.6568542,7 17,5.65685425 17,4 C17,2.34314575 15.6568542,1 14,1"
           id="Oval-7" />
      </g>
      <g
         id="Group-4"
         transform="translate(0.000000, 4.000000)">
        <path
           d="M21,10 C23.7614237,10 26,7.76142375 26,5 C26,2.23857625 23.7614237,0 21,0 C20.7036941,0 20.4134082,0.0257742635 20.1312618,0.075203111"
           id="Oval-8" />
        <path
           d="M0,10 L21,10"
           id="Path-11" />
      </g>
    </g>
  </g>
  <path
     style="fill:#ffffff;stroke-width:0.0382318"
     d="M 4.6599815,13.961249 C 4.1425719,13.766092 3.8769646,13.211222 4.0401823,12.66645 4.0971065,12.476454 4.3397512,12.198819 4.54468,12.089202 l 0.157829,-0.08442 5.448029,-0.01969 5.448028,-0.01969 0.367747,-0.101092 c 0.896235,-0.246371 1.672137,-0.764824 2.216149,-1.480817 0.263316,-0.34656 0.550111,-0.9434992 0.672583,-1.3999243 0.09115,-0.3396913 0.102231,-0.4483434 0.1013,-0.9931286 C 18.955496,7.4948286 18.940404,7.3240904 18.876817,7.0908177 18.560737,5.9312616 17.888251,5.0511828 16.905535,4.5110145 16.263462,4.1580869 15.627476,4.0150398 14.833931,4.045066 14.203757,4.0689106 13.856837,4.1500019 13.338204,4.3946866 12.496565,4.7917615 11.884605,5.3760557 11.474188,6.1744325 11.192273,6.7228383 11.079649,7.1394649 11.029787,7.818399 10.994362,8.3007545 10.940161,8.4701389 10.753048,8.6832489 10.316971,9.1799138 9.4114921,9.0813148 9.1175589,8.5051584 8.9926989,8.2604123 8.9696008,8.070059 9.0046872,7.5749616 9.2620165,3.9438225 12.647007,1.3781728 16.221112,2.1052805 c 2.313373,0.4706273 4.175432,2.3327404 4.674662,4.6747981 0.103035,0.483372 0.140039,1.4297695 0.07593,1.9418743 -0.345216,2.7574621 -2.502347,4.9197291 -5.238321,5.2507931 -0.485388,0.05873 -10.9159106,0.04791 -11.0733985,-0.0115 z"
     id="path875" />
  <path
     style="fill:#ffffff;stroke-width:0.0382318"
     d="M 2.6634232,17.95335 C 2.4106995,17.86607 2.1472113,17.616817 2.0553571,17.378133 c -0.081489,-0.211748 -0.082169,-0.580222 -0.00142,-0.769205 0.08955,-0.209584 0.2956896,-0.420484 0.5073151,-0.519033 l 0.1914372,-0.08915 10.5519706,-9.79e-4 c 6.374901,-5.92e-4 10.726678,-0.01546 10.99331,-0.03756 1.612855,-0.133684 2.967407,-1.191058 3.477926,-2.714897 0.280782,-0.8381 0.253769,-1.854825 -0.07162,-2.695674 C 27.458212,9.9157815 26.945805,9.2490246 26.360812,8.8034931 26.054036,8.5698512 25.44147,8.2679581 25.066005,8.1653679 24.602174,8.0386333 24.049183,7.9920825 23.606064,8.0424702 c -0.210649,0.023953 -0.4555,0.043173 -0.544113,0.042712 -0.314484,-0.00164 -0.672673,-0.2369922 -0.842417,-0.5535212 -0.06428,-0.1198663 -0.08201,-0.2190488 -0.08201,-0.4587814 0,-0.3463427 0.07085,-0.5241137 0.291623,-0.7316816 0.174677,-0.1642323 0.318139,-0.2302085 0.628049,-0.2888327 0.387029,-0.073212 1.552276,-0.062338 1.98462,0.018522 1.294139,0.2420364 2.312419,0.7801478 3.230585,1.7072066 1.026167,1.0361042 1.596368,2.2814771 1.72299,3.7631721 0.134593,1.574964 -0.400147,3.186532 -1.469753,4.429451 -0.799298,0.928813 -2.061845,1.667884 -3.273547,1.916274 -0.662785,0.135866 -0.955333,0.139309 -11.731649,0.138046 -10.2482356,-0.0012 -10.6608091,-0.0039 -10.8570188,-0.07169 z"
     id="path877" />
  <path
     style="fill:#ffffff;stroke-width:0.0382318"
     d="m 19.173238,27.930322 c -1.464037,-0.311202 -2.619059,-1.393007 -3.043183,-2.850274 -0.141557,-0.486385 -0.173983,-1.228119 -0.06446,-1.474615 0.176035,-0.396206 0.500342,-0.609279 0.926385,-0.608644 0.603433,9e-4 1.033278,0.452283 1.034763,1.086614 0.0011,0.464927 0.210018,0.927078 0.58921,1.303332 0.81105,0.804768 2.009813,0.78762 2.820584,-0.04035 0.620818,-0.633986 0.709311,-1.679722 0.206273,-2.43758 -0.247291,-0.372559 -0.616091,-0.653148 -1.054991,-0.802653 l -0.248507,-0.08465 -7.340502,-0.01912 C 6.073161,21.984354 5.6513154,21.979455 5.5346561,21.9157 5.3624942,21.821612 5.1701111,21.621097 5.0824081,21.444336 5.027776,21.334227 5.0083632,21.214914 5.0083632,20.989247 c 0,-0.264787 0.014112,-0.32986 0.1050995,-0.48464 0.057805,-0.09833 0.1696327,-0.232257 0.2485066,-0.29761 0.2992081,-0.247916 -0.2076039,-0.233643 7.8884957,-0.222164 l 7.356465,0.01043 0.382317,0.105266 c 1.201444,0.330802 2.140133,1.113333 2.654818,2.213168 1.002676,2.142627 -0.09962,4.721571 -2.344754,5.485805 -0.629382,0.214239 -1.485741,0.266932 -2.126073,0.13082 z"
     id="path879" />
</svg>
