<?xml version="1.0" encoding="UTF-8" standalone="no"?>
<svg
   height="32px"
   version="1.1"
   viewBox="0 0 32 32"
   width="32px"
   id="svg11317"
   sodipodi:docname="windy.svg"
   inkscape:version="1.2.1 (9c6d41e410, 2022-07-14)"
   xmlns:inkscape="http://www.inkscape.org/namespaces/inkscape"
   xmlns:sodipodi="http://sodipodi.sourceforge.net/DTD/sodipodi-0.dtd"
   xmlns="http://www.w3.org/2000/svg"
   xmlns:svg="http://www.w3.org/2000/svg">
  <sodipodi:namedview
     id="namedview11319"
     pagecolor="#ffffff"
     bordercolor="#000000"
     borderopacity="0.25"
     inkscape:showpageshadow="2"
     inkscape:pageopacity="0.0"
     inkscape:pagecheckerboard="0"
     inkscape:deskcolor="#d1d1d1"
     showgrid="false"
     inkscape:zoom="26.15625"
     inkscape:cx="16.019116"
     inkscape:cy="16.019116"
     inkscape:window-width="1920"
     inkscape:window-height="1017"
     inkscape:window-x="-8"
     inkscape:window-y="-8"
     inkscape:window-maximized="1"
     inkscape:current-layer="svg11317" />
  <title
     id="title11298" />
  <desc
     id="desc11300" />
  <defs
     id="defs11302" />
  <g
     fill="none"
     fill-rule="evenodd"
     id="Windy"
     stroke="none"
     stroke-linecap="round"
     stroke-width="1">
    <g
       stroke="#979797"
       stroke-width="2"
       transform="translate(3.000000, 3.000000)"
       id="g11314">
      <g
         id="Group-2"
         transform="translate(2.000000, 0.000000)">
        <g
           id="Group"
           transform="translate(5.000000, 0.000000)">
          <path
             d="M5,10 C7.76142375,10 10,7.76142375 10,5 C10,2.23857625 7.76142375,0 5,0 C2.23857625,0 0,2.23857625 0,5"
             id="Oval-6" />
        </g>
        <path
           d="M0,10 L10,10"
           id="Path-9" />
      </g>
      <g
         id="Group-3"
         transform="translate(3.000000, 17.000000)">
        <path
           d="M0,1 L14,1"
           id="Path-10" />
        <path
           d="M11,4 C11,5.65685425 12.3431458,7 14,7 C15.6568542,7 17,5.65685425 17,4 C17,2.34314575 15.6568542,1 14,1"
           id="Oval-7" />
      </g>
      <g
         id="Group-4"
         transform="translate(0.000000, 4.000000)">
        <path
           d="M21,10 C23.7614237,10 26,7.76142375 26,5 C26,2.23857625 23.7614237,0 21,0 C20.7036941,0 20.4134082,0.0257742635 20.1312618,0.075203111"
           id="Oval-8" />
        <path
           d="M0,10 L21,10"
           id="Path-11" />
      </g>
    </g>
  </g>
  <path
     style="fill:#3a3e59;stroke-width:0.0382318"
     d="m 4.6260454,13.894788 c -0.3865406,-0.17598 -0.5903217,-0.485276 -0.5903217,-0.895983 0,-0.410908 0.204397,-0.720953 0.5903217,-0.895444 0.1702818,-0.07699 0.2254657,-0.0778 5.3906806,-0.07885 5.658856,-0.0012 5.626489,-7.6e-5 6.252612,-0.210249 1.208857,-0.4058 2.199021,-1.411887 2.559243,-2.600401 0.151012,-0.4982472 0.18441,-0.7844232 0.162458,-1.3920604 -0.02421,-0.6700517 -0.11835,-1.043164 -0.41193,-1.6325693 C 18.063876,5.1548209 17.159782,4.4255711 15.990142,4.1009468 15.585542,3.9886533 14.453821,3.9789095 14.069295,4.0844089 13.311489,4.2923222 12.730969,4.6117472 12.221172,5.1013196 11.462544,5.8298514 11.053922,6.7334503 10.9871,7.8302624 10.951696,8.4113847 10.808244,8.6777512 10.428872,8.8668005 9.8989335,9.13088 9.2624294,8.8645104 9.0750035,8.3002254 9.0250881,8.1499443 9.0165574,8.0227028 9.0339108,7.6873053 9.0898615,6.6059294 9.433488,5.5849473 10.058397,4.6433568 10.382471,4.1550524 11.17051,3.3684449 11.660693,3.0439692 c 1.827101,-1.209445 4.083367,-1.3531631 6.013651,-0.3830536 0.601358,0.3022266 1.029685,0.6150779 1.537881,1.1232746 0.823072,0.8230711 1.304179,1.6700108 1.588769,2.7968587 0.403905,1.5992877 0.10205,3.3295132 -0.822541,4.7147901 -0.890492,1.334186 -2.164089,2.196006 -3.799639,2.571145 l -0.369973,0.08486 -5.505376,0.01064 c -5.4789013,0.01058 -5.5062039,0.01026 -5.6774196,-0.06769 z"
     id="path11321" />
  <path
     style="fill:#3a3e59;stroke-width:0.0382318"
     d="M 2.6832063,17.915344 C 1.8531603,17.628665 1.8056884,16.473078 2.6090407,16.109965 L 2.8100358,16.019116 13.763441,16 24.716846,15.98088 25.013622,15.8963 c 0.701672,-0.199974 1.250849,-0.513198 1.764659,-1.006476 1.255108,-1.204953 1.591695,-3.037713 0.846703,-4.610406 C 27.406178,9.817517 27.166807,9.4801322 26.808682,9.1288737 25.969577,8.3058568 24.753083,7.8759828 23.62587,8.00416 23.082308,8.0659693 22.945442,8.0589129 22.728515,7.957895 22.372084,7.7919135 22.162884,7.4650613 22.162065,7.0728793 22.161292,6.703123 22.370649,6.3688666 22.714329,6.191143 c 0.356572,-0.1843906 1.696447,-0.2151342 2.448954,-0.056192 2.4327,0.5138289 4.267381,2.3794142 4.719835,4.799338 0.107426,0.574561 0.098,1.690633 -0.01888,2.236559 -0.560134,2.616174 -2.645748,4.499967 -5.290557,4.778601 -0.221135,0.0233 -4.354404,0.03706 -11.020513,0.03669 -10.2499932,-5.61e-4 -10.6746079,-0.0033 -10.8699597,-0.0708 z"
     id="path11323" />
  <path
     style="fill:#3a3e59;stroke-width:0.0382318"
     d="m 19.192354,27.894091 c -1.535064,-0.339789 -2.66533,-1.440951 -3.063801,-2.984909 -0.108749,-0.421372 -0.136074,-0.976356 -0.05918,-1.202024 0.19252,-0.565013 0.81279,-0.833092 1.345204,-0.581393 0.364071,0.172115 0.529099,0.450703 0.571402,0.964601 0.04844,0.5884 0.235434,0.991744 0.634182,1.367903 0.893451,0.842836 2.303653,0.714189 3.009179,-0.274517 0.800199,-1.121378 0.293342,-2.669676 -1.019652,-3.114733 l -0.251264,-0.08517 -7.340502,-0.0194 c -8.2478334,-0.0218 -7.4268817,0.01211 -7.7324377,-0.319382 -0.4836575,-0.524706 -0.2498017,-1.375555 0.433013,-1.575453 0.1691868,-0.04953 1.1326505,-0.05548 7.5316607,-0.04648 l 7.337657,0.01032 0.38142,0.105132 c 1.727254,0.476089 2.916331,1.932606 2.992636,3.665721 0.04268,0.969456 -0.220335,1.828072 -0.79265,2.587592 -0.550869,0.731058 -1.256399,1.201663 -2.199089,1.466842 -0.40261,0.113255 -1.341491,0.131925 -1.777778,0.03535 z"
     id="path11325" />
</svg>
